<?xml version="1.0" standalone="no"?>
<!DOCTYPE svg PUBLIC "-//W3C//DTD SVG 20010904//EN"
 "http://www.w3.org/TR/2001/REC-SVG-20010904/DTD/svg10.dtd">
<svg version="1.0" xmlns="http://www.w3.org/2000/svg"
 width="300.000000pt" height="300.000000pt" viewBox="0 0 300.000000 300.000000"
 preserveAspectRatio="xMidYMid meet">

<g transform="translate(0.000000,300.000000) scale(0.100000,-0.100000)"
fill="#000000" stroke="none">
<path d="M1431 2683 c-43 -41 -1302 -2220 -1307 -2263 -6 -44 12 -78 55 -107
l34 -23 1299 0 1300 0 34 34 c68 68 102 -2 -562 1154 -720 1252 -688 1199
-724 1217 -46 24 -95 19 -129 -12z m174 -763 c72 -67 71 -133 -3 -450 -28
-118 -56 -253 -62 -300 -12 -89 -19 -106 -43 -97 -9 3 -16 29 -20 74 -4 37
-19 118 -33 178 -101 438 -106 470 -79 541 25 66 61 86 147 82 55 -3 72 -8 93
-28z m-53 -980 c72 -20 122 -115 99 -189 -14 -48 -68 -98 -116 -107 -57 -10
-120 19 -150 70 -40 69 -31 140 27 193 43 40 81 49 140 33z"/>
</g>
</svg>
