<?xml version="1.0" standalone="no"?>
<!DOCTYPE svg PUBLIC "-//W3C//DTD SVG 20010904//EN"
 "http://www.w3.org/TR/2001/REC-SVG-20010904/DTD/svg10.dtd">
<svg version="1.0" xmlns="http://www.w3.org/2000/svg"
 width="1080.000000pt" height="1920.000000pt" viewBox="0 0 1080.000000 1920.000000"
 preserveAspectRatio="xMidYMid meet">

<g transform="translate(0.000000,1920.000000) scale(0.100000,-0.100000)"
fill="#000000" stroke="none">
<path d="M0 16291 c0 -2679 1 -2909 16 -2915 14 -5 16 -1 11 24 -5 21 -3 30 7
30 17 0 40 82 32 115 -5 20 -3 25 13 25 13 0 21 9 26 30 4 17 11 28 16 24 5
-3 9 15 9 39 0 30 6 49 19 61 26 24 49 120 30 131 -19 12 -8 27 16 23 24 -5
25 -3 25 43 0 37 3 47 14 43 19 -7 27 22 14 51 -9 20 -8 28 6 44 10 11 20 43
23 75 3 30 10 53 15 50 4 -3 6 -10 3 -15 -8 -11 15 -12 34 0 11 7 10 10 -6 15
-15 5 -19 14 -17 32 3 30 15 45 21 27 13 -35 23 -4 23 68 0 92 19 102 21 11
l1 -57 9 60 c5 33 16 77 24 97 9 23 12 50 8 69 -5 26 -3 31 9 27 16 -7 48 52
48 90 0 11 5 24 11 27 6 4 8 14 4 22 -3 9 2 24 11 34 9 10 13 22 10 28 -3 5
-1 11 6 13 6 2 14 32 17 69 4 52 6 59 12 34 l7 -30 1 32 c0 17 7 34 14 37 10
5 10 7 0 12 -19 8 -16 28 7 49 11 10 23 34 26 54 4 20 11 42 16 48 6 7 7 20 4
29 -4 10 0 21 10 29 14 9 14 16 5 33 -10 18 -9 22 3 22 24 0 43 26 50 69 3 24
14 46 27 54 12 9 16 16 9 19 -8 2 -8 11 -1 31 6 16 11 44 11 63 0 27 4 34 16
32 12 -2 20 10 29 45 6 26 19 55 28 65 21 23 21 32 2 32 -23 0 -18 24 8 35 17
8 23 20 27 60 4 42 8 49 24 47 10 -2 15 1 12 7 -4 5 -1 13 5 17 6 4 9 19 5 37
-5 23 0 38 19 63 14 18 25 43 25 56 0 13 5 30 10 38 9 13 11 13 20 0 7 -11 8
-6 5 18 -4 33 2 39 23 22 6 -6 10 -7 7 -4 -2 3 3 24 12 46 12 31 13 42 4 48
-9 5 -6 13 12 26 25 20 45 74 27 74 -5 0 -10 5 -10 10 0 6 15 10 33 11 30 0
30 1 9 10 -24 9 -22 29 3 29 8 0 24 19 36 43 12 23 30 53 41 66 10 14 16 32
13 43 -5 12 -1 18 10 18 12 0 15 6 10 23 -5 17 -4 18 4 7 8 -12 12 -9 21 15 6
15 8 35 5 43 -6 17 60 86 75 77 6 -3 10 -2 10 4 0 5 -4 13 -10 16 -16 10 -12
23 10 30 11 3 20 13 20 21 0 8 13 23 30 32 29 16 41 42 20 42 -5 0 -10 5 -10
10 0 6 6 10 13 10 7 0 17 10 22 23 6 12 18 21 28 21 9 -1 17 5 17 13 0 8 -4
12 -9 8 -6 -3 -15 4 -22 16 -10 20 -9 21 16 17 24 -5 26 -3 21 18 -5 17 -2 23
6 22 7 -2 13 7 13 19 0 12 4 25 8 29 4 4 7 2 7 -4 0 -7 4 -12 9 -12 5 0 7 10
4 21 -5 18 -3 20 16 14 15 -5 21 -2 21 9 0 9 -4 16 -10 16 -5 0 -10 5 -10 11
0 7 13 9 38 5 20 -3 29 -2 19 2 -17 7 -16 10 7 35 14 16 26 36 26 45 1 15 3
14 17 -3 12 -15 14 -16 10 -3 -7 21 14 69 29 64 6 -2 17 0 24 4 11 7 11 12 2
23 -13 16 -6 50 9 41 5 -3 9 2 9 11 0 11 5 15 15 11 18 -7 21 20 3 28 -7 3 -3
3 10 0 16 -4 22 -1 22 10 0 9 13 19 32 24 27 7 30 10 17 22 -13 11 -9 19 29
57 24 23 52 43 62 43 11 0 20 9 22 22 3 25 24 36 31 16 2 -7 2 -3 0 10 -3 17
2 25 16 29 12 3 19 9 16 13 -7 11 43 50 63 50 12 0 12 3 2 15 -10 12 -10 15 4
15 9 0 16 7 16 15 0 9 8 19 18 22 9 4 20 11 24 17 4 6 27 16 50 22 42 11 42
11 16 19 -33 8 -36 21 -8 28 11 3 20 1 20 -4 0 -5 5 -9 10 -9 6 0 10 11 10 25
0 18 4 23 15 19 11 -4 15 1 15 17 1 24 1 24 16 4 15 -20 15 -20 20 2 3 12 14
23 25 26 11 3 19 14 19 26 0 18 6 21 40 21 30 0 38 3 34 14 -3 9 3 17 15 21
12 4 18 11 15 17 -5 7 -1 9 9 5 11 -4 17 -1 17 8 0 8 8 14 18 13 9 -1 27 0 40
0 19 2 21 4 10 22 -10 16 -10 22 1 32 12 11 13 10 8 -4 -4 -10 -2 -18 3 -18 6
0 10 5 10 11 0 6 21 31 47 55 32 31 50 41 58 34 8 -7 16 -2 25 16 11 19 19 24
36 20 18 -5 27 1 41 24 12 22 22 28 36 24 11 -3 26 1 37 11 10 9 25 15 31 13
7 -2 22 6 34 19 11 13 31 24 44 26 14 2 27 9 29 15 2 6 10 8 18 5 8 -3 14 1
14 11 0 19 16 21 23 4 3 -9 11 -6 26 10 12 12 28 22 37 22 8 0 17 7 20 15 4 8
12 15 20 15 25 0 94 25 94 34 0 4 8 5 17 2 9 -4 19 -2 23 4 9 14 108 40 126
33 8 -3 14 0 14 5 0 7 14 9 32 7 22 -3 47 4 75 20 24 13 43 19 43 14 0 -16 48
-10 54 7 3 9 12 14 19 11 6 -2 20 3 30 12 17 14 20 14 32 -2 13 -18 45 -23 45
-7 0 6 -7 13 -15 16 -8 4 -15 11 -15 16 0 7 5 7 13 1 6 -5 21 -8 32 -6 11 2
34 4 52 6 18 2 39 10 49 18 9 7 39 13 70 13 29 0 48 4 41 8 -19 12 -4 18 51
20 35 2 53 7 57 17 5 14 7 14 16 1 8 -13 10 -13 19 0 6 10 10 11 10 3 0 -17
27 -17 37 0 9 16 51 28 55 17 2 -5 19 -5 38 0 l35 8 -32 1 c-18 1 -33 6 -33
11 0 6 25 8 69 4 68 -7 70 -6 94 22 20 23 28 26 39 17 19 -16 148 4 155 24 3
7 12 13 20 13 8 0 12 -4 9 -9 -3 -4 13 -7 36 -5 22 1 45 9 49 16 7 10 9 10 9
1 0 -17 37 -16 43 1 4 9 33 15 89 20 174 13 266 24 284 33 10 6 68 11 129 12
60 1 112 5 115 9 3 4 115 9 250 10 135 2 247 8 250 12 9 14 160 24 160 11 0
-8 24 -11 73 -10 84 2 175 -9 183 -23 3 -5 12 -1 19 9 11 14 16 16 26 6 15
-15 89 -17 89 -3 0 6 16 10 35 10 19 0 35 -4 35 -10 0 -6 27 -10 60 -10 33 0
60 -4 60 -9 0 -5 20 -7 45 -5 30 2 45 -1 45 -9 0 -9 29 -12 100 -11 61 1 100
-2 100 -8 0 -7 5 -6 13 1 8 6 17 8 20 4 4 -3 7 0 7 8 1 10 5 8 15 -5 8 -11 15
-14 15 -8 0 7 11 12 25 12 14 0 25 -5 25 -11 0 -6 7 -8 16 -5 8 3 48 -3 87
-13 51 -13 96 -17 152 -15 44 2 72 1 63 -3 -12 -6 -15 -12 -8 -22 7 -13 11
-13 26 0 14 11 16 11 10 0 -7 -10 -3 -12 13 -6 12 4 21 2 21 -4 0 -6 5 -11 10
-11 6 0 10 9 10 20 0 11 5 20 10 20 6 0 10 -4 10 -9 0 -4 25 -11 55 -14 30 -3
62 -13 71 -21 20 -20 53 -21 60 -1 4 8 10 15 15 15 4 0 6 -7 3 -15 -4 -9 0
-15 9 -15 8 0 18 -6 20 -12 4 -10 8 -10 15 1 8 11 12 10 21 -5 6 -11 11 -13
11 -6 0 20 26 14 38 -10 6 -13 11 -17 11 -10 1 7 14 12 31 12 17 0 30 -5 30
-12 0 -9 4 -8 10 2 9 13 10 13 11 0 0 -10 3 -8 9 5 5 11 9 14 9 6 1 -7 7 -11
15 -8 7 3 19 0 25 -6 15 -15 110 -26 114 -13 2 6 9 1 16 -12 9 -17 21 -22 51
-22 21 0 42 -5 45 -10 4 -6 18 -10 33 -9 15 0 56 -4 91 -10 41 -8 67 -8 75 -2
8 7 16 4 24 -10 8 -12 23 -19 41 -19 17 0 33 -5 36 -10 4 -6 21 -8 41 -4 19 3
34 2 34 -3 0 -5 30 -10 68 -11 44 -2 71 -7 78 -17 8 -11 13 -12 23 -2 10 9 11
9 6 -4 -7 -18 20 -35 30 -19 9 15 41 12 54 -4 11 -13 121 -33 159 -29 6 0 12
-5 12 -13 0 -13 8 -15 74 -18 11 -1 23 -10 27 -21 7 -19 8 -18 8 3 1 32 21 17
22 -16 l1 -27 7 25 c5 22 10 24 41 19 30 -6 31 -7 8 -8 -50 -2 -29 -21 22 -21
36 0 52 -4 56 -15 4 -8 19 -15 35 -15 22 0 27 4 22 16 -4 11 -2 15 6 13 7 -3
12 -9 11 -14 -2 -13 28 -23 75 -25 38 -2 39 -3 10 -9 -26 -6 -20 -9 45 -21 41
-7 91 -15 110 -17 128 -12 150 -16 161 -29 6 -8 23 -14 38 -14 15 0 31 -4 37
-10 5 -5 27 -12 49 -15 63 -7 95 -16 95 -24 0 -5 24 -6 53 -4 34 2 45 0 33 -5
-16 -7 -17 -10 -5 -18 8 -4 30 -10 49 -11 19 -1 36 -7 38 -13 5 -15 22 -12 22
5 0 8 9 15 20 15 13 0 18 -5 14 -14 -5 -12 5 -15 45 -14 49 0 81 -16 81 -41 0
-14 77 -14 86 0 4 8 9 7 16 -2 7 -11 11 -11 15 -1 7 19 36 15 29 -4 -4 -12 -2
-15 9 -10 10 4 15 -1 16 -17 l0 -22 9 23 c12 27 26 28 40 2 8 -15 18 -19 35
-15 14 3 36 7 50 10 18 4 25 1 25 -10 0 -9 4 -14 9 -10 6 3 14 -3 20 -12 9
-15 11 -14 11 12 l2 30 10 -29 c8 -22 13 -25 20 -15 7 11 11 11 15 2 2 -7 17
-13 33 -13 16 0 35 -6 42 -14 8 -8 26 -11 45 -9 28 5 31 8 37 56 3 29 6 332 6
675 l0 622 -5400 0 -5400 0 0 -2909z m3580 2089 c0 -5 -4 -10 -10 -10 -5 0
-10 5 -10 10 0 6 5 10 10 10 6 0 10 -4 10 -10z m6693 -417 c-7 -2 -19 -2 -25
0 -7 3 -2 5 12 5 14 0 19 -2 13 -5z m-7788 -83 c3 -5 2 -10 -4 -10 -5 0 -13 5
-16 10 -3 6 -2 10 4 10 5 0 13 -4 16 -10z m-1718 -2372 c-3 -8 -6 -5 -6 6 -1
11 2 17 5 13 3 -3 4 -12 1 -19z m-687 -1898 c0 -11 -4 -20 -10 -20 -5 0 -10 9
-10 20 0 11 5 20 10 20 6 0 10 -9 10 -20z"/>
<path d="M5178 18663 c6 -2 18 -2 25 0 6 3 1 5 -13 5 -14 0 -19 -2 -12 -5z"/>
<path d="M6728 18643 c7 -3 16 -2 19 1 4 3 -2 6 -13 5 -11 0 -14 -3 -6 -6z"/>
<path d="M7248 18613 c7 -3 16 -2 19 1 4 3 -2 6 -13 5 -11 0 -14 -3 -6 -6z"/>
<path d="M4373 18533 c9 -2 23 -2 30 0 6 3 -1 5 -18 5 -16 0 -22 -2 -12 -5z"/>
<path d="M8721 18314 c0 -11 3 -14 6 -6 3 7 2 16 -1 19 -3 4 -6 -2 -5 -13z"/>
<path d="M3328 18263 c7 -3 16 -2 19 1 4 3 -2 6 -13 5 -11 0 -14 -3 -6 -6z"/>
<path d="M9135 18210 c-3 -5 -1 -10 4 -10 6 0 11 5 11 10 0 6 -2 10 -4 10 -3
0 -8 -4 -11 -10z"/>
<path d="M9603 18113 c9 -2 23 -2 30 0 6 3 -1 5 -18 5 -16 0 -22 -2 -12 -5z"/>
<path d="M10530 17870 c0 -5 5 -10 10 -10 6 0 10 5 10 10 0 6 -4 10 -10 10 -5
0 -10 -4 -10 -10z"/>
<path d="M952 15855 c0 -16 2 -22 5 -12 2 9 2 23 0 30 -3 6 -5 -1 -5 -18z"/>
<path d="M952 15790 c0 -14 2 -19 5 -12 2 6 2 18 0 25 -3 6 -5 1 -5 -13z"/>
<path d="M870 15680 c0 -5 5 -10 10 -10 6 0 10 5 10 10 0 6 -4 10 -10 10 -5 0
-10 -4 -10 -10z"/>
<path d="M657 15126 c-4 -10 -5 -21 -2 -24 9 -9 17 6 13 25 -3 17 -4 17 -11
-1z"/>
<path d="M290 14120 c0 -6 7 -10 15 -10 8 0 15 2 15 4 0 2 -7 6 -15 10 -8 3
-15 1 -15 -4z"/>
<path d="M298 14083 c7 -3 16 -2 19 1 4 3 -2 6 -13 5 -11 0 -14 -3 -6 -6z"/>
<path d="M10766 10244 c-3 -8 -10 -13 -14 -10 -5 3 -19 -6 -30 -19 -12 -14
-31 -25 -42 -25 -11 0 -20 -5 -20 -11 0 -6 -9 -8 -22 -4 -14 4 -18 3 -11 -2
20 -14 -2 -36 -30 -29 -20 5 -26 1 -32 -17 -20 -57 -23 -63 -24 -44 -1 26 -18
21 -25 -8 -4 -14 -13 -25 -21 -25 -9 0 -16 -10 -16 -22 -1 -17 -3 -18 -6 -6
-4 14 -8 15 -24 5 -10 -6 -19 -15 -19 -19 0 -16 -72 -78 -91 -78 -11 0 -22 -7
-25 -15 -4 -8 -15 -15 -25 -15 -12 0 -21 -9 -25 -25 -3 -14 -12 -25 -20 -25
-8 0 -14 -5 -14 -11 0 -6 -6 -9 -14 -6 -9 4 -16 -5 -21 -26 -7 -31 -7 -32 -14
-7 -4 15 -10 20 -14 13 -4 -6 -4 -18 -1 -27 3 -9 2 -16 -4 -16 -6 0 -13 6 -15
13 -3 6 -4 -1 -4 -17 2 -27 -1 -30 -30 -32 -33 -2 -72 -35 -73 -62 0 -7 -11
-17 -25 -22 -14 -5 -29 -20 -34 -32 -5 -13 -11 -22 -15 -20 -13 5 -26 2 -24
-5 4 -10 -120 -133 -133 -133 -7 0 -8 -13 -4 -32 5 -25 4 -29 -4 -18 -7 10
-11 11 -11 3 0 -7 -9 -13 -20 -13 -11 0 -19 -3 -19 -7 4 -25 -3 -43 -17 -43
-8 0 -12 -5 -9 -11 4 -6 0 -9 -11 -7 -12 2 -20 -5 -24 -22 -5 -19 -12 -25 -33
-24 -15 1 -27 -3 -27 -7 0 -5 5 -9 10 -9 6 0 10 -5 10 -12 0 -6 -3 -8 -6 -5
-9 9 -46 -12 -39 -23 3 -5 -6 -20 -20 -34 -14 -14 -25 -32 -25 -41 0 -8 -6
-15 -13 -15 -15 0 -43 -32 -50 -57 -4 -15 -5 -14 -6 5 0 12 -6 22 -12 22 -5 0
-8 -4 -4 -9 3 -5 1 -12 -4 -15 -4 -3 -11 -18 -14 -33 -4 -19 -20 -37 -51 -57
-47 -29 -63 -52 -43 -59 7 -3 -3 -10 -20 -17 -25 -9 -33 -18 -34 -38 l-1 -27
-7 25 c-6 22 -8 23 -14 7 -4 -10 -7 -30 -7 -43 0 -15 -6 -24 -15 -24 -9 0 -15
-10 -16 -22 -1 -22 -1 -22 -9 2 l-8 25 -2 -25 c-1 -14 -2 -31 -1 -37 1 -7 -3
-13 -9 -13 -5 0 -23 -21 -40 -47 -29 -47 -30 -48 -30 -18 l-1 30 -19 -38 c-10
-21 -17 -44 -14 -51 3 -8 -4 -16 -15 -19 -13 -3 -21 -13 -21 -27 0 -17 -4 -21
-20 -17 -20 5 -21 3 -24 -43 -1 -8 -5 -13 -10 -12 -12 5 -25 -18 -27 -48 l-1
-25 -8 25 c-8 24 -8 24 -9 3 -1 -13 -5 -23 -11 -23 -5 0 -10 -8 -10 -19 0 -10
-7 -24 -15 -31 -8 -7 -15 -20 -15 -30 0 -10 -7 -23 -15 -30 -12 -10 -15 -9
-16 6 0 15 -3 14 -11 -6 -6 -15 -12 -20 -15 -12 -3 6 -9 12 -15 12 -11 0 0
-42 14 -51 5 -3 0 -9 -12 -12 -17 -4 -20 -10 -15 -27 5 -16 2 -23 -14 -27 -12
-3 -21 -12 -21 -19 0 -8 -9 -14 -20 -14 -21 0 -28 -20 -7 -21 6 0 2 -5 -10
-11 -13 -6 -24 -24 -28 -44 -3 -19 -10 -32 -15 -29 -5 3 -12 -6 -16 -20 -3
-14 -10 -25 -16 -25 -5 0 -7 -4 -4 -9 3 -4 -10 -24 -29 -44 -19 -20 -35 -42
-35 -50 0 -8 -9 -26 -21 -41 -11 -14 -18 -26 -14 -26 3 0 1 -10 -6 -21 -9 -18
-13 -19 -20 -8 -7 9 -7 5 -3 -13 5 -22 2 -28 -10 -28 -9 0 -13 -6 -10 -14 3
-7 -6 -21 -20 -30 -15 -9 -26 -25 -26 -36 0 -23 -16 -35 -23 -18 -4 9 -6 7 -6
-3 -1 -9 -8 -22 -16 -29 -8 -7 -15 -22 -15 -34 0 -11 -9 -32 -20 -46 -11 -14
-20 -34 -20 -45 0 -11 -9 -26 -19 -32 -11 -7 -22 -25 -26 -42 -3 -16 -13 -35
-21 -42 -8 -6 -14 -20 -14 -29 0 -10 -3 -20 -7 -22 -5 -1 -19 -27 -33 -56 -13
-30 -33 -58 -43 -64 -11 -5 -16 -16 -13 -24 3 -8 -5 -27 -19 -42 -14 -15 -26
-32 -26 -39 -3 -30 -4 -33 -14 -34 -12 -2 -44 -67 -45 -91 0 -9 -4 -20 -10
-23 -5 -3 -14 -24 -20 -45 -6 -22 -16 -39 -22 -37 -7 1 -17 -8 -23 -20 -5 -13
-15 -23 -22 -23 -15 0 -27 -43 -20 -69 3 -12 0 -18 -7 -15 -15 5 -47 -52 -40
-71 4 -9 0 -15 -10 -15 -10 0 -13 6 -10 15 4 8 2 15 -4 15 -15 0 -23 -28 -9
-34 8 -3 4 -11 -10 -22 -25 -18 -31 -50 -10 -57 6 -3 -1 -10 -17 -16 -21 -8
-25 -15 -18 -24 13 -15 -8 -47 -32 -47 -9 0 -16 -7 -16 -15 0 -8 7 -15 15 -15
8 0 15 -5 15 -11 0 -6 -8 -9 -18 -7 -15 4 -18 1 -14 -17 3 -16 -2 -24 -18 -28
-18 -5 -20 -11 -16 -46 3 -33 1 -43 -15 -52 -11 -5 -17 -14 -14 -20 4 -5 0 -9
-8 -9 -10 0 -17 -17 -22 -52 -5 -33 -10 -44 -12 -30 -3 12 -8 22 -13 22 -13 0
-22 -34 -11 -38 15 -5 14 -22 -2 -22 -14 0 -39 -58 -31 -71 3 -5 -6 -20 -20
-33 -14 -13 -26 -28 -26 -35 0 -6 -4 -11 -9 -11 -5 0 -13 -9 -16 -21 -4 -12
-16 -30 -26 -40 -10 -10 -19 -28 -19 -38 0 -11 -4 -23 -10 -26 -5 -3 -10 -17
-10 -30 0 -12 -7 -26 -16 -29 -13 -5 -15 -2 -11 14 3 12 1 18 -5 14 -10 -6 -7
-45 7 -76 5 -13 3 -18 -8 -18 -9 0 -18 8 -21 18 -2 9 -4 -3 -3 -28 2 -35 -1
-45 -13 -43 -9 1 -24 -18 -39 -50 -14 -29 -29 -55 -33 -58 -5 -3 -12 -25 -15
-48 -5 -34 -9 -40 -23 -36 -14 4 -16 1 -12 -20 4 -25 -11 -35 -23 -15 -9 15
-25 12 -25 -5 0 -8 5 -15 10 -15 16 0 11 -40 -6 -47 -8 -3 -13 -12 -10 -19 6
-15 -27 -37 -39 -26 -4 4 -5 0 -3 -8 3 -8 -1 -23 -10 -32 -14 -16 -17 -28 -21
-83 -2 -18 -3 -18 -15 4 -13 23 -14 21 -22 -40 -4 -35 -10 -54 -12 -41 -5 33
-31 28 -29 -5 1 -18 -3 -27 -10 -26 -7 2 -19 -12 -26 -30 -8 -17 -21 -38 -30
-46 -10 -7 -17 -22 -17 -32 0 -10 -4 -21 -10 -24 -5 -3 -10 -15 -10 -26 0 -14
-7 -19 -25 -19 -19 0 -26 -7 -31 -28 -4 -15 -15 -33 -25 -40 -10 -7 -21 -29
-25 -49 -7 -39 -31 -73 -51 -73 -7 0 -13 -9 -13 -20 0 -25 -23 -22 -32 5 -5
15 -6 13 -7 -11 -1 -17 -9 -42 -19 -55 -10 -13 -22 -32 -25 -42 -4 -10 -11
-16 -17 -12 -9 5 -15 -10 -22 -60 -2 -13 -11 -20 -25 -20 -23 0 -63 -32 -63
-50 0 -18 -78 -95 -92 -93 -8 2 -14 -10 -16 -30 -2 -18 -10 -36 -18 -39 -8 -3
-14 -11 -14 -19 0 -9 -11 -14 -30 -14 -19 0 -30 -5 -30 -14 0 -8 -7 -16 -15
-20 -8 -3 -15 -13 -15 -21 0 -12 -6 -15 -21 -10 -19 6 -21 4 -17 -24 4 -25 1
-31 -14 -31 -15 0 -17 6 -13 27 l5 28 -13 -25 c-23 -46 -42 -70 -54 -70 -7 0
-18 -9 -25 -20 -7 -11 -20 -20 -29 -20 -9 0 -24 -11 -33 -25 -9 -14 -21 -23
-27 -19 -6 3 -13 -3 -16 -15 -3 -11 -14 -23 -24 -26 -10 -4 -19 -11 -19 -16 0
-6 -9 -7 -20 -4 -13 4 -22 1 -26 -9 -3 -9 -14 -16 -25 -16 -10 0 -24 -12 -31
-27 -9 -19 -22 -29 -41 -31 -29 -4 -35 -20 -15 -40 7 -7 8 -12 2 -12 -14 0
-30 13 -37 30 -4 10 -6 8 -6 -7 -1 -28 -20 -77 -27 -70 -3 3 -1 14 5 25 9 17
7 19 -14 14 -14 -2 -25 -8 -25 -13 0 -5 -7 -9 -16 -9 -8 0 -22 -7 -30 -15 -21
-20 -41 -19 -47 3 -3 10 -5 6 -6 -10 -1 -21 -6 -28 -20 -28 -30 0 -51 -11 -51
-26 0 -10 -13 -14 -45 -14 -33 0 -45 -4 -45 -15 0 -8 -9 -15 -19 -15 -11 0
-23 -5 -26 -10 -4 -6 -11 -8 -16 -4 -5 3 -17 0 -25 -7 -9 -7 -28 -13 -42 -14
-30 0 -43 -25 -13 -25 38 0 20 -36 -22 -44 -26 -4 -27 -3 -27 35 0 21 -4 39
-10 39 -5 0 -10 -11 -10 -25 0 -14 -6 -25 -14 -25 -7 0 -18 -15 -24 -32 -9
-26 -11 -27 -7 -6 5 28 -11 49 -20 26 -7 -17 -45 -21 -45 -5 0 8 -3 8 -9 -1
-4 -8 -29 -14 -55 -15 -25 -1 -46 -6 -46 -12 0 -5 -5 -3 -10 5 -9 13 -11 13
-20 0 -9 -13 -11 -13 -20 0 -7 12 -11 8 -16 -17 -4 -18 -10 -30 -15 -28 -4 3
-12 -3 -18 -12 -6 -10 -11 -12 -11 -5 0 6 -7 12 -15 12 -10 0 -15 11 -16 33
-1 25 -3 27 -6 9 -5 -23 -7 -24 -104 -20 -109 3 -132 -12 -29 -19 36 -2 69 -8
74 -13 4 -4 -20 -6 -54 -3 l-63 6 5 -26 c3 -15 1 -27 -3 -27 -5 0 -9 8 -9 18
-1 15 -2 15 -15 -2 -14 -19 -15 -19 -15 -2 0 15 -3 16 -15 6 -13 -10 -15 -9
-17 11 0 13 -1 32 0 41 2 18 -6 17 -63 -7 -33 -14 -275 -20 -275 -6 0 4 15 7
33 6 34 -2 57 3 57 14 0 3 -20 5 -44 3 -42 -4 -45 -2 -49 25 -3 20 -4 16 -6
-16 -1 -30 4 -47 16 -56 9 -7 13 -17 9 -23 -9 -15 -96 -16 -96 -1 0 5 4 8 9 4
5 -3 12 -1 15 4 4 5 -4 12 -16 14 -23 4 -23 4 1 6 19 1 22 5 17 23 -3 13 -6
34 -6 48 l-1 25 -12 -25 c-11 -23 -18 -26 -70 -26 -57 -1 -58 0 -52 24 4 15 2
21 -5 17 -5 -3 -10 -21 -10 -40 0 -28 -3 -32 -20 -28 -14 4 -20 14 -21 37 l-1
31 -8 -30 -8 -30 -1 28 c-1 32 -21 37 -21 5 l-1 -23 -13 24 -13 24 -6 -25 c-7
-28 -47 -46 -47 -22 0 8 9 14 21 14 30 0 18 22 -13 26 -20 2 -25 -1 -21 -12 3
-8 -1 -14 -11 -14 -9 0 -16 -5 -16 -10 0 -6 3 -9 8 -8 4 2 7 -1 7 -7 0 -11 -3
-11 -63 11 -23 9 -42 22 -42 30 0 8 -6 14 -12 15 -7 0 -23 2 -36 3 -13 2 -25
-1 -28 -5 -2 -4 -18 -3 -34 3 -23 8 -30 16 -30 37 0 29 -41 61 -79 61 -12 0
-21 6 -21 15 0 11 -7 14 -25 9 -16 -4 -25 -2 -25 6 0 6 -8 10 -18 8 -9 -1 -28
5 -42 15 -13 9 -31 17 -39 17 -7 0 -22 9 -32 21 -10 11 -23 18 -29 14 -6 -4
-19 4 -29 16 l-18 22 -16 -24 c-16 -23 -18 -23 -34 -5 -17 17 -17 18 4 11 17
-5 23 -2 23 9 0 9 -7 16 -15 16 -8 0 -15 5 -15 11 0 6 -6 9 -12 7 -7 -3 -18 0
-25 6 -35 31 -44 36 -60 36 -10 0 -27 14 -37 30 -26 45 -60 64 -101 57 -34 -6
-49 6 -21 16 9 4 12 14 9 27 -4 16 -8 18 -14 8 -5 -7 -9 -8 -9 -3 0 6 -23 19
-52 29 -37 13 -47 20 -37 27 12 8 6 13 -12 11 -4 -1 -10 10 -13 24 -5 19 -11
24 -26 19 -22 -7 -29 20 -7 28 6 2 9 8 5 12 -4 4 -14 2 -23 -5 -13 -11 -14 -8
-11 16 2 16 1 23 -1 17 -6 -19 -11 -17 -44 19 l-29 32 -1 -29 c-1 -25 -2 -26
-6 -7 -3 13 -11 26 -19 29 -9 3 -14 21 -14 54 0 46 -12 65 -23 37 -3 -7 -6 1
-6 17 -1 17 -6 37 -12 45 -8 11 -9 4 -6 -27 6 -54 -11 -57 -19 -4 -6 36 -10
40 -38 43 -26 2 -32 8 -36 33 -4 21 -11 29 -23 27 -20 -3 -23 14 -4 21 7 3 5
6 -5 6 -10 1 -20 12 -24 27 -5 19 -9 22 -15 12 -7 -11 -11 -10 -19 2 -8 12
-12 13 -19 2 -6 -11 -10 -10 -15 3 -9 23 -8 35 3 33 5 -2 9 2 9 7 1 6 -6 9
-14 9 -9 -1 -14 8 -15 25 0 21 -2 23 -8 8 -6 -17 -8 -17 -20 -3 -7 9 -11 22
-8 31 4 8 2 17 -3 20 -5 3 -12 -6 -16 -20 -8 -33 -26 -27 -36 13 -5 17 -20 40
-33 50 -17 14 -21 22 -13 25 9 4 8 10 -6 21 -25 21 -36 20 -36 -1 0 -14 -3
-14 -12 -5 -10 10 -10 15 2 22 13 9 13 11 0 20 -8 5 -25 10 -37 10 -13 0 -23
5 -23 11 0 6 9 9 20 6 24 -6 24 -4 5 32 -8 16 -24 31 -36 34 -11 3 -18 10 -15
15 8 14 -4 43 -15 36 -5 -3 -12 2 -15 11 -4 9 -13 14 -20 11 -10 -4 -14 3 -14
23 0 23 -7 32 -30 43 -17 7 -34 25 -41 43 -10 28 -12 28 -19 10 -6 -15 -9 -7
-10 30 -1 45 -2 48 -12 25 -11 -25 -11 -25 -15 -2 -5 26 -23 30 -23 5 0 -15
-2 -15 -9 -4 -5 8 -7 30 -4 49 4 23 3 33 -4 29 -11 -7 -36 16 -28 25 3 3 -8 8
-26 12 -24 4 -30 10 -25 22 4 10 -1 22 -11 30 -11 8 -13 13 -5 14 20 0 14 14
-10 25 -14 6 -24 21 -26 38 -2 15 -8 27 -13 27 -5 0 -9 7 -9 15 0 11 -7 14
-22 10 -13 -3 -30 -1 -38 5 -13 9 -13 11 -1 19 12 8 10 11 -11 16 -20 5 -24
11 -20 32 3 18 1 24 -7 19 -6 -4 -11 -1 -11 7 0 7 -11 20 -25 27 -19 10 -23
19 -19 37 5 17 2 23 -10 23 -9 0 -16 6 -16 14 0 8 -10 18 -22 21 -37 12 -67
56 -68 99 0 33 -2 37 -15 26 -13 -11 -15 -8 -15 19 0 20 -5 31 -14 31 -8 0
-22 3 -32 7 -12 4 -15 3 -10 -5 4 -7 1 -12 -8 -12 -12 0 -14 7 -9 30 3 19 1
30 -6 30 -6 0 -11 5 -11 10 0 14 28 12 32 -2 3 -8 6 -9 11 -1 4 6 -6 16 -23
23 -17 7 -30 16 -30 20 0 4 -12 5 -27 3 -20 -3 -24 -2 -14 5 8 6 11 17 8 27
-4 9 -3 14 3 10 6 -3 10 1 10 9 0 9 -6 13 -14 10 -7 -3 -16 2 -20 11 -3 9 -10
14 -15 11 -5 -3 -12 6 -15 19 -4 16 -11 23 -18 19 -8 -5 -9 -2 -5 10 4 10 4
23 0 29 -4 7 -9 3 -14 -9 -6 -15 -8 -12 -8 13 -1 25 -5 31 -16 27 -9 -4 -15 0
-15 10 0 9 -6 16 -14 16 -8 0 -17 14 -21 30 -5 24 -12 30 -32 30 -23 0 -25 3
-21 35 4 37 0 42 -21 23 -10 -11 -12 -7 -9 17 2 23 -1 30 -17 33 -31 6 -45 22
-45 53 0 15 -4 31 -10 34 -5 3 -10 0 -10 -7 0 -9 -3 -9 -10 2 -5 8 -10 11 -11
5 -1 -20 -18 31 -18 58 -1 15 -5 27 -11 27 -5 0 -7 -6 -4 -14 3 -8 1 -23 -5
-33 -9 -16 -11 -14 -12 12 -1 17 -1 39 0 50 2 16 0 17 -8 6 -13 -20 -41 3 -34
29 3 12 -4 24 -21 35 -14 10 -26 26 -26 37 0 15 -5 18 -20 13 -14 -4 -20 -2
-20 9 0 12 -7 14 -30 9 -35 -7 -39 5 -9 31 17 14 19 20 9 29 -10 9 -14 9 -17
0 -3 -10 -10 -8 -27 4 -16 12 -21 24 -18 45 3 17 0 28 -8 28 -19 0 -39 26 -36
46 2 11 1 13 -1 7 -6 -18 -16 -16 -37 8 -13 15 -15 24 -7 32 17 17 13 27 -9
27 -11 0 -20 7 -20 16 0 8 -5 12 -10 9 -9 -6 -15 22 -11 53 1 6 -3 12 -9 12
-5 0 -10 -11 -10 -25 0 -14 -5 -25 -10 -25 -6 0 -10 16 -8 38 2 27 -1 37 -12
37 -8 0 -15 -5 -15 -12 0 -7 -5 -17 -12 -24 -10 -10 -12 -6 -10 17 2 23 -2 30
-20 32 -17 3 -24 13 -31 45 -8 33 -10 36 -11 15 -1 -16 -5 -28 -11 -28 -15 0
-12 77 3 84 6 3 0 3 -15 0 -21 -5 -30 -2 -35 12 -4 11 -13 25 -20 32 -11 11
-14 11 -19 -2 -8 -20 -34 -21 -34 -2 0 8 7 22 16 31 13 13 14 21 6 38 -10 21
-11 21 -11 -5 -1 -16 -6 -28 -11 -28 -6 0 -10 10 -9 23 4 40 -1 68 -10 63 -4
-3 -6 -18 -4 -33 l5 -28 -15 27 c-9 15 -13 36 -10 48 3 11 0 20 -6 20 -6 0
-11 -7 -11 -15 0 -18 -16 -20 -26 -3 -4 6 0 16 9 23 21 15 22 25 3 25 -8 0
-16 -7 -20 -15 -8 -22 -44 2 -51 35 -7 31 -58 63 -74 47 -6 -6 -13 -8 -17 -5
-3 4 4 16 16 28 12 12 20 23 18 24 -2 1 -19 9 -39 18 -25 11 -39 26 -46 50 -6
18 -11 25 -12 15 -1 -24 -21 -11 -21 14 0 11 -7 22 -15 25 -8 4 -15 12 -15 20
0 19 -16 18 -24 -2 -4 -9 -13 -14 -21 -10 -13 5 -15 -435 -15 -3834 l0 -3840
5400 0 5400 0 0 5033 c0 2767 -3 5076 -7 5130 -6 92 -14 116 -27 81z m-10696
-2624 c0 -5 -4 -10 -10 -10 -5 0 -10 5 -10 10 0 6 5 10 10 10 6 0 10 -4 10
-10z m620 -680 c0 -5 -7 -7 -15 -4 -8 4 -15 8 -15 10 0 2 7 4 15 4 8 0 15 -4
15 -10z m7350 -105 c0 -8 -4 -17 -10 -20 -6 -4 -10 5 -10 20 0 15 4 24 10 20
6 -3 10 -12 10 -20z m-7080 -205 c0 -5 -4 -10 -10 -10 -5 0 -10 5 -10 10 0 6
5 10 10 10 6 0 10 -4 10 -10z m227 -292 c-3 -7 -5 -2 -5 12 0 14 2 19 5 13 2
-7 2 -19 0 -25z m240 -304 c-3 -3 -12 -4 -19 -1 -8 3 -5 6 6 6 11 1 17 -2 13
-5z m443 -580 c0 -9 -5 -14 -12 -12 -18 6 -21 28 -4 28 9 0 16 -7 16 -16z
m550 -704 c0 -5 -4 -10 -10 -10 -5 0 -10 5 -10 10 0 6 5 10 10 10 6 0 10 -4
10 -10z m240 -256 c0 -8 -4 -14 -10 -14 -5 0 -10 9 -10 21 0 11 5 17 10 14 6
-3 10 -13 10 -21z m60 -54 c0 -5 -4 -10 -9 -10 -6 0 -13 5 -16 10 -3 6 1 10 9
10 9 0 16 -4 16 -10z m200 -230 c0 -5 -2 -10 -4 -10 -3 0 -8 5 -11 10 -3 6 -1
10 4 10 6 0 11 -4 11 -10z m3430 -31 c0 -5 -7 -9 -15 -9 -9 0 -12 6 -9 15 6
15 24 11 24 -6z m-3140 -215 c0 -8 -4 -12 -10 -9 -5 3 -10 13 -10 21 0 8 5 12
10 9 6 -3 10 -13 10 -21z m2794 -39 c-4 -8 -11 -15 -16 -15 -6 0 -5 6 2 15 7
8 14 15 16 15 2 0 1 -7 -2 -15z m-2714 -10 c0 -2 -7 -5 -15 -9 -9 -3 -15 0
-15 9 0 9 6 12 15 9 8 -4 15 -7 15 -9z m207 -111 c-3 -3 -12 -4 -19 -1 -8 3
-5 6 6 6 11 1 17 -2 13 -5z m2288 -4 c-3 -5 -13 -10 -21 -10 -8 0 -14 5 -14
10 0 6 9 10 21 10 11 0 17 -4 14 -10z m-143 -52 c-9 -9 -15 -9 -24 0 -9 9 -7
12 12 12 19 0 21 -3 12 -12z m-1982 -28 c0 -5 -7 -10 -15 -10 -8 0 -15 5 -15
10 0 6 7 10 15 10 8 0 15 -4 15 -10z m1625 -99 c3 -6 -4 -15 -15 -21 -22 -12
-23 -10 -14 14 7 18 20 21 29 7z m-1095 -71 c0 -5 -7 -7 -15 -4 -8 4 -15 8
-15 10 0 2 7 4 15 4 8 0 15 -4 15 -10z m283 -10 c3 -11 1 -20 -4 -20 -5 0 -9
9 -9 20 0 11 2 20 4 20 2 0 6 -9 9 -20z m280 13 c-7 -2 -19 -2 -25 0 -7 3 -2
5 12 5 14 0 19 -2 13 -5z"/>
<path d="M2 7720 c0 -14 2 -19 5 -12 2 6 2 18 0 25 -3 6 -5 1 -5 -13z"/>
<path d="M295 7510 c-3 -5 -1 -10 4 -10 6 0 11 5 11 10 0 6 -2 10 -4 10 -3 0
-8 -4 -11 -10z"/>
<path d="M290 7444 c0 -8 5 -12 10 -9 6 4 8 11 5 16 -9 14 -15 11 -15 -7z"/>
<path d="M560 7135 c0 -8 5 -15 10 -15 6 0 10 7 10 15 0 8 -4 15 -10 15 -5 0
-10 -7 -10 -15z"/>
<path d="M8140 7141 c0 -6 5 -13 10 -16 6 -3 10 1 10 9 0 9 -4 16 -10 16 -5 0
-10 -4 -10 -9z"/>
<path d="M750 6920 c0 -5 5 -10 10 -10 6 0 10 5 10 10 0 6 -4 10 -10 10 -5 0
-10 -4 -10 -10z"/>
<path d="M1250 6300 c-9 -6 -10 -10 -3 -10 6 0 15 5 18 10 8 12 4 12 -15 0z"/>
<path d="M1530 5920 c0 -5 5 -10 10 -10 6 0 10 5 10 10 0 6 -4 10 -10 10 -5 0
-10 -4 -10 -10z"/>
<path d="M1620 5799 c0 -11 5 -17 10 -14 6 3 10 13 10 21 0 8 -4 14 -10 14 -5
0 -10 -9 -10 -21z"/>
<path d="M1740 5640 c0 -5 5 -10 10 -10 6 0 10 5 10 10 0 6 -4 10 -10 10 -5 0
-10 -4 -10 -10z"/>
<path d="M2440 4780 c0 -6 7 -10 15 -10 8 0 15 2 15 4 0 2 -7 6 -15 10 -8 3
-15 1 -15 -4z"/>
<path d="M6740 4735 c0 -8 5 -15 10 -15 6 0 10 7 10 15 0 8 -4 15 -10 15 -5 0
-10 -7 -10 -15z"/>
<path d="M6620 4583 c0 -13 5 -23 10 -23 13 0 13 11 0 30 -8 12 -10 11 -10 -7z"/>
<path d="M6562 4490 c0 -14 2 -19 5 -12 2 6 2 18 0 25 -3 6 -5 1 -5 -13z"/>
<path d="M2690 4490 c0 -5 10 -10 23 -10 18 0 19 2 7 10 -19 13 -30 13 -30 0z"/>
<path d="M6502 4470 c0 -14 2 -19 5 -12 2 6 2 18 0 25 -3 6 -5 1 -5 -13z"/>
<path d="M2836 4364 c-3 -9 -2 -23 4 -32 7 -14 9 -10 10 16 0 35 -5 41 -14 16z"/>
<path d="M2866 4352 c-2 -4 -1 -14 5 -22 7 -12 9 -10 9 8 0 23 -5 28 -14 14z"/>
<path d="M6400 4330 c0 -5 5 -10 10 -10 6 0 10 5 10 10 0 6 -4 10 -10 10 -5 0
-10 -4 -10 -10z"/>
<path d="M6250 4206 c0 -9 5 -16 10 -16 6 0 10 4 10 9 0 6 -4 13 -10 16 -5 3
-10 -1 -10 -9z"/>
<path d="M6225 4179 c-4 -6 -5 -12 -2 -15 2 -3 7 2 10 11 7 17 1 20 -8 4z"/>
<path d="M3068 4133 c6 -2 18 -2 25 0 6 3 1 5 -13 5 -14 0 -19 -2 -12 -5z"/>
<path d="M3271 3984 c0 -11 3 -14 6 -6 3 7 2 16 -1 19 -3 4 -6 -2 -5 -13z"/>
<path d="M3301 3984 c0 -11 3 -14 6 -6 3 7 2 16 -1 19 -3 4 -6 -2 -5 -13z"/>
<path d="M5970 3980 c0 -5 5 -10 10 -10 6 0 10 5 10 10 0 6 -4 10 -10 10 -5 0
-10 -4 -10 -10z"/>
<path d="M3357 3944 c-8 -8 1 -24 14 -24 5 0 9 7 9 15 0 15 -12 20 -23 9z"/>
<path d="M3432 3920 c0 -14 2 -19 5 -12 2 6 2 18 0 25 -3 6 -5 1 -5 -13z"/>
<path d="M3610 3820 c0 -5 5 -10 10 -10 6 0 10 5 10 10 0 6 -4 10 -10 10 -5 0
-10 -4 -10 -10z"/>
<path d="M5500 3786 c0 -9 5 -16 10 -16 6 0 10 4 10 9 0 6 -4 13 -10 16 -5 3
-10 -1 -10 -9z"/>
<path d="M3771 3744 c0 -11 3 -14 6 -6 3 7 2 16 -1 19 -3 4 -6 -2 -5 -13z"/>
<path d="M3825 3740 c-3 -5 -1 -10 4 -10 6 0 11 5 11 10 0 6 -2 10 -4 10 -3 0
-8 -4 -11 -10z"/>
<path d="M5317 3716 c-4 -10 -5 -21 -2 -24 9 -9 17 6 13 25 -3 17 -4 17 -11
-1z"/>
<path d="M5254 3699 c-4 -7 0 -9 14 -5 15 5 22 2 25 -11 4 -14 5 -13 6 5 1 16
-5 22 -18 22 -11 0 -23 -5 -27 -11z"/>
<path d="M4046 3692 c-2 -4 -1 -14 5 -22 7 -12 9 -10 9 8 0 23 -5 28 -14 14z"/>
<path d="M4082 3675 c0 -16 2 -22 5 -12 2 9 2 23 0 30 -3 6 -5 -1 -5 -18z"/>
<path d="M4021 3674 c0 -11 3 -14 6 -6 3 7 2 16 -1 19 -3 4 -6 -2 -5 -13z"/>
<path d="M4238 3683 c7 -3 16 -2 19 1 4 3 -2 6 -13 5 -11 0 -14 -3 -6 -6z"/>
<path d="M3850 3663 c0 -5 16 -9 35 -10 20 0 44 -8 54 -17 22 -20 57 -21 64
-2 4 10 -5 16 -31 20 -81 15 -122 18 -122 9z"/>
<path d="M5160 3660 c0 -5 5 -10 10 -10 6 0 10 5 10 10 0 6 -4 10 -10 10 -5 0
-10 -4 -10 -10z"/>
<path d="M4252 3638 c2 -6 10 -14 16 -16 7 -2 10 2 6 12 -7 18 -28 22 -22 4z"/>
<path d="M4921 3643 c-1 -8 -16 -13 -41 -13 -22 0 -40 -4 -40 -9 0 -8 79 -4
89 5 1 1 1 9 -2 16 -4 10 -6 10 -6 1z"/>
<path d="M4960 3640 c0 -5 9 -10 20 -10 11 0 20 5 20 10 0 6 -9 10 -20 10 -11
0 -20 -4 -20 -10z"/>
<path d="M5073 3642 c-7 -4 -9 -13 -4 -21 6 -9 10 -7 14 8 3 12 4 21 4 21 -1
0 -7 -4 -14 -8z"/>
<path d="M4290 3630 c0 -5 5 -10 10 -10 6 0 10 5 10 10 0 6 -4 10 -10 10 -5 0
-10 -4 -10 -10z"/>
<path d="M5041 3624 c0 -11 3 -14 6 -6 3 7 2 16 -1 19 -3 4 -6 -2 -5 -13z"/>
<path d="M4390 3588 c0 -16 5 -28 10 -28 13 0 13 20 0 40 -8 12 -10 9 -10 -12z"/>
<path d="M4535 3600 c3 -5 8 -10 11 -10 2 0 4 5 4 10 0 6 -5 10 -11 10 -5 0
-7 -4 -4 -10z"/>
<path d="M4780 3600 c0 -5 5 -10 10 -10 6 0 10 5 10 10 0 6 -4 10 -10 10 -5 0
-10 -4 -10 -10z"/>
<path d="M4618 3593 c12 -2 32 -2 45 0 12 2 2 4 -23 4 -25 0 -35 -2 -22 -4z"/>
<path d="M4390 3546 c0 -2 9 -6 20 -9 11 -3 20 -1 20 4 0 5 -9 9 -20 9 -11 0
-20 -2 -20 -4z"/>
</g>
</svg>
