<?xml version="1.0" standalone="no"?>
<!DOCTYPE svg PUBLIC "-//W3C//DTD SVG 20010904//EN"
 "http://www.w3.org/TR/2001/REC-SVG-20010904/DTD/svg10.dtd">
<svg version="1.0" xmlns="http://www.w3.org/2000/svg"
 width="2160.000000pt" height="3402.000000pt" viewBox="0 0 2160.000000 3402.000000"
 preserveAspectRatio="xMidYMid meet">

<g transform="translate(0.000000,3402.000000) scale(0.100000,-0.100000)"
fill="#000000" stroke="none">
<path d="M7905 29948 c-120 -28 -168 -45 -248 -87 -165 -85 -285 -207 -362
-370 -68 -145 -75 -198 -75 -612 0 -379 0 -380 -60 -384 -18 -2 -37 -9 -42
-16 -10 -15 -4 -301 6 -318 4 -5 21 -13 39 -16 57 -13 57 -13 57 -201 0 -186
-5 -206 -52 -197 -53 9 -53 9 -56 -339 -2 -178 0 -338 3 -355 5 -30 9 -33 44
-33 21 0 43 -6 49 -13 7 -8 8 -46 4 -107 l-7 -95 -38 -3 c-30 -3 -40 -9 -47
-28 -14 -35 -13 -650 0 -675 7 -13 21 -19 44 -19 24 0 36 -6 44 -22 9 -18 13
-832 15 -3393 2 -3126 3 -3373 19 -3415 49 -131 111 -246 151 -279 10 -7 17
-18 17 -23 0 -18 133 -135 193 -170 55 -31 140 -69 202 -89 119 -39 385 -42
2415 -32 l1895 10 95 37 c52 20 112 48 132 61 21 14 41 25 44 25 9 0 108 84
152 130 86 88 168 246 200 383 15 66 17 383 22 3887 l5 3815 35 5 35 5 0 355
0 355 -35 5 -35 5 -6 750 c-4 512 -10 768 -18 808 -38 187 -137 355 -278 473
-73 59 -214 137 -285 155 -24 6 -63 16 -88 22 -58 14 -4125 19 -4185 5z m4151
-139 c64 -12 188 -65 180 -77 -2 -4 6 -9 20 -10 13 -1 33 -11 44 -22 11 -11
25 -20 31 -20 13 0 149 -138 149 -151 0 -5 16 -29 35 -55 19 -25 35 -54 35
-64 0 -9 7 -23 15 -30 8 -7 15 -23 15 -36 0 -12 5 -35 10 -49 7 -18 10 -1670
10 -4982 0 -5398 4 -5009 -54 -5113 -14 -25 -32 -60 -40 -77 -8 -18 -44 -63
-80 -100 -37 -37 -66 -70 -66 -74 0 -4 -10 -11 -22 -15 -12 -3 -36 -19 -52
-35 -17 -16 -37 -29 -44 -29 -7 0 -43 -15 -80 -32 l-67 -33 -2105 0 -2105 0
-65 23 c-253 90 -424 297 -460 557 -8 58 -10 1441 -8 4980 3 4732 4 4902 22
4955 29 87 102 221 149 271 97 104 211 173 352 210 67 17 162 18 2096 18 1429
1 2043 -2 2085 -10z"/>
<path d="M12330 29611 c0 -5 5 -13 10 -16 6 -3 10 -2 10 4 0 5 -4 13 -10 16
-5 3 -10 2 -10 -4z"/>
<path d="M12426 29425 c4 -8 8 -15 10 -15 2 0 4 7 4 15 0 8 -4 15 -10 15 -5 0
-7 -7 -4 -15z"/>
<path d="M8951 29394 c-49 -26 -84 -85 -85 -144 -1 -64 42 -129 100 -149 169
-59 293 138 165 263 -32 31 -47 38 -92 42 -39 3 -63 0 -88 -12z m129 -59 c32
-17 55 -72 46 -110 -9 -35 -53 -72 -94 -79 -83 -13 -139 74 -101 158 21 44 93
60 149 31z"/>
<path d="M9464 29370 c-11 -4 -33 -23 -48 -41 -25 -29 -28 -39 -23 -83 4 -41
11 -55 41 -83 l36 -33 507 1 c280 1 518 4 530 7 40 13 68 61 67 120 0 46 -4
57 -32 85 l-32 32 -513 2 c-281 1 -521 -2 -533 -7z m998 -50 c41 -12 58 -34
58 -77 0 -58 3 -58 -538 -61 l-492 -3 -25 25 c-32 32 -32 70 0 101 l24 25 468
0 c293 0 482 -4 505 -10z"/>
<path d="M7713 28670 c-12 -5 -26 -18 -32 -29 -15 -28 -15 -8618 0 -8658 5
-15 16 -31 22 -35 7 -4 1035 -8 2285 -8 2260 0 2272 0 2292 20 20 20 20 29 18
4351 l-3 4331 -24 19 c-23 19 -72 19 -2280 18 -1274 0 -2266 -4 -2278 -9z
m4442 -4365 l0 -4220 -2175 0 -2175 0 -3 4210 c-1 2316 0 4216 3 4223 3 10
444 12 2177 10 l2173 -3 0 -4220z"/>
<path d="M9925 19803 c-118 -26 -207 -74 -268 -144 -82 -95 -108 -162 -109
-284 -1 -103 13 -157 58 -235 58 -100 143 -164 261 -199 84 -25 135 -26 222
-5 79 19 116 40 197 110 47 41 68 69 95 126 31 67 34 82 37 185 l4 111 -39 84
c-43 90 -113 165 -196 207 -75 37 -198 58 -262 44z m187 -113 c69 -27 154
-107 189 -177 20 -41 24 -63 24 -148 0 -86 -3 -106 -24 -145 -53 -100 -114
-152 -220 -189 -89 -31 -158 -26 -251 17 -69 32 -130 95 -167 172 -24 48 -27
67 -26 150 0 82 4 102 26 145 88 171 274 243 449 175z"/>
<path d="M12440 19280 c0 -5 5 -10 10 -10 6 0 10 5 10 10 0 6 -4 10 -10 10 -5
0 -10 -4 -10 -10z"/>
<path d="M10090 15993 l0 -183 345 0 345 0 0 -350 0 -350 -145 0 c-142 0 -147
-1 -170 -25 -33 -32 -33 -78 0 -121 14 -18 58 -70 97 -116 40 -46 89 -103 108
-127 63 -80 214 -256 230 -268 8 -7 30 -13 47 -13 34 0 40 5 120 102 99 120
215 259 291 347 88 103 99 124 85 168 -15 45 -44 53 -195 53 l-137 0 -3 473
c-4 514 -4 515 -61 558 l-32 24 -463 5 -462 5 0 -182z"/>
<path d="M9394 16160 c-11 -4 -33 -24 -48 -45 -16 -20 -81 -99 -145 -174 -282
-335 -281 -333 -281 -367 0 -12 9 -32 19 -45 18 -23 26 -24 173 -29 l153 -5 5
-485 c5 -448 6 -487 23 -512 41 -59 24 -58 524 -58 l458 -1 3 181 2 180 -345
0 -345 0 0 350 0 350 146 0 146 0 29 29 c16 16 29 36 29 43 0 22 -51 96 -131
188 -41 47 -92 108 -114 134 -120 146 -219 257 -235 266 -22 12 -37 12 -66 0z"/>
<path d="M18283 13333 c9 -2 23 -2 30 0 6 3 -1 5 -18 5 -16 0 -22 -2 -12 -5z"/>
<path d="M18143 13313 c9 -2 23 -2 30 0 6 3 -1 5 -18 5 -16 0 -22 -2 -12 -5z"/>
<path d="M17998 13283 c6 -2 18 -2 25 0 6 3 1 5 -13 5 -14 0 -19 -2 -12 -5z"/>
<path d="M17623 13223 c9 -2 23 -2 30 0 6 3 -1 5 -18 5 -16 0 -22 -2 -12 -5z"/>
<path d="M17483 13203 c9 -2 25 -2 35 0 9 3 1 5 -18 5 -19 0 -27 -2 -17 -5z"/>
<path d="M17123 13143 c9 -2 23 -2 30 0 6 3 -1 5 -18 5 -16 0 -22 -2 -12 -5z"/>
<path d="M16965 13120 c-3 -5 -2 -10 4 -10 5 0 13 5 16 10 3 6 2 10 -4 10 -5
0 -13 -4 -16 -10z"/>
<path d="M16833 13093 c9 -2 23 -2 30 0 6 3 -1 5 -18 5 -16 0 -22 -2 -12 -5z"/>
<path d="M16693 13073 c9 -2 23 -2 30 0 6 3 -1 5 -18 5 -16 0 -22 -2 -12 -5z"/>
<path d="M16468 13033 c6 -2 18 -2 25 0 6 3 1 5 -13 5 -14 0 -19 -2 -12 -5z"/>
<path d="M16323 13013 c9 -2 23 -2 30 0 6 3 -1 5 -18 5 -16 0 -22 -2 -12 -5z"/>
<path d="M16183 12983 c9 -2 23 -2 30 0 6 3 -1 5 -18 5 -16 0 -22 -2 -12 -5z"/>
<path d="M16043 12963 c9 -2 23 -2 30 0 6 3 -1 5 -18 5 -16 0 -22 -2 -12 -5z"/>
<path d="M15673 12903 c9 -2 23 -2 30 0 6 3 -1 5 -18 5 -16 0 -22 -2 -12 -5z"/>
<path d="M15520 12880 c0 -5 4 -10 9 -10 6 0 13 5 16 10 3 6 -1 10 -9 10 -9 0
-16 -4 -16 -10z"/>
<path d="M15393 12853 c9 -2 23 -2 30 0 6 3 -1 5 -18 5 -16 0 -22 -2 -12 -5z"/>
<path d="M15023 12793 c9 -2 23 -2 30 0 6 3 -1 5 -18 5 -16 0 -22 -2 -12 -5z"/>
<path d="M14873 12773 c9 -2 25 -2 35 0 9 3 1 5 -18 5 -19 0 -27 -2 -17 -5z"/>
<path d="M14733 12743 c9 -2 23 -2 30 0 6 3 -1 5 -18 5 -16 0 -22 -2 -12 -5z"/>
<path d="M14588 12723 c7 -3 16 -2 19 1 4 3 -2 6 -13 5 -11 0 -14 -3 -6 -6z"/>
<path d="M14363 12683 c9 -2 23 -2 30 0 6 3 -1 5 -18 5 -16 0 -22 -2 -12 -5z"/>
<path d="M14223 12663 c9 -2 23 -2 30 0 6 3 -1 5 -18 5 -16 0 -22 -2 -12 -5z"/>
<path d="M14075 12640 c-3 -5 -2 -10 4 -10 5 0 13 5 16 10 3 6 2 10 -4 10 -5
0 -13 -4 -16 -10z"/>
<path d="M13938 12613 c7 -3 16 -2 19 1 4 3 -2 6 -13 5 -11 0 -14 -3 -6 -6z"/>
<path d="M13573 12553 c9 -2 23 -2 30 0 6 3 -1 5 -18 5 -16 0 -22 -2 -12 -5z"/>
<path d="M13433 12533 c9 -2 23 -2 30 0 6 3 -1 5 -18 5 -16 0 -22 -2 -12 -5z"/>
<path d="M13288 12503 c6 -2 18 -2 25 0 6 3 1 5 -13 5 -14 0 -19 -2 -12 -5z"/>
<path d="M12913 12443 c9 -2 25 -2 35 0 9 3 1 5 -18 5 -19 0 -27 -2 -17 -5z"/>
<path d="M12783 12423 c9 -2 23 -2 30 0 6 3 -1 5 -18 5 -16 0 -22 -2 -12 -5z"/>
<path d="M18871 12394 c0 -11 3 -14 6 -6 3 7 2 16 -1 19 -3 4 -6 -2 -5 -13z"/>
<path d="M12413 12363 c9 -2 23 -2 30 0 6 3 -1 5 -18 5 -16 0 -22 -2 -12 -5z"/>
<path d="M12255 12340 c-3 -5 3 -10 15 -10 12 0 18 5 15 10 -3 6 -10 10 -15
10 -5 0 -12 -4 -15 -10z"/>
<path d="M12123 12313 c9 -2 23 -2 30 0 6 3 -1 5 -18 5 -16 0 -22 -2 -12 -5z"/>
<path d="M11763 12253 c9 -2 23 -2 30 0 6 3 -1 5 -18 5 -16 0 -22 -2 -12 -5z"/>
<path d="M11606 12231 c-3 -4 6 -6 19 -3 14 2 25 6 25 8 0 8 -39 4 -44 -5z"/>
<path d="M11473 12203 c9 -2 23 -2 30 0 6 3 -1 5 -18 5 -16 0 -22 -2 -12 -5z"/>
<path d="M11328 12183 c6 -2 18 -2 25 0 6 3 1 5 -13 5 -14 0 -19 -2 -12 -5z"/>
<path d="M11098 12143 c6 -2 18 -2 25 0 6 3 1 5 -13 5 -14 0 -19 -2 -12 -5z"/>
<path d="M10963 12123 c9 -2 23 -2 30 0 6 3 -1 5 -18 5 -16 0 -22 -2 -12 -5z"/>
<path d="M10815 12100 c-3 -5 3 -10 15 -10 12 0 18 5 15 10 -3 6 -10 10 -15
10 -5 0 -12 -4 -15 -10z"/>
<path d="M10683 12073 c9 -2 23 -2 30 0 6 3 -1 5 -18 5 -16 0 -22 -2 -12 -5z"/>
<path d="M18981 12064 c0 -11 3 -14 6 -6 3 7 2 16 -1 19 -3 4 -6 -2 -5 -13z"/>
<path d="M10313 12013 c9 -2 23 -2 30 0 6 3 -1 5 -18 5 -16 0 -22 -2 -12 -5z"/>
<path d="M10173 11993 c9 -2 23 -2 30 0 6 3 -1 5 -18 5 -16 0 -22 -2 -12 -5z"/>
<path d="M10028 11963 c6 -2 18 -2 25 0 6 3 1 5 -13 5 -14 0 -19 -2 -12 -5z"/>
<path d="M9653 11903 c9 -2 23 -2 30 0 6 3 -1 5 -18 5 -16 0 -22 -2 -12 -5z"/>
<path d="M9513 11883 c9 -2 25 -2 35 0 9 3 1 5 -18 5 -19 0 -27 -2 -17 -5z"/>
<path d="M9364 11858 c-3 -4 4 -8 15 -8 11 0 22 4 25 8 2 4 -4 8 -15 8 -11 0
-23 -4 -25 -8z"/>
<path d="M9228 11833 c7 -3 16 -2 19 1 4 3 -2 6 -13 5 -11 0 -14 -3 -6 -6z"/>
<path d="M8863 11773 c9 -2 23 -2 30 0 6 3 -1 5 -18 5 -16 0 -22 -2 -12 -5z"/>
<path d="M8728 11753 c6 -2 18 -2 25 0 6 3 1 5 -13 5 -14 0 -19 -2 -12 -5z"/>
<path d="M8578 11723 c6 -2 18 -2 25 0 6 3 1 5 -13 5 -14 0 -19 -2 -12 -5z"/>
<path d="M8346 11691 c-3 -4 6 -6 19 -3 14 2 25 6 25 8 0 8 -39 4 -44 -5z"/>
<path d="M8213 11663 c9 -2 23 -2 30 0 6 3 -1 5 -18 5 -16 0 -22 -2 -12 -5z"/>
<path d="M8073 11643 c9 -2 23 -2 30 0 6 3 -1 5 -18 5 -16 0 -22 -2 -12 -5z"/>
<path d="M7703 11583 c9 -2 23 -2 30 0 6 3 -1 5 -18 5 -16 0 -22 -2 -12 -5z"/>
<path d="M7549 11559 c-10 -6 -7 -9 14 -9 29 0 35 5 14 13 -8 3 -20 1 -28 -4z"/>
<path d="M7413 11533 c9 -2 25 -2 35 0 9 3 1 5 -18 5 -19 0 -27 -2 -17 -5z"/>
<path d="M7053 11473 c9 -2 23 -2 30 0 6 3 -1 5 -18 5 -16 0 -22 -2 -12 -5z"/>
<path d="M6896 11452 c-3 -5 8 -6 25 -4 16 2 29 6 29 8 0 8 -49 4 -54 -4z"/>
<path d="M6763 11423 c9 -2 23 -2 30 0 6 3 -1 5 -18 5 -16 0 -22 -2 -12 -5z"/>
<path d="M6623 11403 c9 -2 23 -2 30 0 6 3 -1 5 -18 5 -16 0 -22 -2 -12 -5z"/>
<path d="M6388 11363 c6 -2 18 -2 25 0 6 3 1 5 -13 5 -14 0 -19 -2 -12 -5z"/>
<path d="M6253 11343 c9 -2 25 -2 35 0 9 3 1 5 -18 5 -19 0 -27 -2 -17 -5z"/>
<path d="M6105 11320 c-3 -5 3 -10 15 -10 12 0 18 5 15 10 -3 6 -10 10 -15 10
-5 0 -12 -4 -15 -10z"/>
<path d="M5973 11293 c9 -2 23 -2 30 0 6 3 -1 5 -18 5 -16 0 -22 -2 -12 -5z"/>
<path d="M5603 11233 c9 -2 23 -2 30 0 6 3 -1 5 -18 5 -16 0 -22 -2 -12 -5z"/>
<path d="M5450 11211 c0 -5 9 -7 20 -4 11 3 20 7 20 9 0 2 -9 4 -20 4 -11 0
-20 -4 -20 -9z"/>
<path d="M5318 11183 c6 -2 18 -2 25 0 6 3 1 5 -13 5 -14 0 -19 -2 -12 -5z"/>
<path d="M19281 11154 c0 -11 3 -14 6 -6 3 7 2 16 -1 19 -3 4 -6 -2 -5 -13z"/>
<path d="M4953 11123 c9 -2 23 -2 30 0 6 3 -1 5 -18 5 -16 0 -22 -2 -12 -5z"/>
<path d="M4813 11103 c9 -2 23 -2 30 0 6 3 -1 5 -18 5 -16 0 -22 -2 -12 -5z"/>
<path d="M4668 11073 c7 -3 16 -2 19 1 4 3 -2 6 -13 5 -11 0 -14 -3 -6 -6z"/>
<path d="M4290 11020 c-12 -8 -10 -10 8 -10 13 0 20 4 17 10 -7 12 -6 12 -25
0z"/>
<path d="M4153 10993 c9 -2 25 -2 35 0 9 3 1 5 -18 5 -19 0 -27 -2 -17 -5z"/>
<path d="M3873 10943 c9 -2 23 -2 30 0 6 3 -1 5 -18 5 -16 0 -22 -2 -12 -5z"/>
<path d="M6745 10920 c-50 -8 -137 -23 -230 -39 -27 -5 -99 -17 -160 -26 -60
-9 -126 -20 -145 -25 -19 -5 -96 -19 -170 -30 -74 -12 -157 -25 -185 -30 -27
-5 -84 -14 -125 -20 -97 -15 -154 -24 -265 -44 -49 -9 -137 -23 -195 -31 -58
-8 -121 -19 -140 -24 -19 -5 -73 -15 -120 -21 -47 -7 -123 -19 -170 -27 -123
-21 -370 -63 -405 -68 -223 -33 -264 -51 -282 -123 -6 -24 11 -110 28 -142 4
-8 67 -197 139 -420 73 -223 169 -517 215 -655 45 -137 135 -411 200 -607 64
-197 120 -358 125 -358 4 0 10 -8 12 -18 3 -11 27 -29 53 -42 39 -19 57 -22
108 -17 91 9 486 71 677 108 30 5 82 14 115 19 33 5 116 19 185 30 69 11 152
25 185 30 33 5 128 21 210 35 83 14 179 31 215 36 36 6 90 15 120 20 85 15
153 26 300 48 74 11 151 25 170 30 30 9 173 31 320 50 45 6 45 6 51 51 8 54 4
61 -17 32 -22 -31 -69 -53 -134 -62 -74 -11 -114 -17 -185 -30 -33 -6 -130
-22 -215 -36 -85 -14 -220 -37 -300 -50 -80 -14 -172 -29 -205 -34 -195 -30
-602 -97 -695 -114 -41 -8 -111 -20 -155 -26 -44 -6 -127 -20 -185 -31 -432
-77 -463 -80 -519 -45 -22 14 -47 38 -55 53 -14 29 -67 186 -296 883 -73 223
-184 560 -246 749 -63 189 -116 357 -119 375 -14 74 31 115 148 135 39 7 92
16 117 22 25 5 101 18 170 29 69 12 134 22 145 24 11 2 70 12 130 21 61 9 133
21 160 25 28 5 109 18 180 29 72 12 177 30 235 40 58 11 139 25 180 31 41 6
127 20 190 31 63 11 169 29 235 39 176 29 176 29 230 39 28 6 93 16 145 22 52
7 100 16 105 20 6 4 51 10 101 14 84 7 95 5 131 -15 53 -29 63 -49 124 -236
28 -87 57 -177 64 -199 11 -35 17 -40 39 -37 22 3 26 0 26 -24 0 -14 15 -72
34 -128 18 -55 98 -297 176 -536 79 -239 185 -563 236 -719 52 -156 94 -285
94 -288 0 -2 -15 -10 -32 -18 -18 -8 -27 -14 -20 -15 41 -1 102 65 102 110 0
12 -30 104 -240 740 -70 212 -148 450 -174 530 -25 80 -51 154 -55 165 -5 11
-39 115 -76 230 -169 526 -168 524 -239 556 -43 19 -88 22 -171 9z"/>
<path d="M3635 10910 c-3 -6 1 -7 9 -4 18 7 21 14 7 14 -6 0 -13 -4 -16 -10z"/>
<path d="M3503 10883 c9 -2 23 -2 30 0 6 3 -1 5 -18 5 -16 0 -22 -2 -12 -5z"/>
<path d="M3363 10863 c9 -2 23 -2 30 0 6 3 -1 5 -18 5 -16 0 -22 -2 -12 -5z"/>
<path d="M13510 10841 c-17 -32 -13 -54 8 -45 9 4 35 8 57 8 34 1 39 -2 37
-18 -2 -11 1 -15 7 -11 16 9 13 51 -5 69 -23 23 -91 21 -104 -3z"/>
<path d="M3148 10823 c7 -3 16 -2 19 1 4 3 -2 6 -13 5 -11 0 -14 -3 -6 -6z"/>
<path d="M2993 10803 c9 -2 23 -2 30 0 6 3 -1 5 -18 5 -16 0 -22 -2 -12 -5z"/>
<path d="M2845 10780 c-4 -6 3 -10 14 -10 25 0 27 6 6 13 -8 4 -17 2 -20 -3z"/>
<path d="M2732 10744 c-5 -10 -18 -46 -27 -79 -10 -33 -25 -80 -35 -105 -40
-99 -92 -280 -106 -365 -90 -555 -97 -605 -83 -621 14 -17 33 -18 57 -4 9 6
76 19 147 29 72 11 144 22 160 25 27 5 80 14 186 31 24 4 40 1 48 -8 11 -14
80 -220 350 -1047 78 -239 146 -444 151 -455 16 -39 230 -700 230 -712 0 -44
-25 17 -99 245 -47 141 -151 457 -231 702 -311 941 -410 1246 -410 1260 0 38
-20 -12 -29 -75 -6 -38 -13 -81 -16 -95 -15 -82 -46 -278 -46 -293 0 -10 10
-52 22 -93 l22 -75 62 6 c62 7 62 7 91 -28 49 -60 111 -192 139 -297 10 -36
22 -73 27 -82 10 -21 66 -279 78 -363 19 -129 40 -402 38 -493 -2 -54 1 -110
5 -127 5 -19 5 -25 -1 -17 -7 10 -31 9 -128 -8 -65 -12 -121 -26 -125 -31 -11
-18 -19 61 -20 201 -1 86 -4 119 -8 90 l-7 -45 -4 48 c-3 26 -2 47 2 47 12 0
9 98 -3 106 -6 3 -9 18 -6 32 3 14 2 33 -1 41 -5 11 -9 4 -13 -19 l-6 -35 -2
43 c-1 30 2 41 10 36 8 -5 10 1 6 18 -7 26 -26 151 -28 178 0 10 -3 9 -9 -5
-6 -15 -8 -6 -8 30 1 43 -1 59 -12 95 -1 3 -6 -4 -11 -15 -7 -15 -8 -11 -5 19
3 21 2 52 -1 69 -6 27 -7 29 -15 12 -5 -12 -6 -3 -2 24 4 29 3 41 -4 37 -7 -4
-9 3 -6 20 4 21 2 25 -11 21 -8 -4 -15 -2 -15 3 0 6 5 10 10 10 6 0 10 7 10
15 0 8 -4 15 -9 15 -5 0 -11 19 -15 42 -5 33 -9 39 -17 28 -8 -12 -9 -10 -4 8
7 23 -2 62 -13 61 -19 -3 -26 2 -14 10 10 6 11 13 4 27 -21 38 -62 135 -62
144 0 6 12 10 28 10 21 0 24 2 12 10 -8 5 -28 7 -45 4 -25 -4 -36 1 -69 36
-21 22 -49 43 -60 46 -20 5 -109 -6 -166 -21 -25 -6 -27 -2 -54 77 -15 46 -37
98 -48 116 -21 35 -45 40 -123 23 -22 -5 -82 -14 -132 -21 l-93 -13 -59 -91
c-32 -50 -63 -107 -69 -126 -6 -19 -23 -111 -37 -205 -15 -93 -35 -219 -45
-280 -38 -218 -38 -222 -22 -278 8 -28 16 -86 18 -127 2 -62 17 -118 84 -320
44 -135 132 -405 196 -600 64 -195 124 -377 134 -405 10 -27 78 -232 151 -455
73 -223 183 -560 246 -749 62 -189 117 -360 123 -380 10 -36 149 -190 204
-226 28 -19 36 -18 249 22 100 19 105 24 114 106 3 29 10 57 15 63 5 7 8 16 6
20 -1 5 2 35 6 67 8 59 17 67 49 42 11 -7 29 -12 40 -9 12 2 36 6 52 9 93 15
97 18 133 83 29 54 38 63 59 60 26 -3 36 -23 70 -138 9 -30 19 -57 22 -60 3
-3 6 -9 6 -15 1 -19 58 -190 68 -203 5 -7 7 -15 4 -19 -4 -3 -3 -11 1 -17 5
-6 30 -78 56 -161 26 -82 52 -159 56 -170 5 -11 17 -46 26 -78 l18 -58 70 7
c39 3 76 11 81 16 7 7 0 8 -20 5 -16 -3 -48 -9 -71 -12 l-41 -6 10 54 10 55
91 12 c50 7 117 18 148 25 51 11 57 10 60 -4 3 -12 6 -10 10 7 6 20 3 22 -30
22 -21 0 -68 -6 -107 -14 -38 -8 -95 -17 -126 -21 -65 -7 -53 -25 -114 163
-21 63 -33 118 -29 122 5 5 78 19 162 32 l152 23 0 33 c0 20 -4 31 -10 27 -6
-3 -10 -15 -10 -25 0 -15 -10 -20 -47 -25 -27 -3 -75 -10 -108 -15 -141 -22
-148 -22 -141 -11 4 6 14 57 22 113 28 201 35 229 58 238 18 8 232 40 262 40
7 0 5 -41 -8 -127 -10 -71 -17 -139 -15 -153 1 -14 7 7 11 45 5 39 17 111 27
160 24 116 24 116 -4 106 -12 -5 -74 -16 -137 -25 -63 -9 -127 -19 -141 -22
-24 -5 -27 -1 -52 76 -15 45 -27 85 -27 90 0 12 63 18 81 7 11 -7 40 -6 90 3
41 7 92 13 113 14 35 1 41 -2 47 -24 6 -21 7 -22 8 -4 1 18 11 22 94 33 50 6
108 16 127 22 19 5 85 16 145 25 150 21 215 32 245 39 14 3 43 8 65 10 22 3
65 10 95 15 30 6 78 15 105 20 28 6 66 12 85 14 19 3 78 12 130 20 199 32 240
39 257 41 10 1 25 4 33 7 8 3 67 13 130 23 63 9 133 20 155 25 34 8 140 25
290 46 22 3 56 9 75 14 19 5 85 16 145 25 61 9 130 20 155 25 25 6 61 12 80
14 33 4 144 22 285 46 33 6 74 13 90 15 58 9 321 53 405 68 47 8 123 20 170
27 47 6 101 15 120 20 19 5 98 19 175 30 161 25 163 25 230 39 28 5 88 15 135
21 47 7 94 15 105 19 39 14 52 2 70 -62 9 -34 20 -66 25 -72 4 -5 15 -39 24
-75 10 -36 24 -78 31 -95 8 -16 23 -64 35 -105 11 -41 25 -84 29 -95 5 -11 16
-42 26 -70 9 -27 19 -57 22 -65 3 -8 8 -24 10 -35 1 -11 7 -29 12 -40 6 -11
21 -58 35 -105 24 -79 46 -129 46 -105 0 6 21 10 47 10 30 0 48 5 51 13 3 11
0 12 -16 3 -11 -6 -33 -11 -47 -11 -26 0 -26 1 -19 48 4 26 12 50 18 54 6 4
36 10 66 14 30 3 87 12 125 20 93 19 96 18 91 -8 -16 -77 -17 -103 -5 -91 11
11 34 132 26 139 -2 2 -63 -8 -137 -21 -198 -37 -180 -43 -219 78 -18 56 -39
120 -47 141 -18 47 -13 52 61 61 50 6 196 30 225 37 14 3 24 35 37 122 3 25 2
36 -5 32 -6 -3 -14 -36 -17 -72 -4 -35 -10 -63 -12 -60 -3 2 -17 0 -31 -5 -26
-8 -221 -39 -249 -39 -15 0 -13 21 18 188 10 57 19 116 19 133 0 16 6 32 13
34 6 3 66 13 132 23 66 11 127 21 135 23 10 3 16 -7 21 -31 3 -19 7 -28 8 -19
0 9 4 30 7 46 l6 30 -54 -8 c-29 -4 -84 -12 -123 -18 -38 -6 -88 -14 -111 -17
l-40 -6 -24 78 c-30 99 -30 96 3 107 21 7 32 5 45 -6 14 -12 26 -13 62 -6 112
23 175 28 185 15 7 -9 18 -11 32 -5 12 4 52 12 90 18 37 6 95 16 128 22 33 6
114 19 180 30 313 49 383 61 415 69 19 6 55 12 80 14 25 2 52 6 60 9 8 3 56
10 105 17 50 6 110 16 135 21 25 5 61 11 80 14 93 14 360 58 569 95 30 6 69
10 87 10 18 0 36 5 39 10 3 6 18 10 33 10 15 0 108 14 207 31 99 17 209 35
245 40 68 11 155 25 205 34 17 2 46 7 65 10 75 10 328 53 346 58 10 3 69 13
129 22 61 9 134 21 163 26 28 5 76 13 105 18 55 10 258 41 292 45 11 2 29 6
40 9 30 10 271 48 340 53 l60 6 49 -154 c28 -84 53 -160 57 -168 4 -8 29 -82
55 -165 26 -82 51 -157 55 -165 4 -8 17 -49 29 -90 12 -41 28 -88 35 -105 7
-16 15 -39 17 -49 4 -22 24 -33 26 -14 2 24 19 99 23 101 9 6 237 47 262 47
24 0 27 -3 22 -25 -3 -14 -7 -36 -10 -50 -4 -20 -13 -26 -45 -31 -22 -4 -40
-10 -40 -14 0 -7 89 6 97 14 6 6 23 130 18 134 -2 2 -59 -6 -127 -18 -215 -37
-192 -39 -207 11 -6 24 -16 53 -21 64 -5 11 -19 53 -30 94 -12 40 -24 80 -27
87 -3 9 3 14 18 14 19 0 128 18 275 46 17 3 23 13 28 46 17 112 18 130 8 124
-6 -4 -14 -38 -18 -76 l-7 -70 -36 -5 c-20 -4 -65 -12 -101 -20 -36 -8 -87
-17 -113 -20 l-48 -6 6 53 c4 29 11 67 15 83 5 17 14 73 21 125 7 52 13 96 14
97 1 2 37 7 81 13 43 6 88 15 99 20 11 4 41 11 68 14 46 5 47 5 47 -21 0 -33
5 -27 13 15 6 31 5 32 -28 32 -18 0 -37 -4 -40 -10 -3 -5 -21 -10 -40 -10 -19
0 -56 -4 -82 -9 -26 -5 -66 -12 -89 -15 l-41 -6 -22 74 c-11 41 -24 81 -27 89
-7 18 53 32 71 17 9 -8 44 -6 116 5 130 19 139 19 139 -2 0 -12 3 -14 8 -7 4
6 25 14 47 16 22 3 78 12 125 21 47 8 123 20 170 27 47 6 101 16 120 21 19 5
91 18 160 28 69 11 163 26 210 34 47 8 121 20 165 27 44 6 103 16 130 21 28 5
66 11 85 14 19 3 73 12 120 20 47 8 112 19 145 24 33 6 98 16 145 24 47 8 123
20 170 27 47 6 101 16 120 21 19 5 94 18 165 29 72 11 164 27 205 34 41 7 116
19 165 26 50 6 101 16 115 20 14 5 48 11 75 14 28 3 59 7 70 10 11 2 56 10
100 16 70 10 229 37 416 70 30 6 67 10 82 10 14 0 36 4 49 9 13 5 61 14 108
21 47 6 108 16 135 21 28 5 66 11 85 13 19 3 53 9 75 14 22 5 81 15 130 21 50
7 106 16 125 21 19 5 57 12 84 15 27 4 54 9 61 11 16 6 38 -37 60 -114 9 -31
20 -66 25 -77 5 -11 23 -67 41 -125 17 -58 35 -114 39 -125 5 -11 16 -45 25
-75 9 -30 23 -68 30 -85 7 -16 20 -57 29 -90 9 -33 21 -69 26 -80 5 -11 17
-47 26 -80 16 -59 30 -85 44 -85 3 0 7 8 7 18 -1 92 1 98 41 110 29 10 229 42
256 42 3 0 7 -15 7 -32 l2 -33 4 30 c3 17 10 36 15 43 6 7 9 15 6 17 -5 6 -98
-8 -241 -35 -62 -12 -90 -13 -92 -6 -2 6 -23 73 -48 149 -25 75 -43 137 -41
137 2 0 46 9 97 19 50 11 118 22 149 26 50 5 79 18 67 29 -2 2 -53 -5 -114
-16 -60 -10 -128 -22 -149 -25 l-39 -5 6 53 c4 30 12 88 18 129 6 41 13 97 17
125 l7 50 62 10 c34 5 65 13 69 18 4 4 23 7 43 7 20 0 54 5 76 10 22 5 41 7
43 5 2 -2 -6 -70 -17 -152 -22 -152 -26 -229 -11 -168 4 17 8 51 9 76 0 25 4
49 8 52 3 4 7 17 8 30 2 12 8 57 15 99 8 43 12 80 9 82 -2 3 -31 0 -64 -5 -33
-5 -85 -14 -115 -18 -30 -5 -74 -13 -97 -19 l-41 -9 -25 76 c-14 42 -28 83
-32 92 -5 13 1 18 27 21 18 3 40 0 50 -5 15 -10 50 -7 215 20 23 3 32 1 35
-10 3 -14 8 -14 43 -1 67 23 93 18 137 -26 23 -22 52 -43 66 -47 22 -5 107 6
169 23 19 5 23 0 33 -38 7 -23 15 -47 18 -53 4 -5 7 -14 8 -20 4 -26 49 -107
62 -112 17 -7 240 23 294 39 38 11 39 12 145 180 12 21 23 47 23 59 0 22 5 53
41 269 10 63 26 160 35 215 8 55 18 114 21 130 14 79 14 96 5 108 -15 18 -34
142 -26 171 4 17 -22 110 -79 283 -69 211 -84 268 -82 313 1 30 -2 66 -6 80
-5 17 -8 2 -9 -50 -1 -41 -5 -104 -9 -139 l-6 -64 -60 -12 c-33 -6 -98 -17
-145 -24 -47 -7 -123 -19 -170 -28 -47 -8 -152 -26 -235 -40 -82 -13 -172 -28
-200 -33 -27 -5 -84 -14 -125 -20 -41 -6 -97 -15 -125 -20 -27 -4 -122 -20
-210 -34 -88 -14 -194 -32 -235 -40 -41 -8 -109 -20 -150 -26 -41 -6 -127 -20
-190 -31 -148 -26 -322 -54 -480 -79 -118 -19 -178 -29 -295 -49 -27 -5 -99
-17 -160 -26 -60 -9 -126 -20 -145 -25 -19 -5 -84 -16 -145 -25 -60 -8 -159
-24 -220 -35 -60 -11 -168 -29 -240 -40 -71 -12 -209 -35 -305 -51 -182 -31
-214 -36 -395 -63 -60 -9 -116 -19 -123 -21 -7 -3 -86 -16 -175 -30 -89 -14
-196 -32 -237 -40 -41 -8 -111 -19 -155 -26 -44 -6 -118 -18 -164 -26 -115
-20 -351 -60 -496 -82 -66 -11 -147 -24 -180 -30 -33 -6 -118 -20 -190 -31
-71 -11 -164 -27 -205 -35 -41 -9 -137 -25 -213 -35 -76 -11 -157 -24 -180
-29 -23 -6 -107 -19 -187 -31 -80 -11 -156 -25 -170 -29 -14 -5 -65 -15 -115
-21 -49 -7 -128 -19 -175 -27 -116 -21 -171 -30 -265 -43 -44 -6 -110 -18
-147 -25 -37 -8 -115 -21 -175 -30 -59 -8 -155 -24 -213 -34 -58 -11 -141 -25
-185 -31 -44 -6 -114 -18 -155 -26 -82 -15 -317 -54 -505 -84 -66 -10 -147
-23 -180 -29 -33 -6 -131 -22 -217 -36 -87 -14 -178 -29 -203 -35 -24 -5 -106
-19 -182 -30 -76 -10 -172 -26 -213 -34 -41 -8 -127 -22 -190 -31 -63 -9 -126
-20 -140 -25 -14 -4 -65 -13 -115 -20 -49 -7 -139 -21 -200 -31 -153 -27 -211
-37 -275 -44 -30 -4 -60 -12 -67 -17 -7 -5 -16 -7 -21 -4 -4 2 -26 1 -48 -4
-21 -5 -88 -16 -149 -25 -60 -9 -157 -24 -215 -35 -58 -10 -154 -26 -215 -35
-60 -9 -123 -21 -140 -25 -16 -5 -70 -14 -120 -21 -49 -7 -124 -18 -165 -26
-41 -7 -133 -22 -205 -33 -71 -11 -155 -24 -185 -31 -30 -6 -120 -21 -200 -34
-80 -13 -156 -25 -170 -28 -14 -3 -56 -10 -95 -16 -95 -15 -294 -49 -325 -55
-14 -2 -90 -14 -170 -26 -80 -12 -161 -25 -180 -30 -19 -5 -71 -14 -115 -20
-44 -7 -118 -19 -165 -27 -47 -8 -150 -25 -230 -38 -80 -13 -158 -26 -175 -29
-35 -7 -111 -19 -255 -42 -58 -9 -127 -20 -155 -25 -27 -5 -108 -18 -180 -29
-71 -11 -146 -24 -165 -29 -19 -5 -73 -15 -120 -21 -47 -6 -132 -20 -190 -30
-58 -11 -154 -27 -215 -35 -60 -9 -123 -20 -140 -25 -16 -5 -68 -14 -115 -20
-47 -6 -100 -14 -119 -17 l-33 -6 6 54 c4 45 44 657 46 710 0 17 32 32 62 29
10 0 34 4 55 10 21 5 100 19 177 30 76 11 170 27 210 34 39 8 125 22 191 32
66 9 125 20 130 24 6 4 35 10 65 13 52 6 254 37 365 57 28 4 100 15 160 24 61
9 126 20 145 26 19 5 100 19 179 30 79 11 173 27 210 34 36 8 104 19 151 26
47 6 123 18 170 27 103 18 330 56 500 83 69 11 150 24 180 29 30 5 141 23 245
40 105 17 196 33 203 36 7 3 61 12 120 20 59 8 159 24 222 35 63 12 169 30
235 41 66 11 145 24 175 29 30 5 114 19 185 31 72 11 153 24 180 29 28 5 86
14 130 20 44 6 87 14 95 17 8 3 21 5 27 4 7 -1 30 3 50 8 21 6 102 20 181 31
78 11 163 25 187 30 45 10 113 21 255 40 41 6 84 15 95 20 11 4 45 11 75 15
30 3 107 14 170 25 133 22 273 44 380 61 41 6 91 15 110 20 19 4 100 18 180
29 80 12 161 25 180 30 19 5 99 19 178 30 78 11 162 24 185 30 23 5 105 18
182 30 77 11 156 24 175 30 19 5 73 14 120 21 47 6 121 18 165 26 44 7 141 23
215 34 74 11 142 23 150 26 8 3 21 5 27 4 7 -1 30 3 50 8 21 6 101 19 179 30
77 11 163 25 190 31 46 10 271 48 409 70 33 5 116 19 185 30 69 11 184 29 255
40 72 11 138 24 148 30 10 6 22 8 27 5 5 -3 46 1 92 10 114 22 356 62 518 85
74 11 142 23 150 26 8 4 96 19 195 35 356 55 442 69 545 89 58 10 150 26 205
35 55 8 109 17 120 18 109 20 387 65 560 92 88 14 176 29 195 34 19 5 73 15
120 21 47 6 123 18 170 26 237 41 376 64 390 65 8 1 44 7 80 14 36 7 103 18
150 25 47 6 110 16 140 22 77 15 375 64 565 93 88 13 178 29 200 34 22 6 94
18 160 27 66 9 125 21 132 26 7 5 17 7 22 3 6 -3 28 -1 48 4 21 6 99 20 173
31 74 12 158 25 185 30 28 4 113 18 190 29 155 24 177 29 171 40 -5 8 -59 0
-281 -39 -60 -11 -159 -27 -220 -35 -60 -9 -141 -22 -180 -30 -38 -8 -122 -22
-185 -30 -63 -9 -124 -20 -135 -25 -11 -5 -42 -11 -70 -14 -55 -6 -285 -42
-325 -50 -48 -11 -423 -72 -610 -100 -58 -9 -125 -20 -150 -26 -51 -11 -275
-48 -334 -55 -22 -3 -46 -7 -55 -10 -9 -2 -65 -11 -126 -20 -60 -8 -126 -19
-145 -24 -19 -5 -73 -15 -120 -21 -107 -15 -235 -36 -291 -49 -24 -5 -82 -15
-129 -21 -47 -6 -132 -20 -190 -30 -86 -16 -235 -41 -380 -64 -137 -22 -280
-45 -395 -65 -27 -5 -99 -16 -160 -25 -60 -9 -128 -21 -150 -26 -22 -6 -53
-12 -70 -14 -73 -9 -201 -29 -215 -34 -8 -3 -18 -5 -22 -4 -4 1 -40 -5 -80
-12 -40 -8 -109 -20 -153 -26 -44 -7 -118 -19 -165 -27 -47 -8 -141 -23 -210
-34 -69 -10 -141 -23 -160 -28 -19 -5 -71 -14 -115 -20 -155 -22 -220 -32
-255 -41 -19 -5 -87 -16 -150 -25 -63 -9 -160 -25 -215 -35 -55 -10 -134 -23
-175 -30 -41 -6 -127 -20 -190 -31 -63 -11 -169 -29 -235 -40 -66 -10 -129
-21 -140 -23 -11 -2 -69 -12 -130 -21 -104 -16 -145 -23 -267 -44 -29 -5 -89
-15 -133 -21 -44 -6 -87 -14 -95 -17 -8 -3 -19 -5 -24 -4 -5 1 -41 -5 -80 -13
-39 -8 -111 -20 -161 -27 -49 -6 -97 -14 -105 -17 -8 -3 -27 -6 -42 -7 -15 -2
-55 -8 -90 -14 -86 -16 -287 -50 -318 -55 -105 -14 -311 -48 -340 -55 -19 -5
-71 -14 -115 -20 -160 -23 -221 -32 -255 -41 -19 -5 -57 -12 -83 -15 -27 -4
-85 -13 -130 -21 -45 -8 -89 -15 -97 -15 -8 -1 -44 -7 -80 -14 -36 -7 -103
-18 -150 -25 -47 -6 -132 -20 -190 -30 -127 -23 -311 -54 -480 -81 -69 -10
-151 -24 -182 -29 -230 -40 -351 -60 -368 -61 -8 -1 -31 -5 -50 -10 -30 -7
-96 -18 -340 -55 -19 -2 -55 -9 -80 -14 -25 -5 -81 -14 -125 -20 -44 -6 -111
-18 -150 -25 -77 -16 -155 -28 -285 -45 -47 -7 -93 -16 -102 -21 -10 -5 -31
-9 -47 -9 -17 0 -52 -4 -78 -9 -26 -5 -84 -15 -128 -21 -44 -7 -96 -16 -115
-21 -19 -4 -84 -15 -145 -24 -60 -8 -126 -19 -145 -24 -19 -5 -73 -15 -120
-21 -119 -16 -196 -29 -260 -43 -30 -6 -58 -11 -63 -9 -4 1 -26 -2 -50 -7 -23
-6 -91 -17 -152 -25 -60 -9 -126 -20 -145 -25 -19 -5 -73 -15 -120 -21 -111
-16 -241 -37 -260 -44 -8 -3 -35 -7 -60 -10 -123 -16 -206 -30 -217 -38 -7 -6
-16 -7 -21 -4 -4 2 -27 0 -50 -5 -23 -5 -100 -18 -170 -29 -148 -23 -177 -27
-252 -40 -30 -5 -71 -12 -91 -15 l-37 -6 -122 373 c-67 205 -125 382 -130 393
-5 11 -68 202 -140 425 -136 418 -147 451 -160 485 -4 11 -56 169 -115 350
-59 182 -160 490 -225 685 -64 195 -135 411 -157 479 -34 103 -42 121 -51 105z
m16332 -2316 c6 -58 0 -288 -9 -296 -3 -3 -5 51 -5 119 0 68 -3 148 -6 177 -4
33 -3 52 3 52 6 0 13 -24 17 -52z m-54 -47 c0 -48 -3 -115 -6 -148 l-6 -59
-77 -13 c-45 -8 -81 -20 -89 -30 -12 -14 -13 -13 -8 9 3 14 10 70 16 125 22
184 19 177 70 190 25 7 57 13 73 14 l27 1 0 -89z m-174 27 c-3 -18 -13 -80
-22 -138 -8 -58 -22 -143 -29 -190 -8 -47 -14 -87 -15 -89 0 -2 -2 -2 -5 1 -4
3 -23 2 -43 -3 -51 -11 -245 -40 -248 -36 -2 1 1 20 6 42 5 22 10 57 10 77 0
20 4 39 8 42 5 3 17 66 27 139 l18 134 81 12 c45 7 106 19 136 26 81 20 82 20
76 -17z m-451 -77 c3 -16 5 -74 4 -128 -2 -54 1 -108 5 -120 6 -18 4 -22 -8
-17 -8 3 -23 1 -34 -5 -18 -9 -20 -6 -26 36 -3 25 -7 94 -7 152 l-2 106 -8
-115 c-13 -188 -16 -192 -17 -32 l-2 152 44 0 c41 0 45 -2 51 -29z m-113 -23
c3 -69 -1 -201 -7 -233 -4 -22 -11 -30 -27 -31 -13 -1 -68 -9 -123 -18 -55 -9
-156 -26 -225 -37 -118 -18 -233 -38 -345 -59 -27 -5 -70 -12 -95 -15 -25 -3
-126 -20 -225 -37 -99 -16 -207 -34 -240 -39 -33 -5 -109 -18 -170 -29 -106
-19 -332 -56 -405 -66 -19 -3 -82 -14 -140 -24 -58 -10 -136 -23 -175 -29 -38
-6 -203 -34 -365 -61 -162 -27 -338 -56 -390 -64 -52 -8 -219 -35 -370 -60
-151 -26 -383 -65 -515 -87 -132 -22 -271 -46 -308 -53 l-69 -14 6 77 c3 42
11 111 17 153 l11 77 47 6 c25 4 57 10 71 15 14 4 66 13 115 20 50 6 149 22
220 35 72 13 166 28 210 35 44 6 96 15 115 20 19 5 69 14 110 20 98 14 233 35
345 54 374 64 423 72 515 85 41 6 113 18 160 27 145 26 314 54 347 58 17 2 55
9 85 14 29 6 89 15 133 22 44 6 96 15 115 20 19 5 103 18 185 30 83 12 177 28
210 35 33 7 98 18 145 25 47 7 121 18 165 26 44 8 139 23 210 34 72 11 177 29
235 39 58 11 141 24 185 31 44 6 96 15 115 21 19 5 51 10 70 12 19 2 38 5 43
5 4 1 8 -17 9 -40z m-15145 -70 c-3 -8 -6 -5 -6 6 -1 11 2 17 5 13 3 -3 4 -12
1 -19z m10959 -615 c-3 -16 -14 -84 -25 -153 -42 -262 -41 -258 -64 -264 -34
-8 -228 -36 -252 -36 -21 0 -21 1 -8 88 15 101 55 336 58 340 2 2 60 12 130
22 71 11 131 22 133 25 3 3 12 5 20 5 10 0 13 -7 8 -27z m-456 -175 c0 -73 3
-144 7 -157 4 -16 3 -22 -5 -17 -6 3 -78 -5 -159 -18 -81 -14 -272 -46 -423
-71 -151 -25 -318 -52 -370 -60 -52 -8 -147 -23 -210 -35 -63 -11 -142 -24
-175 -30 -33 -5 -130 -20 -215 -34 -85 -14 -186 -30 -225 -36 -38 -7 -88 -16
-110 -20 -22 -5 -114 -21 -205 -35 -178 -28 -294 -47 -517 -85 -32 -5 -114
-19 -183 -30 -227 -36 -423 -69 -570 -95 -80 -14 -176 -30 -215 -36 -38 -6
-164 -27 -280 -46 -418 -70 -486 -80 -490 -74 -4 7 3 60 28 216 l12 80 100 18
c107 19 125 23 223 37 148 23 200 32 242 41 38 8 177 31 330 54 19 3 58 10 85
15 28 5 86 14 130 20 44 7 125 20 180 30 55 10 150 26 210 34 61 9 126 20 145
26 19 5 71 14 115 20 133 19 208 31 250 40 22 5 92 16 155 25 63 9 123 21 133
26 10 5 21 8 25 5 5 -3 27 0 50 5 23 5 100 18 170 28 70 11 138 22 152 24 14
3 57 10 95 16 39 7 124 21 190 32 167 29 205 35 330 53 61 9 126 20 145 25 19
5 73 15 120 21 47 6 144 22 215 35 72 13 166 28 210 35 76 11 113 18 215 38
97 20 90 30 90 -120z m-10091 -1 c8 -29 17 -56 21 -62 5 -5 13 -30 20 -55 6
-25 18 -58 25 -75 26 -61 48 -149 38 -152 -6 -2 -19 -11 -29 -19 -10 -9 -14
-13 -9 -11 16 8 96 21 135 21 l35 1 3 -89 c3 -108 -24 -461 -38 -484 -8 -15
-9 -15 -10 3 0 17 -2 17 -10 5 -6 -9 -10 -10 -10 -3 0 6 -3 19 -7 29 -4 12 -3
15 5 10 8 -5 12 0 12 13 0 11 -5 23 -10 26 -6 4 -7 11 -4 17 5 7 1 9 -9 5 -11
-4 -17 -1 -17 7 0 8 6 16 13 19 9 3 9 9 1 24 -6 10 -15 33 -19 51 -3 18 -10
32 -15 32 -4 0 -6 9 -3 19 3 10 -1 30 -8 42 -7 13 -14 26 -14 29 -5 27 -18 49
-27 44 -7 -4 -8 -2 -4 4 10 16 -4 63 -17 55 -6 -3 -7 -1 -3 5 4 6 -5 34 -19
62 -21 42 -23 50 -9 50 16 0 14 17 -6 65 -13 31 -50 159 -50 173 0 7 -4 12
-10 12 -5 0 -10 8 -10 18 0 9 -9 44 -20 76 -26 78 -26 84 13 88 48 5 52 2 66
-55z m-331 -59 c5 -7 18 -42 28 -78 10 -36 21 -67 25 -70 5 -3 11 -23 14 -45
6 -36 4 -41 -20 -52 -20 -9 -27 -9 -30 0 -30 87 -75 228 -75 236 0 8 14 15 41
20 4 0 11 -5 17 -11z m6086 -565 c0 -16 -3 -35 -7 -43 -3 -8 -13 -69 -22 -135
-8 -66 -20 -145 -26 -176 l-11 -56 -97 -12 c-53 -7 -118 -19 -145 -27 -27 -8
-51 -13 -52 -11 -2 1 1 20 6 42 5 22 16 98 25 168 9 71 20 140 26 153 5 14 9
38 9 54 l0 28 118 17 c64 9 122 18 127 20 34 11 50 4 49 -22z m-454 -170 c0
-71 3 -137 6 -148 4 -17 0 -20 -29 -22 -18 -2 -222 -34 -453 -72 -230 -39
-450 -75 -489 -82 -38 -6 -117 -19 -175 -30 -58 -10 -190 -32 -295 -49 -104
-17 -284 -47 -400 -66 -183 -31 -289 -48 -510 -83 -83 -13 -486 -80 -553 -92
-34 -6 -99 -17 -145 -24 -45 -7 -179 -29 -297 -49 -118 -20 -246 -41 -285 -46
-38 -6 -90 -15 -115 -20 -67 -14 -271 -48 -385 -65 -152 -23 -169 -27 -178
-39 -9 -12 -1 88 14 173 5 30 9 68 9 85 0 48 11 56 86 67 38 6 93 15 122 20
129 23 164 28 267 44 61 9 126 20 145 25 19 5 51 11 70 14 186 26 265 39 320
50 36 8 103 19 150 26 47 6 123 19 170 27 93 17 343 59 430 73 30 4 89 14 130
20 41 6 98 15 125 20 28 5 109 18 180 29 72 12 177 29 235 40 58 11 141 25
185 31 44 7 127 20 185 31 131 23 318 54 475 79 66 10 149 24 185 30 87 16
144 25 275 45 61 9 126 20 145 25 19 5 100 19 179 30 80 11 147 23 150 25 2 3
19 5 38 5 l33 0 0 -127z m-5173 55 c-3 -8 -6 -5 -6 6 -1 11 2 17 5 13 3 -3 4
-12 1 -19z m60 -240 c-3 -7 -5 -2 -5 12 0 14 2 19 5 13 2 -7 2 -19 0 -25z
m813 -425 c-1 -16 -14 -101 -40 -258 -6 -33 -13 -81 -16 -107 -7 -51 -7 -51
-99 -63 -27 -4 -75 -14 -105 -21 -30 -8 -65 -14 -78 -14 -23 0 -24 2 -18 43 3
23 9 67 13 97 3 30 9 60 13 65 5 6 11 37 15 70 3 33 11 83 16 111 11 58 -2 51
159 78 113 20 140 19 140 -1z m-451 -177 c-2 -67 0 -126 4 -133 12 -19 -2 -38
-28 -39 -55 -4 -201 -27 -217 -35 -14 -8 -16 5 -20 129 -2 75 -6 143 -9 151
-3 11 17 17 81 28 47 7 105 17 130 21 25 5 49 6 53 4 5 -2 7 -59 6 -126z"/>
<path d="M5563 10541 c-122 -45 -176 -114 -202 -257 -13 -70 -7 -111 25 -175
46 -92 158 -160 277 -167 176 -11 299 80 326 239 15 90 14 110 -9 172 -27 73
-76 127 -150 166 -81 43 -187 52 -267 22z"/>
<path d="M7071 10280 c0 -8 4 -24 9 -35 5 -13 9 -14 9 -5 0 8 -4 24 -9 35 -5
13 -9 14 -9 5z"/>
<path d="M7091 10210 c-1 -18 16 -46 23 -40 2 3 -2 16 -9 30 -8 15 -14 19 -14
10z"/>
<path d="M7113 10139 c3 -8 15 -45 27 -84 22 -70 40 -104 40 -74 0 8 -4 19 -8
25 -5 5 -17 37 -27 72 -10 35 -23 66 -28 69 -5 3 -7 0 -4 -8z"/>
<path d="M19600 10061 c-8 -6 -17 -8 -21 -5 -4 2 -40 -2 -81 -10 -40 -8 -109
-19 -153 -26 -44 -6 -96 -15 -115 -20 -19 -5 -55 -11 -80 -14 -108 -13 -272
-41 -320 -54 -31 -9 -32 -10 -9 -11 33 -1 282 35 329 48 19 5 76 15 125 22 50
6 146 22 215 35 69 13 130 24 136 24 7 0 10 -12 7 -27 -3 -28 -3 -28 7 -4 18
42 -3 64 -40 42z"/>
<path d="M7181 9945 c0 -11 4 -27 9 -35 9 -13 10 -13 9 0 0 8 -4 24 -9 35 l-9
20 0 -20z"/>
<path d="M19627 9943 c-4 -12 -8 -44 -7 -70 1 -26 -1 -97 -4 -158 -5 -79 -4
-103 4 -87 5 13 7 28 4 33 -3 5 0 51 6 102 13 102 11 218 -3 180z"/>
<path d="M6655 9884 c-38 -8 -130 -23 -204 -34 -73 -11 -165 -27 -205 -34 -39
-8 -91 -17 -116 -21 -66 -10 -200 -33 -235 -39 -43 -8 -138 -24 -225 -36 -41
-6 -93 -15 -115 -20 -22 -5 -89 -16 -150 -25 -60 -9 -155 -25 -210 -35 -55
-10 -121 -21 -147 -25 -73 -9 -76 -46 -20 -215 21 -63 83 -252 138 -419 54
-167 105 -306 112 -309 8 -3 66 5 130 16 65 12 151 27 192 33 41 6 122 20 180
30 58 10 152 25 210 34 58 9 123 20 145 25 22 5 76 14 120 20 44 7 118 19 165
27 47 8 152 25 234 38 81 13 185 31 230 39 44 8 104 18 133 21 50 7 52 8 58
44 5 30 -8 80 -65 257 -40 120 -80 242 -90 269 -10 28 -38 111 -61 185 -23 74
-48 147 -56 163 -16 31 -35 33 -148 11z m85 -139 c83 -241 229 -699 225 -705
-3 -4 -42 -13 -87 -20 -46 -6 -121 -19 -168 -27 -113 -20 -169 -29 -265 -43
-44 -6 -111 -17 -150 -25 -38 -7 -119 -21 -180 -30 -60 -9 -143 -23 -183 -31
-40 -7 -121 -21 -180 -29 -59 -9 -127 -20 -152 -25 -44 -10 -227 -40 -240 -40
-4 0 -12 19 -19 43 -7 23 -16 51 -21 62 -31 71 -221 678 -214 685 8 7 100 24
274 51 41 6 122 19 180 30 58 10 161 27 230 38 119 19 180 29 400 66 52 9 163
27 245 41 83 13 170 28 195 33 77 16 80 14 110 -74z"/>
<path d="M6550 9670 c0 -5 5 -10 11 -10 5 0 7 5 4 10 -3 6 -8 10 -11 10 -2 0
-4 -4 -4 -10z"/>
<path d="M6595 9670 c3 -5 8 -10 11 -10 2 0 4 5 4 10 0 6 -5 10 -11 10 -5 0
-7 -4 -4 -10z"/>
<path d="M6560 9620 c0 -5 5 -10 11 -10 5 0 7 5 4 10 -3 6 -8 10 -11 10 -2 0
-4 -4 -4 -10z"/>
<path d="M5848 9565 c2 -19 8 -32 13 -29 13 8 11 40 -4 52 -10 9 -12 4 -9 -23z"/>
<path d="M6290 9596 c0 -2 7 -9 15 -16 13 -11 14 -10 9 4 -5 14 -24 23 -24 12z"/>
<path d="M5590 9580 c-1 -3 -3 -16 -6 -30 -3 -21 -2 -22 7 -7 6 10 8 23 5 30
-2 7 -5 10 -6 7z"/>
<path d="M5605 9500 c-7 -11 22 -26 32 -16 4 3 1 6 -6 6 -7 0 -9 5 -6 10 3 6
2 10 -4 10 -5 0 -13 -5 -16 -10z"/>
<path d="M5701 9479 c-1 -16 6 -29 15 -33 30 -11 39 -5 18 12 -11 10 -23 24
-27 32 -3 9 -6 4 -6 -11z"/>
<path d="M5430 9461 c-7 -15 -7 -21 0 -21 12 0 25 28 17 36 -3 3 -10 -4 -17
-15z"/>
<path d="M5468 9473 c10 -4 10 -8 1 -19 -13 -16 -1 -18 21 -4 13 9 13 11 0 20
-8 5 -19 9 -25 9 -5 0 -4 -3 3 -6z"/>
<path d="M5387 9463 c-11 -20 -16 -63 -8 -63 7 0 22 22 25 40 1 3 5 11 9 18 5
7 3 12 -7 12 -8 0 -17 -3 -19 -7z"/>
<path d="M5520 9461 c0 -6 5 -11 10 -11 6 0 10 -8 10 -19 0 -25 25 -47 35 -30
4 6 3 14 -3 18 -5 3 -11 15 -13 26 -4 20 -39 35 -39 16z"/>
<path d="M5760 9460 c0 -5 5 -10 10 -10 6 0 10 5 10 10 0 6 -4 10 -10 10 -5 0
-10 -4 -10 -10z"/>
<path d="M5635 9420 c-3 -6 1 -7 9 -4 18 7 21 14 7 14 -6 0 -13 -4 -16 -10z"/>
<path d="M5500 9401 c0 -5 7 -11 14 -14 10 -4 13 -1 9 9 -6 15 -23 19 -23 5z"/>
<path d="M6761 9394 c0 -11 3 -14 6 -6 3 7 2 16 -1 19 -3 4 -6 -2 -5 -13z"/>
<path d="M5460 9390 c0 -5 5 -10 11 -10 5 0 7 5 4 10 -3 6 -8 10 -11 10 -2 0
-4 -4 -4 -10z"/>
<path d="M5425 9380 c-3 -5 -1 -10 4 -10 6 0 11 5 11 10 0 6 -2 10 -4 10 -3 0
-8 -4 -11 -10z"/>
<path d="M5365 9370 c-3 -5 -1 -10 4 -10 6 0 11 5 11 10 0 6 -2 10 -4 10 -3 0
-8 -4 -11 -10z"/>
<path d="M6389 9378 c-4 -15 -9 -51 -6 -47 15 16 26 49 17 49 -5 0 -10 -1 -11
-2z"/>
<path d="M6730 9360 c0 -5 5 -10 10 -10 6 0 10 5 10 10 0 6 -4 10 -10 10 -5 0
-10 -4 -10 -10z"/>
<path d="M6280 9345 c7 -9 15 -13 17 -11 7 7 -7 26 -19 26 -6 0 -6 -6 2 -15z"/>
<path d="M6587 9349 c7 -7 15 -10 18 -7 3 3 -2 9 -12 12 -14 6 -15 5 -6 -5z"/>
<path d="M6180 9330 c0 -5 5 -10 10 -10 6 0 10 5 10 10 0 6 -4 10 -10 10 -5 0
-10 -4 -10 -10z"/>
<path d="M6235 9330 c3 -5 8 -10 11 -10 2 0 4 5 4 10 0 6 -5 10 -11 10 -5 0
-7 -4 -4 -10z"/>
<path d="M6408 9323 c7 -3 16 -2 19 1 4 3 -2 6 -13 5 -11 0 -14 -3 -6 -6z"/>
<path d="M6127 9291 c-3 -14 0 -21 9 -21 16 0 18 9 5 28 -6 10 -10 9 -14 -7z"/>
<path d="M6270 9300 c0 -5 5 -10 10 -10 6 0 10 5 10 10 0 6 -4 10 -10 10 -5 0
-10 -4 -10 -10z"/>
<path d="M5868 9293 c7 -3 16 -2 19 1 4 3 -2 6 -13 5 -11 0 -14 -3 -6 -6z"/>
<path d="M6074 9285 c8 -8 18 -15 22 -15 3 0 1 7 -6 15 -7 8 -17 15 -22 15 -5
0 -3 -7 6 -15z"/>
<path d="M6595 9270 c3 -5 8 -10 11 -10 2 0 4 5 4 10 0 6 -5 10 -11 10 -5 0
-7 -4 -4 -10z"/>
<path d="M5720 9230 c0 -11 4 -20 9 -20 5 0 7 9 4 20 -3 11 -7 20 -9 20 -2 0
-4 -9 -4 -20z"/>
<path d="M6448 9243 c7 -3 16 -2 19 1 4 3 -2 6 -13 5 -11 0 -14 -3 -6 -6z"/>
<path d="M6615 9240 c-3 -5 -1 -10 4 -10 6 0 11 5 11 10 0 6 -2 10 -4 10 -3 0
-8 -4 -11 -10z"/>
<path d="M5527 9223 c-4 -3 -7 -11 -7 -17 0 -6 5 -5 12 2 6 6 9 14 7 17 -3 3
-9 2 -12 -2z"/>
<path d="M5433 9203 c9 -9 20 -13 24 -9 4 4 1 11 -7 16 -25 16 -35 11 -17 -7z"/>
<path d="M5657 9209 c7 -7 15 -10 18 -7 3 3 -2 9 -12 12 -14 6 -15 5 -6 -5z"/>
<path d="M5848 9213 c7 -3 16 -2 19 1 4 3 -2 6 -13 5 -11 0 -14 -3 -6 -6z"/>
<path d="M6478 9213 c7 -3 16 -2 19 1 4 3 -2 6 -13 5 -11 0 -14 -3 -6 -6z"/>
<path d="M5397 9196 c-4 -10 -7 -25 -6 -34 0 -11 4 -9 10 7 5 13 8 29 6 35 -2
5 -6 2 -10 -8z"/>
<path d="M6330 9189 c0 -5 5 -7 10 -4 6 3 10 8 10 11 0 2 -4 4 -10 4 -5 0 -10
-5 -10 -11z"/>
<path d="M6862 9186 c2 -14 -5 -22 -29 -28 -18 -5 -33 -13 -33 -18 0 -14 18
-12 23 3 3 9 7 9 18 0 11 -9 18 -9 31 1 14 10 14 15 2 36 -11 20 -14 21 -12 6z"/>
<path d="M6818 9173 c6 -2 18 -2 25 0 6 3 1 5 -13 5 -14 0 -19 -2 -12 -5z"/>
<path d="M6690 9160 c-24 -8 -24 -8 -2 -9 22 -1 22 -1 2 -21 -13 -13 -33 -19
-62 -19 -86 0 -129 -4 -116 -12 7 -5 21 -6 31 -3 10 3 17 0 17 -7 0 -8 6 -6
18 4 10 10 26 17 35 17 22 0 22 -29 0 -47 -17 -13 -17 -14 2 -11 12 2 21 12
23 26 4 26 10 27 34 5 17 -15 18 -15 18 10 0 15 9 32 22 41 16 12 18 16 8 18
-8 0 8 4 35 8 l50 7 -45 0 c-25 1 -56 -3 -70 -7z"/>
<path d="M5800 9140 c0 -5 5 -10 10 -10 6 0 10 5 10 10 0 6 -4 10 -10 10 -5 0
-10 -4 -10 -10z"/>
<path d="M6580 9140 c0 -5 6 -10 14 -10 8 0 18 5 21 10 3 6 -3 10 -14 10 -12
0 -21 -4 -21 -10z"/>
<path d="M6508 9123 c12 -2 32 -2 45 0 12 2 2 4 -23 4 -25 0 -35 -2 -22 -4z"/>
<path d="M6334 9109 c-3 -5 -20 -9 -37 -9 -18 0 -68 -7 -112 -15 -44 -8 -134
-23 -200 -35 -66 -12 -144 -25 -174 -30 -30 -6 -69 -10 -87 -10 -18 0 -36 -4
-39 -10 -3 -5 -20 -10 -37 -10 -18 0 -57 -4 -87 -10 -31 -5 -91 -15 -134 -21
-43 -7 -80 -15 -82 -20 -3 -4 4 -33 16 -63 24 -66 20 -65 171 -37 57 10 150
26 208 36 58 9 155 25 215 35 61 10 144 24 185 30 80 12 304 52 307 54 1 1 -6
29 -16 61 -18 59 -20 60 -55 61 -20 1 -39 -3 -42 -7z m-296 -110 c14 1 22 -3
22 -12 0 -10 -19 -18 -57 -25 -94 -16 -125 -8 -91 26 10 10 15 7 25 -10 9 -16
12 -18 13 -7 0 18 40 40 55 31 6 -4 20 -5 33 -3z m-208 -50 c0 -27 -2 -30 -15
-19 -11 9 -15 9 -15 1 0 -7 -11 -9 -27 -6 -15 2 -30 -1 -34 -7 -8 -13 -29 -2
-29 15 0 7 15 14 32 15 18 2 42 9 53 17 30 21 35 18 35 -16z m47 5 c-3 -3 -12
-4 -19 -1 -8 3 -5 6 6 6 11 1 17 -2 13 -5z m-180 -38 c-14 -36 -26 -12 -18 34
1 2 6 -1 12 -7 7 -7 9 -19 6 -27z"/>
<path d="M6440 9114 c0 -4 5 -24 12 -45 8 -27 17 -39 30 -39 24 0 23 4 -7 34
-31 31 -33 50 -4 41 15 -5 19 -4 15 4 -8 12 -46 16 -46 5z"/>
<path d="M6732 9098 c2 -15 11 -24 27 -26 19 -3 21 -6 10 -13 -10 -6 -8 -9 10
-9 13 0 21 3 18 6 -4 4 3 15 15 25 17 15 18 19 5 19 -9 0 -19 -5 -22 -10 -4
-6 -12 -7 -18 -3 -7 4 -16 8 -22 8 -5 1 -9 6 -7 13 1 7 -3 12 -9 12 -6 0 -9
-10 -7 -22z"/>
<path d="M5568 9103 c7 -3 16 -2 19 1 4 3 -2 6 -13 5 -11 0 -14 -3 -6 -6z"/>
<path d="M6865 9100 l-30 -8 28 -1 c15 0 27 -5 27 -11 0 -5 4 -10 9 -10 6 0 9
9 8 20 -1 11 -4 19 -7 19 -3 -1 -18 -5 -35 -9z"/>
<path d="M5520 9089 c0 -5 5 -7 10 -4 6 3 10 8 10 11 0 2 -4 4 -10 4 -5 0 -10
-5 -10 -11z"/>
<path d="M5420 9080 c0 -5 5 -10 10 -10 6 0 10 5 10 10 0 6 -4 10 -10 10 -5 0
-10 -4 -10 -10z"/>
<path d="M6705 9070 c-3 -5 1 -10 10 -10 9 0 13 5 10 10 -3 6 -8 10 -10 10 -2
0 -7 -4 -10 -10z"/>
<path d="M5535 9060 c-3 -5 1 -10 10 -10 9 0 13 5 10 10 -3 6 -8 10 -10 10 -2
0 -7 -4 -10 -10z"/>
<path d="M6570 9057 c0 -24 42 -31 103 -19 l52 10 -64 -5 c-55 -5 -66 -3 -78
12 -11 17 -13 17 -13 2z"/>
<path d="M6510 9050 c0 -5 7 -10 16 -10 8 0 12 5 9 10 -3 6 -10 10 -16 10 -5
0 -9 -4 -9 -10z"/>
<path d="M6548 9023 c6 -2 18 -2 25 0 6 3 1 5 -13 5 -14 0 -19 -2 -12 -5z"/>
<path d="M6480 9011 c0 -4 11 -6 25 -3 14 2 25 6 25 8 0 2 -11 4 -25 4 -14 0
-25 -4 -25 -9z"/>
<path d="M7201 9880 c0 -8 4 -24 9 -35 l9 -20 0 20 c0 11 -4 27 -9 35 -9 13
-10 13 -9 0z"/>
<path d="M7220 9808 c0 -9 4 -19 9 -22 4 -3 11 -20 15 -37 3 -18 9 -30 12 -26
7 7 -14 77 -27 92 -6 5 -9 3 -9 -7z"/>
<path d="M7261 9705 c-1 -15 26 -102 38 -123 8 -13 10 -14 10 -2 0 18 -47 140
-48 125z"/>
<path d="M7311 9550 c0 -8 4 -24 9 -35 5 -13 9 -14 9 -5 0 8 -4 24 -9 35 -5
13 -9 14 -9 5z"/>
<path d="M7334 9468 c10 -44 26 -81 32 -75 3 3 0 23 -7 44 -16 47 -34 69 -25
31z"/>
<path d="M7371 9370 c0 -8 4 -24 9 -35 5 -13 9 -14 9 -5 0 8 -4 24 -9 35 -5
13 -9 14 -9 5z"/>
<path d="M7396 9285 c6 -31 11 -41 18 -34 2 2 -2 18 -10 34 l-14 30 6 -30z"/>
<path d="M3972 9268 c-15 -15 -16 -65 0 -74 8 -5 9 -2 5 11 -4 9 -2 24 4 31
28 34 97 -2 82 -42 -6 -17 -5 -17 10 -5 39 31 2 91 -56 91 -18 0 -38 -5 -45
-12z"/>
<path d="M7437 9159 c13 -40 23 -78 23 -85 0 -8 5 -14 10 -14 12 0 13 22 2 36
-5 5 -17 37 -27 72 -10 34 -21 62 -25 62 -3 0 4 -32 17 -71z"/>
<path d="M7481 9035 c0 -11 4 -27 9 -35 9 -13 10 -13 9 0 0 8 -4 24 -9 35 l-9
20 0 -20z"/>
<path d="M7501 8970 c0 -8 4 -24 9 -35 5 -13 9 -14 9 -5 0 8 -4 24 -9 35 -5
13 -9 14 -9 5z"/>
<path d="M7520 8898 c0 -9 3 -19 8 -22 4 -2 16 -36 27 -75 10 -39 23 -71 28
-71 5 0 6 6 3 13 -2 6 -14 44 -26 82 -22 71 -40 103 -40 73z"/>
<path d="M18521 7892 c-7 -13 -6 -23 1 -30 17 -17 68 -15 74 3 15 38 -56 63
-75 27z m36 -18 c-3 -3 -12 -4 -19 -1 -8 3 -5 6 6 6 11 1 17 -2 13 -5z"/>
<path d="M18530 7250 c-11 -11 -20 -28 -20 -38 0 -30 42 -62 82 -62 65 0 91
61 42 99 -34 27 -78 27 -104 1z m76 -16 c-3 -9 -6 -27 -6 -40 0 -31 -33 -33
-54 -2 -21 30 -4 58 35 58 24 0 30 -4 25 -16z"/>
<path d="M13777 7112 c-22 -24 -13 -50 21 -59 35 -9 58 21 38 51 -18 28 -39
31 -59 8z"/>
<path d="M18760 6992 c0 -15 -6 -21 -17 -20 -24 3 -166 -23 -159 -29 2 -3 45
1 95 8 90 13 116 28 91 53 -7 7 -10 3 -10 -12z"/>
<path d="M18513 6943 c-18 -2 -33 -9 -33 -14 0 -15 73 -6 78 9 2 6 0 11 -5 10
-4 0 -23 -3 -40 -5z"/>
<path d="M13971 6915 c0 -11 -4 -31 -7 -45 -5 -19 -4 -22 5 -14 7 6 11 26 8
45 -2 19 -5 25 -6 14z"/>
<path d="M13950 6826 c0 -8 5 -18 10 -21 6 -3 10 1 10 9 0 8 -4 18 -10 21 -5
3 -10 -1 -10 -9z"/>
<path d="M13951 6564 c0 -11 3 -14 6 -6 3 7 2 16 -1 19 -3 4 -6 -2 -5 -13z"/>
<path d="M13777 6462 c-45 -50 8 -113 82 -97 17 4 33 16 40 32 10 23 9 31 -7
52 -25 34 -90 41 -115 13z m75 -37 c-2 -18 -10 -36 -17 -39 -14 -5 -55 20 -55
35 0 18 39 47 57 43 15 -4 18 -12 15 -39z"/>
<path d="M8981 6316 c-19 -23 2 -53 38 -54 33 -1 46 19 31 49 -13 22 -52 25
-69 5z"/>
<path d="M13813 6163 c-18 -2 -33 -8 -33 -14 0 -15 56 -10 70 6 7 8 9 14 4 13
-5 0 -24 -3 -41 -5z"/>
<path d="M13878 6163 c6 -2 18 -2 25 0 6 3 1 5 -13 5 -14 0 -19 -2 -12 -5z"/>
<path d="M13730 6140 c0 -5 7 -10 15 -10 8 0 15 5 15 10 0 6 -7 10 -15 10 -8
0 -15 -4 -15 -10z"/>
<path d="M9178 6108 c-4 -10 -10 -40 -14 -68 -5 -37 -3 -50 6 -50 8 0 10 8 7
22 -4 12 -2 28 4 34 6 7 9 28 7 46 -2 24 -5 28 -10 16z"/>
<path d="M8978 5654 c-10 -21 -9 -31 3 -52 12 -22 23 -28 60 -30 51 -3 72 12
72 53 0 40 -20 55 -74 55 -43 0 -51 -3 -61 -26z m81 -22 c-5 -14 -8 -31 -5
-39 6 -16 -8 -17 -35 -3 -12 7 -19 21 -19 39 0 35 4 38 39 33 27 -4 29 -6 20
-30z"/>
<path d="M4233 5533 c-16 -6 -17 -35 -1 -51 17 -17 42 -15 62 6 15 18 15 20
-2 35 -19 17 -36 20 -59 10z"/>
<path d="M9105 5383 c-49 -7 -54 -23 -7 -23 23 0 42 4 42 9 0 6 15 12 33 14
l32 4 -35 0 c-19 0 -48 -2 -65 -4z"/>
<path d="M9020 5360 c0 -5 7 -10 16 -10 8 0 12 5 9 10 -3 6 -10 10 -16 10 -5
0 -9 -4 -9 -10z"/>
<path d="M4238 4883 c-27 -32 -28 -50 -3 -77 45 -49 125 -26 125 36 0 49 -89
79 -122 41z m72 -13 c12 -8 12 -10 1 -10 -9 0 -12 -9 -9 -30 4 -26 1 -30 -18
-30 -40 0 -57 50 -23 71 18 11 30 11 49 -1z"/>
<path d="M4468 4648 c-3 -31 -6 -33 -55 -42 -29 -5 -53 -13 -53 -18 0 -12 68
-10 75 2 3 6 14 10 24 10 14 0 20 9 23 36 2 19 1 37 -3 40 -4 2 -9 -10 -11
-28z"/>
<path d="M4315 4580 c-3 -5 1 -10 9 -10 9 0 16 5 16 10 0 6 -4 10 -9 10 -6 0
-13 -4 -16 -10z"/>
</g>
</svg>
