<svg version="1.1" id="Layer_1" xmlns="http://www.w3.org/2000/svg" xmlns:xlink="http://www.w3.org/1999/xlink" x="0px" y="0px"
	 width="100%" viewBox="0 0 512 512" enable-background="new 0 0 512 512" xml:space="preserve">
<path fill="#000000" opacity="1.000000" stroke="none" 
	d="
M273.000000,513.000000 
	C182.022079,513.000000 91.544159,513.000000 1.033118,513.000000 
	C1.033118,342.397064 1.033118,171.794098 1.033118,1.095572 
	C171.561279,1.095572 342.122620,1.095572 512.841980,1.095572 
	C512.841980,171.666550 512.841980,342.333252 512.841980,513.000000 
	C433.127411,513.000000 353.313690,513.000000 273.000000,513.000000 
M53.993866,278.500000 
	C53.993942,328.161346 53.988865,377.822662 53.996784,427.484009 
	C53.999691,445.716339 67.908859,459.658539 86.146683,459.659027 
	C199.801605,459.662170 313.456512,459.650909 427.111450,459.621979 
	C429.262634,459.621429 431.469849,459.606537 433.556000,459.157410 
	C450.081512,455.599365 459.759125,443.526123 459.761780,426.449402 
	C459.779083,315.627502 459.772552,204.805603 459.774506,93.983696 
	C459.774567,90.317513 459.849579,86.649925 459.773987,82.985382 
	C459.485229,68.986626 445.561523,53.867798 430.107574,53.892841 
	C315.286407,54.078926 200.463852,54.219086 85.644264,53.751724 
	C68.354118,53.681347 53.697803,70.537827 53.802967,85.521156 
	C54.252090,149.511398 53.993977,213.506607 53.993866,278.500000 
z"/>
<path fill="#F4F4F4" opacity="1.000000" stroke="none" 
	d="
M53.993866,278.000000 
	C53.993977,213.506607 54.252090,149.511398 53.802967,85.521156 
	C53.697803,70.537827 68.354118,53.681347 85.644264,53.751724 
	C200.463852,54.219086 315.286407,54.078926 430.107574,53.892841 
	C445.561523,53.867798 459.485229,68.986626 459.773987,82.985382 
	C459.849579,86.649925 459.774567,90.317513 459.774506,93.983696 
	C459.772552,204.805603 459.779083,315.627502 459.761780,426.449402 
	C459.759125,443.526123 450.081512,455.599365 433.556000,459.157410 
	C431.469849,459.606537 429.262634,459.621429 427.111450,459.621979 
	C313.456512,459.650909 199.801605,459.662170 86.146683,459.659027 
	C67.908859,459.658539 53.999691,445.716339 53.996784,427.484009 
	C53.988865,377.822662 53.993942,328.161346 53.993866,278.000000 
M240.963516,403.097412 
	C240.963516,403.097412 240.849335,403.136444 241.171738,403.664856 
	C241.749863,403.877350 242.328003,404.089874 243.330811,404.872589 
	C255.365860,409.556915 266.983185,409.272308 278.756104,402.113525 
	C280.602661,401.454895 282.449219,400.796265 284.907257,400.073578 
	C285.255798,399.865631 285.604340,399.657684 286.511292,399.492157 
	C286.925171,399.146515 287.339081,398.800873 288.346741,398.567261 
	C288.892670,398.338348 289.438599,398.109436 290.716827,397.881622 
	C294.503448,396.313751 298.290070,394.745880 302.646545,393.168732 
	C303.161438,392.944824 303.676331,392.720917 304.643890,392.391571 
	C304.643890,392.391571 305.011169,392.106720 305.716187,392.033661 
	C306.803833,391.579407 307.891449,391.125153 309.614075,390.732025 
	C310.275330,390.241302 310.936554,389.750580 311.827728,389.365692 
	C311.827728,389.365692 312.061493,389.268707 312.836548,389.256653 
	C317.721863,387.240692 322.607178,385.224762 327.767609,383.353424 
	C327.767609,383.353424 328.048706,383.220764 328.775269,383.273041 
	C329.631500,382.563629 330.487701,381.854187 331.903992,380.800293 
	C338.690582,371.320709 345.477142,361.841125 352.875885,352.062622 
	C360.119171,341.015594 367.426880,330.010040 374.575867,318.902313 
	C377.685760,314.070251 380.469574,309.028290 384.120331,303.789490 
	C384.393585,302.876801 384.920959,301.958710 384.901672,301.052246 
	C384.648865,289.153717 384.440643,277.251007 383.877716,265.365662 
	C383.792603,263.568756 381.965088,261.854401 380.599091,259.522614 
	C340.110504,206.923431 299.621948,154.324249 258.744263,101.219604 
	C254.285965,107.024864 250.442551,112.015457 246.613800,117.017281 
	C230.763748,137.723724 214.918152,158.433578 198.591156,179.446381 
	C198.351837,179.942123 198.112503,180.437851 197.973190,180.963989 
	C197.973190,180.963989 197.904358,180.885330 197.301300,181.044846 
	C196.605774,182.044907 195.910233,183.044952 194.724701,184.478607 
	C193.841080,185.706024 192.957458,186.933426 191.506485,188.337296 
	C191.282043,188.870804 191.057602,189.404327 190.432388,190.180130 
	C190.189606,190.399124 190.045975,190.670563 189.433838,191.234604 
	C189.145309,191.765457 188.856781,192.296295 188.208878,193.011444 
	C187.992096,193.197006 187.872528,193.432022 187.266525,193.949478 
	C186.854385,194.639343 186.442230,195.329193 185.999390,196.000000 
	C185.999390,196.000000 186.021072,196.029022 185.435669,196.245514 
	C184.896103,197.110764 184.356537,197.976013 183.892960,198.997665 
	C183.892960,198.997665 183.832504,198.840897 183.224609,199.125443 
	C181.963287,201.000977 180.701981,202.876495 179.115555,204.945206 
	C178.926117,205.133072 178.829407,205.360382 178.299667,205.861877 
	C178.129333,206.192963 177.959000,206.524063 177.931961,206.862518 
	C177.931961,206.862518 177.806366,206.793137 177.222839,206.973419 
	C176.826950,207.656189 176.431076,208.338959 176.001450,208.997681 
	C176.001450,208.997681 176.018326,209.035278 175.528549,209.137482 
	C175.408829,209.429916 175.289124,209.722351 174.788300,210.423431 
	C174.497894,210.896805 174.207489,211.370178 173.293411,212.042511 
	C172.770081,212.965942 172.246750,213.889389 171.895416,214.851013 
	C171.895416,214.851013 171.749863,214.751740 171.170410,214.942963 
	C170.775421,215.622894 170.380432,216.302826 170.000000,216.999496 
	C170.000000,216.999496 169.981888,216.986893 169.402283,217.212082 
	C169.119629,217.751053 168.836975,218.290039 168.239212,218.981094 
	C168.239212,218.981094 168.080338,219.292847 167.531326,219.452591 
	C167.325699,219.967422 167.120071,220.482269 166.712585,221.152740 
	C166.712585,221.152740 166.691696,221.406754 166.133255,221.625656 
	C165.806168,222.095337 165.479080,222.565002 164.882141,223.266953 
	C164.882141,223.266953 164.808655,223.615326 164.319626,223.905624 
	C164.174774,224.248627 164.029907,224.591644 163.983536,224.966644 
	C163.983536,224.966644 163.912796,224.891022 163.280075,225.075668 
	C162.732651,226.001312 162.185226,226.926941 161.261627,228.035004 
	C161.026459,228.217163 160.896713,228.456467 160.290222,228.974030 
	C159.889145,229.657227 159.488068,230.340424 158.845612,231.256866 
	C158.845612,231.256866 158.793610,231.588470 158.292358,231.862473 
	C158.128159,232.197205 157.963959,232.531937 157.932846,232.892044 
	C157.932846,232.892044 157.828552,232.805588 157.226593,232.961075 
	C156.837311,233.647400 156.448029,234.333740 155.824036,235.227432 
	C155.824036,235.227432 155.779678,235.537460 155.234528,235.815125 
	C155.025040,236.155533 154.815536,236.495941 154.241089,237.059479 
	C154.037613,237.277969 153.928268,237.536285 153.331726,238.027451 
	C152.942383,238.694336 152.553055,239.361221 151.728073,240.373871 
	C151.441284,240.840103 151.154510,241.306351 150.299820,242.014069 
	C149.899719,242.692505 149.499619,243.370926 149.017746,244.035828 
	C149.017746,244.035828 149.061630,244.106140 148.527466,244.349014 
	C148.291306,244.865280 148.055130,245.381546 147.933014,245.925156 
	C147.933014,245.925156 147.855927,245.836761 147.225021,246.023361 
	C146.648941,246.936996 146.072861,247.850632 145.004959,249.000183 
	C144.641129,249.610214 144.277298,250.220230 143.317261,251.010269 
	C142.921021,251.696579 142.524780,252.382904 142.043015,253.040726 
	C142.043015,253.040726 142.076981,253.124252 141.459732,253.324921 
	C140.839005,254.434921 140.218262,255.544907 139.807465,256.935944 
	C139.807465,256.935944 139.563721,256.683655 138.946091,256.927734 
	C137.773346,258.612518 136.600601,260.297333 134.731812,262.277863 
	C134.456238,266.176758 134.180679,270.075623 133.390396,274.614532 
	C133.355103,279.057953 133.319809,283.501373 133.140823,288.846680 
	C133.134430,291.882935 133.128036,294.919189 133.041672,298.771667 
	C133.374710,300.516449 133.707764,302.261261 134.133591,304.688843 
	C136.279282,307.831787 138.393845,310.996521 140.576309,314.113739 
	C148.275070,325.109924 155.997101,336.089844 163.859802,347.679474 
	C164.220398,348.165070 164.580994,348.650665 165.004089,349.708130 
	C165.355423,350.132263 165.706757,350.556396 166.277252,351.619873 
	C168.169098,354.110046 170.060944,356.600189 172.271423,359.680267 
	C175.941452,364.925507 179.469543,370.278381 183.335159,375.375275 
	C185.629044,378.399841 188.455002,381.020844 191.732330,384.088867 
	C198.140549,386.471313 204.548767,388.853760 211.188187,391.348602 
	C211.188187,391.348602 211.424622,391.245941 211.763977,391.795135 
	C212.515137,392.107330 213.266281,392.419556 214.635910,393.120392 
	C216.018372,393.504333 217.400848,393.888275 218.863907,394.258423 
	C218.863907,394.258423 218.808487,394.198334 219.138870,394.737549 
	C219.726715,394.945282 220.314575,395.153046 221.409561,395.804535 
	C223.557541,396.651978 225.705505,397.499420 228.347046,398.844604 
	C230.569672,399.517578 232.792297,400.190521 235.565109,401.273193 
	C237.046753,401.804535 238.528381,402.335907 240.395325,403.174774 
	C240.395325,403.174774 240.888016,403.191528 240.963516,403.097412 
z"/>
<path fill="#069EDA" opacity="1.000000" stroke="none" 
	d="
M199.070892,179.142181 
	C214.918152,158.433578 230.763748,137.723724 246.613800,117.017281 
	C250.442551,112.015457 254.285965,107.024864 258.744263,101.219604 
	C299.621948,154.324249 340.110504,206.923431 380.535187,260.022766 
	C379.704926,260.390137 378.868439,260.412018 378.182739,260.101227 
	C368.478912,255.703232 358.795563,251.260071 348.944092,246.536026 
	C347.949005,245.458282 347.231781,244.473190 346.267120,243.917618 
	C337.795776,239.038712 329.291290,234.216843 320.772858,229.420319 
	C317.088989,227.346024 313.349396,225.370804 309.071350,223.043945 
	C308.018982,245.754425 307.007080,267.591248 305.637695,289.333557 
	C303.731903,288.294128 302.141998,287.410583 300.641846,286.394531 
	C289.942291,279.147736 279.261017,271.873871 268.417053,264.356934 
	C267.908234,263.937744 267.556274,263.770264 267.054260,263.321960 
	C265.277466,261.992615 263.650696,260.944061 261.811707,259.587433 
	C260.187378,259.370209 258.429688,258.950012 257.418610,259.633850 
	C250.097900,264.584961 242.927979,269.759003 235.391891,274.918152 
	C233.342316,276.221832 231.611176,277.469910 229.542191,278.798340 
	C226.725891,280.710541 224.247452,282.542450 221.446671,284.456024 
	C220.424103,285.049927 219.723877,285.562134 218.697037,286.084473 
	C217.763748,286.674042 217.157089,287.253540 216.291306,287.859222 
	C215.743866,288.074066 215.455536,288.262695 214.901077,288.443054 
	C214.296005,288.816467 213.957062,289.198120 213.439819,289.603516 
	C213.261520,289.627228 212.989594,289.862762 212.769012,289.717773 
	C212.378723,289.526245 212.208984,289.479736 212.129715,289.007874 
	C211.265091,267.012787 210.309998,245.443024 209.300644,222.648056 
	C195.863327,230.485870 183.428101,237.739166 170.616821,244.984467 
	C160.146088,250.006195 150.051392,255.035934 139.958832,259.638489 
	C139.828552,258.368744 139.696136,257.526215 139.563721,256.683655 
	C139.563721,256.683655 139.807465,256.935944 140.060242,256.784302 
	C140.901016,255.463165 141.488998,254.293716 142.076981,253.124252 
	C142.076981,253.124252 142.043015,253.040726 142.408783,252.997055 
	C143.154175,252.245682 143.533829,251.537964 143.913467,250.830261 
	C144.277298,250.220230 144.641129,249.610214 145.613800,248.854065 
	C146.767075,247.750885 147.311493,246.793823 147.855927,245.836761 
	C147.855927,245.836761 147.933014,245.925156 148.162552,245.815002 
	C148.615265,245.171936 148.838440,244.639038 149.061630,244.106140 
	C149.061630,244.106140 149.017746,244.035828 149.387848,243.982758 
	C150.127853,243.210663 150.497787,242.491623 150.867722,241.772583 
	C151.154510,241.306351 151.441284,240.840103 152.264313,240.149170 
	C153.171387,239.227783 153.542206,238.531113 153.913025,237.834442 
	C153.928268,237.536285 154.037613,237.277969 154.745071,236.870667 
	C155.425934,236.300400 155.602814,235.918930 155.779678,235.537460 
	C155.779678,235.537460 155.824036,235.227432 156.268097,235.073029 
	C157.084290,234.214294 157.456421,233.509933 157.828552,232.805588 
	C157.828552,232.805588 157.932846,232.892044 158.154480,232.783554 
	C158.515289,232.312866 158.654449,231.950668 158.793610,231.588470 
	C158.793610,231.588470 158.845612,231.256866 159.296997,231.084808 
	C160.123062,230.192810 160.497742,229.472885 160.872437,228.752945 
	C160.896713,228.456467 161.026459,228.217163 161.794800,227.881256 
	C162.856247,226.781998 163.384521,225.836517 163.912796,224.891022 
	C163.912796,224.891022 163.983536,224.966644 164.204865,224.829514 
	C164.553696,224.333374 164.681183,223.974350 164.808655,223.615326 
	C164.808655,223.615326 164.882141,223.266953 165.336746,223.100067 
	C166.091461,222.424362 166.391571,221.915558 166.691696,221.406754 
	C166.691696,221.406754 166.712585,221.152740 167.067123,220.957336 
	C167.641220,220.272232 167.860779,219.782547 168.080338,219.292847 
	C168.080338,219.292847 168.239212,218.981094 168.722534,218.839691 
	C169.464523,218.127823 169.723206,217.557358 169.981903,216.986893 
	C169.981888,216.986893 170.000000,216.999496 170.332169,216.955658 
	C171.026184,216.191772 171.388016,215.471756 171.749847,214.751740 
	C171.749863,214.751740 171.895416,214.851013 172.150452,214.763947 
	C172.909348,213.732422 173.413208,212.787994 173.917084,211.843552 
	C174.207489,211.370178 174.497894,210.896805 175.183868,210.119141 
	C175.833084,209.615463 175.979385,209.355606 176.018326,209.035278 
	C176.018326,209.035278 176.001450,208.997681 176.350494,208.965973 
	C177.068481,208.220566 177.437424,207.506851 177.806366,206.793137 
	C177.806366,206.793137 177.931961,206.862518 178.147537,206.771637 
	C178.517212,206.329559 178.671326,205.978363 178.825424,205.627151 
	C178.829407,205.360382 178.926117,205.133072 179.652313,204.820297 
	C181.403534,202.743896 182.618011,200.792389 183.832489,198.840881 
	C183.832504,198.840897 183.892960,198.997665 184.212311,198.930267 
	C185.028137,197.918259 185.524612,196.973648 186.021072,196.029022 
	C186.021072,196.029022 185.999390,196.000000 186.354248,195.960907 
	C187.089462,195.186707 187.469818,194.451584 187.850159,193.716461 
	C187.872528,193.432022 187.992096,193.197006 188.714951,192.856506 
	C189.481171,192.132553 189.741333,191.563507 190.001480,190.994476 
	C190.045975,190.670563 190.189606,190.399124 190.907837,189.950653 
	C191.613480,189.201080 191.843658,188.680954 192.073853,188.160828 
	C192.957458,186.933426 193.841080,185.706024 195.297256,184.217422 
	C196.548004,182.932602 197.226181,181.908966 197.904358,180.885330 
	C197.904358,180.885330 197.973190,180.963989 198.200241,180.843124 
	C198.641815,180.195557 198.856354,179.668869 199.070892,179.142181 
M296.907227,257.235413 
	C297.261261,255.160858 297.615295,253.086319 298.117249,250.262909 
	C298.407654,248.511597 298.698059,246.760300 299.313202,244.290390 
	C299.860260,241.199600 300.407349,238.108810 301.075012,234.260056 
	C301.378265,232.510361 301.681549,230.760681 302.002441,228.155975 
	C302.200562,226.691452 302.434082,225.230698 302.590240,223.761703 
	C303.077942,219.175079 303.536346,214.585327 303.993134,209.247772 
	C300.687225,202.218506 297.348816,195.204300 294.081543,188.157135 
	C284.286499,167.030319 274.546539,145.877853 264.671417,124.788605 
	C264.096497,123.560837 262.514496,122.804649 261.201538,121.654068 
	C260.577911,122.779343 260.207947,123.170822 260.140259,123.609001 
	C257.793671,138.799057 255.531021,154.002274 253.137482,169.184845 
	C250.871338,183.559357 248.435333,197.907043 246.150803,212.278732 
	C245.320618,217.501328 244.712082,222.759171 243.975998,228.798187 
	C244.214584,231.567444 243.408310,235.376999 244.911697,236.886993 
	C247.938934,239.927505 252.223877,241.715805 256.384003,244.546326 
	C258.253510,245.699127 260.123047,246.851929 262.399872,248.539047 
	C264.875854,249.711182 267.351807,250.883316 270.000519,252.737244 
	C272.984131,254.845810 275.967712,256.954376 279.368896,259.556152 
	C280.541779,260.097778 281.714691,260.639404 283.082733,261.814087 
	C286.741852,264.319977 290.401001,266.825836 294.969055,269.954163 
	C295.726532,265.039764 296.266602,261.536011 296.907227,257.235413 
M239.094986,192.291275 
	C239.717072,190.521942 240.339157,188.752625 240.998322,186.193253 
	C241.637558,183.454391 242.276794,180.715530 242.975235,177.225662 
	C242.948090,176.472809 242.920959,175.719940 243.047104,174.230026 
	C244.089111,170.179886 245.131119,166.129745 246.627136,161.547363 
	C247.307877,159.013565 247.988617,156.479767 248.852676,153.224152 
	C248.902069,152.482300 248.951462,151.740433 249.526169,150.506592 
	C250.000626,148.341278 250.475067,146.175964 251.078506,143.241577 
	C252.759232,137.052139 254.439957,130.862701 256.120667,124.673256 
	C255.479584,124.409363 254.838501,124.145470 254.197418,123.881577 
	C248.420853,132.836990 242.644302,141.792404 236.227295,150.988770 
	C233.390823,155.288025 230.554352,159.587265 227.171738,164.257660 
	C225.371277,167.148544 223.570801,170.039429 221.136078,173.072159 
	C219.727600,175.337112 218.319138,177.602066 216.497177,180.138260 
	C216.231918,180.352173 216.050842,180.622467 215.931686,180.959579 
	C215.931686,180.959579 215.918503,180.938446 215.246933,181.077637 
	C213.803452,183.374435 212.359970,185.671219 210.246399,188.114639 
	C209.148056,190.065842 208.049728,192.017029 206.256607,194.071106 
	C205.166718,195.714142 204.076828,197.357162 202.452957,199.407715 
	C201.702698,200.688797 200.806839,201.910690 200.253311,203.271790 
	C199.883682,204.180664 199.546448,205.765274 200.002335,206.199417 
	C200.779037,206.939056 202.222885,207.394653 203.331299,207.302994 
	C211.510178,206.626541 219.686768,205.884613 227.840210,204.954132 
	C232.013290,204.477875 236.672165,204.474350 238.011398,198.221680 
	C238.341736,196.481522 238.672073,194.741364 239.094986,192.291275 
z"/>
<path fill="#A7DFF7" opacity="1.000000" stroke="none" 
	d="
M170.992889,244.992462 
	C183.428101,237.739166 195.863327,230.485870 209.300644,222.648056 
	C210.309998,245.443024 211.265091,267.012787 212.132172,289.436646 
	C212.069641,290.858643 212.095108,291.426453 211.843704,292.030243 
	C211.381760,292.046417 211.196701,292.026611 210.628052,292.028076 
	C209.143311,292.361786 207.975586,292.531219 206.951157,293.008362 
	C194.898132,298.622681 182.866592,304.283051 170.623505,309.839478 
	C170.019363,309.540741 169.621124,309.333801 169.172974,308.667297 
	C169.090286,305.135681 169.057526,302.063599 169.032990,298.554077 
	C169.035431,296.072266 169.029633,294.027893 169.028107,291.530487 
	C169.028152,288.052246 169.023911,285.027039 169.291199,281.729462 
	C169.330002,278.403320 169.097275,275.349579 168.830811,271.853027 
	C163.475449,275.990173 159.065765,279.323334 154.737030,282.758453 
	C148.618378,287.613922 142.596390,292.592194 136.428833,297.383789 
	C135.649048,297.989594 134.239456,297.784729 133.121643,297.955444 
	C133.128036,294.919189 133.134430,291.882935 133.573166,288.408661 
	C135.827927,287.304016 137.965378,287.040497 139.420212,285.903503 
	C147.217896,279.809387 154.571213,273.110657 162.629227,267.398315 
	C167.908600,263.655762 171.085526,259.447937 170.944809,252.503448 
	C170.964005,249.705963 170.978439,247.349213 170.992889,244.992462 
z"/>
<path fill="#7CD0F5" opacity="1.000000" stroke="none" 
	d="
M349.107239,246.827835 
	C358.795563,251.260071 368.478912,255.703232 378.182739,260.101227 
	C378.868439,260.412018 379.704926,260.390137 380.707397,260.312408 
	C381.965088,261.854401 383.792603,263.568756 383.877716,265.365662 
	C384.440643,277.251007 384.648865,289.153717 384.901672,301.052246 
	C384.920959,301.958710 384.393585,302.876801 383.315247,303.919800 
	C371.235535,306.125610 359.960907,308.201050 348.422729,310.201111 
	C347.705231,309.825287 347.251282,309.524902 347.198792,309.083374 
	C348.072723,307.147797 348.944031,305.356110 348.956329,303.558533 
	C349.085480,284.648834 349.077393,265.738220 349.107239,246.827835 
z"/>
<path fill="#3FADE0" opacity="1.000000" stroke="none" 
	d="
M352.263702,352.361511 
	C345.477142,361.841125 338.690582,371.320709 331.210358,380.928101 
	C329.693695,381.059113 328.870636,381.062317 328.001221,380.716736 
	C322.772430,374.216644 317.725403,367.943939 312.358978,361.957611 
	C308.901154,358.100372 304.974457,354.663483 301.201416,350.773468 
	C301.091125,350.336914 301.037292,350.165039 301.049927,349.670959 
	C301.252289,348.933289 301.388184,348.517822 301.850708,348.077454 
	C303.790375,346.711304 305.403442,345.370056 307.376221,344.017548 
	C309.819427,342.670990 311.902924,341.335724 314.288452,339.851807 
	C315.386047,339.137146 316.247253,338.643707 316.966431,337.993225 
	C321.340851,334.036652 325.682983,330.044250 330.382263,326.012756 
	C333.450226,323.844421 336.104004,321.631836 338.911163,319.634888 
	C342.170868,317.316040 345.565125,315.186432 349.205750,313.261047 
	C350.428223,326.485443 351.345978,339.423462 352.263702,352.361511 
z"/>
<path fill="#3C93CD" opacity="1.000000" stroke="none" 
	d="
M301.257874,351.038147 
	C304.974457,354.663483 308.901154,358.100372 312.358978,361.957611 
	C317.725403,367.943939 322.772430,374.216644 327.992493,381.074524 
	C328.036285,382.260956 328.042511,382.740875 328.048706,383.220764 
	C328.048706,383.220764 327.767609,383.353424 327.120239,383.213196 
	C307.274017,383.047821 288.074554,383.084381 268.877350,382.891357 
	C267.165344,382.874176 265.468323,381.365814 263.971741,380.302216 
	C266.374451,377.451996 268.569794,374.849548 271.075134,372.459900 
	C273.726410,371.151917 276.067688,369.631165 278.666779,368.091248 
	C279.293732,367.734344 279.662842,367.396606 280.359131,367.010468 
	C282.150146,365.699371 283.613983,364.436615 285.384827,363.044067 
	C287.452087,361.568481 289.212341,360.222687 291.286530,358.769287 
	C294.819611,356.120514 298.038757,353.579315 301.257874,351.038147 
z"/>
<path fill="#69C3EC" opacity="1.000000" stroke="none" 
	d="
M352.569794,352.212067 
	C351.345978,339.423462 350.428223,326.485443 349.226624,312.919617 
	C348.857300,311.620087 348.771790,310.948273 348.686310,310.276489 
	C359.960907,308.201050 371.235535,306.125610 382.955811,304.065887 
	C380.469574,309.028290 377.685760,314.070251 374.575867,318.902313 
	C367.426880,330.010040 360.119171,341.015594 352.569794,352.212067 
z"/>
<path fill="#6AC3EB" opacity="1.000000" stroke="none" 
	d="
M166.058105,350.980530 
	C165.706757,350.556396 165.355423,350.132263 164.964371,349.088989 
	C164.519867,348.005219 164.115082,347.540588 163.710312,347.075928 
	C155.997101,336.089844 148.275070,325.109924 140.576309,314.113739 
	C138.393845,310.996521 136.279282,307.831787 134.507812,304.345612 
	C136.568970,304.046448 138.255905,304.090546 140.222824,304.368103 
	C144.007401,305.365387 147.511963,306.129242 151.390121,306.975098 
	C153.509720,307.368805 155.255722,307.680542 157.390869,308.030457 
	C160.493332,308.767059 163.206635,309.465515 165.939255,310.375671 
	C165.958572,310.587341 165.999283,311.010529 166.168854,311.391602 
	C166.558945,315.179871 166.808472,318.585541 166.993866,321.994690 
	C167.356949,328.671204 167.684250,335.349609 168.023743,342.271820 
	C168.021103,342.516388 168.009415,343.005402 167.789185,343.152405 
	C167.715332,343.863342 167.861694,344.427246 168.013062,345.320129 
	C168.027847,346.087189 168.037613,346.525299 168.034180,347.337280 
	C167.366699,348.800934 166.712402,349.890717 166.058105,350.980530 
z"/>
<path fill="#5B94C3" opacity="1.000000" stroke="none" 
	d="
M263.764343,380.549988 
	C265.468323,381.365814 267.165344,382.874176 268.877350,382.891357 
	C288.074554,383.084381 307.274017,383.047821 326.982697,383.140900 
	C322.607178,385.224762 317.721863,387.240692 312.390991,388.898743 
	C310.947174,387.832489 309.226868,386.369507 309.059540,386.529633 
	C306.757385,388.732330 304.940704,387.079620 302.822113,386.236206 
	C301.529022,385.721436 299.861938,386.015808 298.377655,386.133453 
	C290.966583,386.720856 283.566010,387.818390 276.151428,387.911285 
	C256.003723,388.163788 235.850815,388.000336 215.699982,388.001007 
	C213.381836,388.001068 210.737259,387.517609 210.957001,391.236206 
	C204.548767,388.853760 198.140549,386.471313 191.393463,383.706573 
	C191.063263,383.157745 191.071899,382.991180 191.541321,382.867279 
	C212.450470,382.931885 232.899017,382.992615 253.346649,382.883118 
	C254.622742,382.876312 255.891678,381.534912 257.523438,380.880188 
	C259.843384,380.813965 261.803864,380.681976 263.764343,380.549988 
z"/>
<path fill="#7CD0F5" opacity="1.000000" stroke="none" 
	d="
M170.616837,244.984467 
	C170.978439,247.349213 170.964005,249.705963 170.595215,252.561417 
	C168.440506,254.622406 166.709671,256.274445 164.827972,257.731659 
	C156.006073,264.563477 147.156570,271.360016 138.265518,278.101379 
	C137.611618,278.597198 136.550888,278.556458 135.773575,278.742615 
	C135.061417,276.925262 134.483261,275.449890 133.905121,273.974518 
	C134.180679,270.075623 134.456238,266.176758 135.462769,262.131775 
	C137.448059,261.345703 138.702377,260.705688 139.956696,260.065674 
	C150.051392,255.035934 160.146088,250.006195 170.616837,244.984467 
z"/>
<path fill="#4286BA" opacity="1.000000" stroke="none" 
	d="
M302.076721,393.178040 
	C298.290070,394.745880 294.503448,396.313751 290.331940,397.501495 
	C289.220917,396.426208 288.481476,395.114563 287.770599,395.129822 
	C279.172455,395.314911 270.578491,395.695801 261.613159,396.022644 
	C260.502319,396.023254 259.761780,396.026978 258.648987,396.013550 
	C255.757874,395.335754 253.606033,394.836426 250.613174,395.553864 
	C246.026337,396.653442 240.637238,396.410889 236.082794,395.065338 
	C231.717072,393.775604 229.692719,394.970154 227.853485,398.346863 
	C225.705505,397.499420 223.557541,396.651978 221.034714,395.265167 
	C220.042740,394.549957 219.425613,394.374146 218.808487,394.198334 
	C218.808487,394.198334 218.863907,394.258423 218.896042,393.879425 
	C219.605652,392.842407 220.492935,391.499451 220.928009,391.632721 
	C225.099564,392.910583 229.133713,390.998077 233.479965,391.404144 
	C245.659515,392.541962 258.062958,391.358063 270.374573,390.977570 
	C277.081360,390.770294 283.802856,389.868256 290.475708,390.179596 
	C294.357849,390.360718 299.035095,389.117157 302.076721,393.178040 
z"/>
<path fill="#4E8BBD" opacity="1.000000" stroke="none" 
	d="
M302.361633,393.173401 
	C299.035095,389.117157 294.357849,390.360718 290.475708,390.179596 
	C283.802856,389.868256 277.081360,390.770294 270.374573,390.977570 
	C258.062958,391.358063 245.659515,392.541962 233.479965,391.404144 
	C229.133713,390.998077 225.099564,392.910583 220.928009,391.632721 
	C220.492935,391.499451 219.605652,392.842407 218.855743,393.886322 
	C217.400848,393.888275 216.018372,393.504333 214.233429,392.596741 
	C213.028854,391.797394 212.226730,391.521667 211.424622,391.245941 
	C211.424622,391.245941 211.188187,391.348602 211.072601,391.292389 
	C210.737259,387.517609 213.381836,388.001068 215.699982,388.001007 
	C235.850815,388.000336 256.003723,388.163788 276.151428,387.911285 
	C283.566010,387.818390 290.966583,386.720856 298.377655,386.133453 
	C299.861938,386.015808 301.529022,385.721436 302.822113,386.236206 
	C304.940704,387.079620 306.757385,388.732330 309.059540,386.529633 
	C309.226868,386.369507 310.947174,387.832489 312.003479,388.904785 
	C312.061493,389.268707 311.827728,389.365692 311.362000,389.255676 
	C310.257233,389.654022 309.618164,390.162445 308.979095,390.670868 
	C307.891449,391.125153 306.803833,391.579407 305.248413,391.892242 
	C304.584198,391.999542 304.387726,392.248291 304.191223,392.497009 
	C303.676331,392.720917 303.161438,392.944824 302.361633,393.173401 
z"/>
<path fill="#1C7BB2" opacity="1.000000" stroke="none" 
	d="
M259.021210,396.030701 
	C259.761780,396.026978 260.502319,396.023254 261.667145,396.386230 
	C263.226410,397.477051 264.361481,398.818359 265.496460,398.818298 
	C270.368622,398.818085 275.239380,398.356079 280.114624,398.256775 
	C280.728516,398.244263 281.365845,399.383575 281.665100,400.026184 
	C280.228455,400.694580 279.118988,401.325989 278.009552,401.957397 
	C266.983185,409.272308 255.365860,409.556915 242.994385,404.280945 
	C242.055084,403.504974 241.452209,403.320709 240.849335,403.136444 
	C240.849335,403.136444 240.963516,403.097412 240.904739,402.955536 
	C240.567322,402.831512 240.288666,402.849365 240.010010,402.867249 
	C238.528381,402.335907 237.046753,401.804535 235.312256,400.665710 
	C235.654541,399.397949 236.276642,398.144745 236.840637,398.170380 
	C241.730286,398.392487 246.646027,398.597137 251.479385,399.311737 
	C254.904526,399.818176 258.034454,400.683197 259.021210,396.030701 
z"/>
<path fill="#97D8F6" opacity="1.000000" stroke="none" 
	d="
M133.647751,274.294525 
	C134.483261,275.449890 135.061417,276.925262 135.773575,278.742615 
	C136.550888,278.556458 137.611618,278.597198 138.265518,278.101379 
	C147.156570,271.360016 156.006073,264.563477 164.827972,257.731659 
	C166.709671,256.274445 168.440506,254.622406 170.590454,253.002151 
	C171.085526,259.447937 167.908600,263.655762 162.629227,267.398315 
	C154.571213,273.110657 147.217896,279.809387 139.420212,285.903503 
	C137.965378,287.040497 135.827927,287.304016 133.645004,287.957703 
	C133.319809,283.501373 133.355103,279.057953 133.647751,274.294525 
z"/>
<path fill="#BDE4F8" opacity="1.000000" stroke="none" 
	d="
M139.942825,304.134644 
	C138.255905,304.090546 136.568970,304.046448 134.461426,304.004211 
	C133.707764,302.261261 133.374710,300.516449 133.081665,298.363556 
	C134.239456,297.784729 135.649048,297.989594 136.428833,297.383789 
	C142.596390,292.592194 148.618378,287.613922 154.737030,282.758453 
	C159.065765,279.323334 163.475449,275.990173 168.830811,271.853027 
	C169.097275,275.349579 169.330002,278.403320 168.916885,281.734436 
	C167.476654,282.201385 166.510971,282.164001 165.913681,282.614777 
	C157.322052,289.099030 148.769272,295.635162 140.261810,302.229309 
	C139.887863,302.519165 140.037231,303.484131 139.942825,304.134644 
z"/>
<path fill="#6AB7E1" opacity="1.000000" stroke="none" 
	d="
M191.080536,382.824646 
	C191.071899,382.991180 191.063263,383.157745 191.048172,383.573792 
	C188.455002,381.020844 185.629044,378.399841 183.335159,375.375275 
	C179.469543,370.278381 175.941452,364.925507 172.176056,359.057739 
	C172.917114,358.422699 174.016708,358.070770 174.533096,358.471100 
	C175.495361,359.217194 175.980576,360.556610 176.906158,361.375763 
	C181.121262,365.105988 185.386169,368.782501 189.717209,372.377045 
	C190.630768,373.135254 191.897705,373.467712 193.220184,374.255402 
	C194.316071,374.686951 195.193604,374.859436 196.004150,375.365997 
	C194.318283,378.074951 192.699402,380.449799 191.080536,382.824646 
z"/>
<path fill="#73BCE6" opacity="1.000000" stroke="none" 
	d="
M193.001831,373.996338 
	C191.897705,373.467712 190.630768,373.135254 189.717209,372.377045 
	C185.386169,368.782501 181.121262,365.105988 176.906158,361.375763 
	C175.980576,360.556610 175.495361,359.217194 174.533096,358.471100 
	C174.016708,358.070770 172.917114,358.422699 172.016739,358.762756 
	C170.060944,356.600189 168.169098,354.110046 166.167679,351.300201 
	C166.712402,349.890717 167.366699,348.800934 168.370193,347.409424 
	C171.562607,349.250122 174.587982,351.193817 177.199890,353.588470 
	C180.047440,356.199127 182.383286,359.361664 185.175293,362.040680 
	C188.728638,365.450195 192.826981,368.410797 193.001831,373.996338 
z"/>
<path fill="#2D7DB4" opacity="1.000000" stroke="none" 
	d="
M258.648987,396.013550 
	C258.034454,400.683197 254.904526,399.818176 251.479385,399.311737 
	C246.646027,398.597137 241.730286,398.392487 236.840637,398.170380 
	C236.276642,398.144745 235.654541,399.397949 235.037170,400.460876 
	C232.792297,400.190521 230.569672,399.517578 228.100266,398.595703 
	C229.692719,394.970154 231.717072,393.775604 236.082794,395.065338 
	C240.637238,396.410889 246.026337,396.653442 250.613174,395.553864 
	C253.606033,394.836426 255.757874,395.335754 258.648987,396.013550 
z"/>
<path fill="#2D7DB4" opacity="1.000000" stroke="none" 
	d="
M281.992310,399.989197 
	C281.365845,399.383575 280.728516,398.244263 280.114624,398.256775 
	C275.239380,398.356079 270.368622,398.818085 265.496460,398.818298 
	C264.361481,398.818359 263.226410,397.477051 262.037415,396.389343 
	C270.578491,395.695801 279.172455,395.314911 287.770599,395.129822 
	C288.481476,395.114563 289.220917,396.426208 289.965759,397.500946 
	C289.438599,398.109436 288.892670,398.338348 287.750488,398.429382 
	C286.753784,398.677612 286.353333,399.063660 285.952881,399.449707 
	C285.604340,399.657684 285.255798,399.865631 284.218689,400.053528 
	C283.017548,400.018738 282.504913,400.003967 281.992310,399.989197 
z"/>
<path fill="#32A8D7" opacity="1.000000" stroke="none" 
	d="
M139.958832,259.638489 
	C138.702377,260.705688 137.448059,261.345703 135.810791,261.983887 
	C136.600601,260.297333 137.773346,258.612518 139.254913,256.805695 
	C139.696136,257.526215 139.828552,258.368744 139.958832,259.638489 
z"/>
<path fill="#32A8D7" opacity="1.000000" stroke="none" 
	d="
M183.528549,198.983154 
	C182.618011,200.792389 181.403534,202.743896 179.814850,204.723709 
	C180.701981,202.876495 181.963287,201.000977 183.528549,198.983154 
z"/>
<path fill="#4286BA" opacity="1.000000" stroke="none" 
	d="
M281.665100,400.026184 
	C282.504913,400.003967 283.017548,400.018738 283.912964,400.085571 
	C282.449219,400.796265 280.602661,401.454895 278.382812,402.035461 
	C279.118988,401.325989 280.228455,400.694580 281.665100,400.026184 
z"/>
<path fill="#32A8D7" opacity="1.000000" stroke="none" 
	d="
M141.768356,253.224579 
	C141.488998,254.293716 140.901016,255.463165 139.955276,256.643768 
	C140.218262,255.544907 140.839005,254.434921 141.768356,253.224579 
z"/>
<path fill="#32A8D7" opacity="1.000000" stroke="none" 
	d="
M197.602829,180.965088 
	C197.226181,181.908966 196.548004,182.932602 195.542267,184.000626 
	C195.910233,183.044952 196.605774,182.044907 197.602829,180.965088 
z"/>
<path fill="#5B94C3" opacity="1.000000" stroke="none" 
	d="
M328.411987,383.246887 
	C328.042511,382.740875 328.036285,382.260956 328.038849,381.423309 
	C328.870636,381.062317 329.693695,381.059113 330.930298,381.100311 
	C330.487701,381.854187 329.631500,382.563629 328.411987,383.246887 
z"/>
<path fill="#32A8D7" opacity="1.000000" stroke="none" 
	d="
M163.596436,224.983337 
	C163.384521,225.836517 162.856247,226.781998 161.982895,227.790039 
	C162.185226,226.926941 162.732651,226.001312 163.596436,224.983337 
z"/>
<path fill="#32A8D7" opacity="1.000000" stroke="none" 
	d="
M173.605255,211.943024 
	C173.413208,212.787994 172.909348,213.732422 172.064453,214.744843 
	C172.246750,213.889389 172.770081,212.965942 173.605255,211.943024 
z"/>
<path fill="#32A8D7" opacity="1.000000" stroke="none" 
	d="
M185.728363,196.137268 
	C185.524612,196.973648 185.028137,197.918259 184.174316,198.852081 
	C184.356537,197.976013 184.896103,197.110764 185.728363,196.137268 
z"/>
<path fill="#32A8D7" opacity="1.000000" stroke="none" 
	d="
M147.540466,245.930054 
	C147.311493,246.793823 146.767075,247.750885 145.859711,248.736099 
	C146.072861,247.850632 146.648941,246.936996 147.540466,245.930054 
z"/>
<path fill="#32A8D7" opacity="1.000000" stroke="none" 
	d="
M187.558350,193.832977 
	C187.469818,194.451584 187.089462,195.186707 186.369598,195.970428 
	C186.442230,195.329193 186.854385,194.639343 187.558350,193.832977 
z"/>
<path fill="#32A8D7" opacity="1.000000" stroke="none" 
	d="
M171.460129,214.847351 
	C171.388016,215.471756 171.026184,216.191772 170.324890,216.947266 
	C170.380432,216.302826 170.775421,215.622894 171.460129,214.847351 
z"/>
<path fill="#32A8D7" opacity="1.000000" stroke="none" 
	d="
M143.615356,250.920258 
	C143.533829,251.537964 143.154175,252.245682 142.451538,253.011307 
	C142.524780,252.382904 142.921021,251.696579 143.615356,250.920258 
z"/>
<path fill="#32A8D7" opacity="1.000000" stroke="none" 
	d="
M150.583771,241.893326 
	C150.497787,242.491623 150.127853,243.210663 149.428741,243.989532 
	C149.499619,243.370926 149.899719,242.692505 150.583771,241.893326 
z"/>
<path fill="#32A8D7" opacity="1.000000" stroke="none" 
	d="
M153.622375,237.930939 
	C153.542206,238.531113 153.171387,239.227783 152.482147,239.976288 
	C152.553055,239.361221 152.942383,238.694336 153.622375,237.930939 
z"/>
<path fill="#32A8D7" opacity="1.000000" stroke="none" 
	d="
M160.581329,228.863495 
	C160.497742,229.472885 160.123062,230.192810 159.417694,230.968185 
	C159.488068,230.340424 159.889145,229.657227 160.581329,228.863495 
z"/>
<path fill="#5B94C3" opacity="1.000000" stroke="none" 
	d="
M211.594299,391.520538 
	C212.226730,391.521667 213.028854,391.797394 213.924194,392.402435 
	C213.266281,392.419556 212.515137,392.107330 211.594299,391.520538 
z"/>
<path fill="#32A8D7" opacity="1.000000" stroke="none" 
	d="
M177.514603,206.883270 
	C177.437424,207.506851 177.068481,208.220566 176.367371,208.978012 
	C176.431076,208.338959 176.826950,207.656189 177.514603,206.883270 
z"/>
<path fill="#5B94C3" opacity="1.000000" stroke="none" 
	d="
M309.296570,390.701447 
	C309.618164,390.162445 310.257233,389.654022 311.247070,389.202759 
	C310.936554,389.750580 310.275330,390.241302 309.296570,390.701447 
z"/>
<path fill="#32A8D7" opacity="1.000000" stroke="none" 
	d="
M157.527573,232.883331 
	C157.456421,233.509933 157.084290,234.214294 156.385468,234.969360 
	C156.448029,234.333740 156.837311,233.647400 157.527573,232.883331 
z"/>
<path fill="#73BCE6" opacity="1.000000" stroke="none" 
	d="
M163.785065,347.377686 
	C164.115082,347.540588 164.519867,348.005219 164.933121,348.803070 
	C164.580994,348.650665 164.220398,348.165070 163.785065,347.377686 
z"/>
<path fill="#32A8D7" opacity="1.000000" stroke="none" 
	d="
M198.831024,179.294281 
	C198.856354,179.668869 198.641815,180.195557 198.150238,180.827927 
	C198.112503,180.437851 198.351837,179.942123 198.831024,179.294281 
z"/>
<path fill="#32A8D7" opacity="1.000000" stroke="none" 
	d="
M189.717651,191.114532 
	C189.741333,191.563507 189.481171,192.132553 188.894638,192.764374 
	C188.856781,192.296295 189.145309,191.765457 189.717651,191.114532 
z"/>
<path fill="#32A8D7" opacity="1.000000" stroke="none" 
	d="
M191.790161,188.249069 
	C191.843658,188.680954 191.613480,189.201080 191.108231,189.829514 
	C191.057602,189.404327 191.282043,188.870804 191.790161,188.249069 
z"/>
<path fill="#32A8D7" opacity="1.000000" stroke="none" 
	d="
M167.805832,219.372711 
	C167.860779,219.782547 167.641220,220.272232 167.168060,220.879517 
	C167.120071,220.482269 167.325699,219.967422 167.805832,219.372711 
z"/>
<path fill="#4E8BBD" opacity="1.000000" stroke="none" 
	d="
M218.973679,394.467957 
	C219.425613,394.374146 220.042740,394.549957 220.781158,395.043304 
	C220.314575,395.153046 219.726715,394.945282 218.973679,394.467957 
z"/>
<path fill="#4286BA" opacity="1.000000" stroke="none" 
	d="
M286.232086,399.470947 
	C286.353333,399.063660 286.753784,398.677612 287.453613,398.373352 
	C287.339081,398.800873 286.925171,399.146515 286.232086,399.470947 
z"/>
<path fill="#2D7DB4" opacity="1.000000" stroke="none" 
	d="
M241.010529,403.400635 
	C241.452209,403.320709 242.055084,403.504974 242.782043,403.995850 
	C242.328003,404.089874 241.749863,403.877350 241.010529,403.400635 
z"/>
<path fill="#32A8D7" opacity="1.000000" stroke="none" 
	d="
M169.692093,217.099487 
	C169.723206,217.557358 169.464523,218.127823 168.880081,218.763657 
	C168.836975,218.290039 169.119629,217.751053 169.692093,217.099487 
z"/>
<path fill="#32A8D7" opacity="1.000000" stroke="none" 
	d="
M166.412476,221.516205 
	C166.391571,221.915558 166.091461,222.424362 165.471664,222.983917 
	C165.479080,222.565002 165.806168,222.095337 166.412476,221.516205 
z"/>
<path fill="#32A8D7" opacity="1.000000" stroke="none" 
	d="
M148.794556,244.227570 
	C148.838440,244.639038 148.615265,245.171936 148.105530,245.801331 
	C148.055130,245.381546 148.291306,244.865280 148.794556,244.227570 
z"/>
<path fill="#5B94C3" opacity="1.000000" stroke="none" 
	d="
M304.417542,392.444275 
	C304.387726,392.248291 304.584198,391.999542 304.895935,391.928772 
	C305.011169,392.106720 304.643890,392.391571 304.417542,392.444275 
z"/>
<path fill="#32A8D7" opacity="1.000000" stroke="none" 
	d="
M155.507111,235.676300 
	C155.602814,235.918930 155.425934,236.300400 154.927551,236.759109 
	C154.815536,236.495941 155.025040,236.155533 155.507111,235.676300 
z"/>
<path fill="#2D7DB4" opacity="1.000000" stroke="none" 
	d="
M240.202667,403.020996 
	C240.288666,402.849365 240.567322,402.831512 240.866989,403.002594 
	C240.888016,403.191528 240.395325,403.174774 240.202667,403.020996 
z"/>
<path fill="#32A8D7" opacity="1.000000" stroke="none" 
	d="
M158.542984,231.725464 
	C158.654449,231.950668 158.515289,232.312866 158.087952,232.770874 
	C157.963959,232.531937 158.128159,232.197205 158.542984,231.725464 
z"/>
<path fill="#32A8D7" opacity="1.000000" stroke="none" 
	d="
M164.564148,223.760468 
	C164.681183,223.974350 164.553696,224.333374 164.155640,224.813507 
	C164.029907,224.591644 164.174774,224.248627 164.564148,223.760468 
z"/>
<path fill="#32A8D7" opacity="1.000000" stroke="none" 
	d="
M178.562546,205.744507 
	C178.671326,205.978363 178.517212,206.329559 178.075897,206.767960 
	C177.959000,206.524063 178.129333,206.192963 178.562546,205.744507 
z"/>
<path fill="#32A8D7" opacity="1.000000" stroke="none" 
	d="
M175.773438,209.086380 
	C175.979385,209.355606 175.833084,209.615463 175.374420,209.914825 
	C175.289124,209.722351 175.408829,209.429916 175.773438,209.086380 
z"/>
<path fill="#A8DFF7" opacity="1.000000" stroke="none" 
	d="
M348.944092,246.536026 
	C349.077393,265.738220 349.085480,284.648834 348.956329,303.558533 
	C348.944031,305.356110 348.072723,307.147797 346.846558,309.022675 
	C344.484985,308.622375 342.877167,308.141632 341.104797,307.479492 
	C340.683807,307.077423 340.388153,306.942963 339.787720,306.828369 
	C339.158691,306.738525 338.795288,306.714996 338.254578,306.383423 
	C336.066437,305.322571 334.055634,304.569763 331.859131,303.589417 
	C331.120178,303.184723 330.566956,303.007629 329.958160,302.514099 
	C328.601715,301.466522 327.300873,300.735413 325.754333,299.735779 
	C320.838654,297.842438 319.190826,301.319397 317.016846,304.275757 
	C313.104248,309.596588 308.955353,314.743713 304.900818,319.531738 
	C304.982697,317.089417 305.068970,315.078796 305.458496,312.995178 
	C305.845856,311.948517 305.929962,310.974823 306.013031,309.673706 
	C306.029724,308.910065 306.047485,308.473846 306.427368,308.023834 
	C308.684357,306.354431 311.123810,305.032379 312.378082,302.984406 
	C317.329773,294.899658 317.135956,294.675537 308.010132,291.756592 
	C307.976135,291.537445 307.935364,291.095825 307.792114,290.829620 
	C307.087189,290.405731 306.525513,290.248016 305.911682,289.921936 
	C305.859497,289.753540 305.995178,289.428070 305.995178,289.428070 
	C307.007080,267.591248 308.018982,245.754425 309.071350,223.043945 
	C313.349396,225.370804 317.088989,227.346024 320.772858,229.420319 
	C329.291290,234.216843 337.795776,239.038712 346.267120,243.917618 
	C347.231781,244.473190 347.949005,245.458282 348.944092,246.536026 
z"/>
<path fill="#00AFEE" opacity="1.000000" stroke="none" 
	d="
M244.002411,228.000946 
	C244.712082,222.759171 245.320618,217.501328 246.150803,212.278732 
	C248.435333,197.907043 250.871338,183.559357 253.137482,169.184845 
	C255.531021,154.002274 257.793671,138.799057 260.140259,123.609001 
	C260.207947,123.170822 260.577911,122.779343 261.201538,121.654068 
	C262.514496,122.804649 264.096497,123.560837 264.671417,124.788605 
	C274.546539,145.877853 284.286499,167.030319 294.081543,188.157135 
	C297.348816,195.204300 300.687225,202.218506 303.636536,209.556335 
	C298.845612,205.402359 293.753937,206.529068 288.632782,208.186157 
	C278.223083,211.554520 267.958923,215.497284 257.367584,218.126999 
	C252.070923,219.442093 248.107986,221.000748 246.216660,226.336227 
	C245.959518,227.061615 244.763641,227.454239 244.002411,228.000946 
z"/>
<path fill="#F8FBFB" opacity="1.000000" stroke="none" 
	d="
M307.935364,291.095825 
	C307.935364,291.095825 307.976135,291.537445 307.990112,292.182495 
	C307.357788,297.897614 306.711517,302.967621 306.065247,308.037659 
	C306.047485,308.473846 306.029724,308.910065 305.753845,309.890320 
	C305.382263,311.312286 305.268738,312.190247 305.155212,313.068176 
	C305.068970,315.078796 304.982697,317.089417 304.655212,319.822815 
	C304.255951,322.361908 304.097931,324.178223 303.712128,326.193390 
	C303.460358,326.971039 303.436371,327.549805 303.336182,328.524628 
	C303.212219,330.265411 303.164459,331.610107 302.942322,333.250061 
	C302.640411,334.413574 302.512909,335.281860 302.302856,336.544006 
	C302.264008,338.003571 302.307678,339.069305 302.259277,340.483978 
	C302.140717,341.551453 302.114136,342.269989 302.003296,343.225342 
	C301.919800,343.629730 301.920593,343.797333 301.706909,344.253204 
	C301.502960,345.728455 301.513519,346.915436 301.524048,348.102386 
	C301.388184,348.517822 301.252289,348.933289 300.764587,349.521759 
	C299.012299,348.720856 297.611847,347.746948 296.089600,346.593872 
	C295.786072,346.172882 295.546722,346.023010 295.148560,345.677338 
	C294.447144,344.895447 293.846954,344.401306 293.111389,343.660034 
	C292.688721,343.174866 292.401428,342.936890 292.042297,342.512726 
	C291.818512,342.090149 291.605988,341.938660 291.183167,341.622192 
	C290.735687,341.124878 290.437988,340.877533 290.079041,340.344971 
	C289.334839,339.430145 288.651917,338.800476 287.780396,337.917908 
	C286.716614,336.803040 285.841431,335.941071 284.853577,334.811035 
	C284.263428,334.235565 283.786011,333.928131 283.172424,333.320435 
	C280.689392,330.687103 278.342499,328.354004 275.997131,326.008881 
	C275.998688,325.996826 275.976807,326.000153 275.907562,325.760925 
	C275.630646,325.241058 275.355927,325.065155 274.911591,324.732819 
	C274.362488,324.185577 273.915924,323.899506 273.456482,323.622314 
	C273.443542,323.631195 273.417633,323.648895 273.373474,323.361877 
	C272.884491,322.731812 272.439636,322.388702 271.868927,321.734131 
	C267.497864,317.300262 263.252686,313.177856 259.014282,308.622375 
	C259.003418,306.455963 258.985779,304.722626 258.977325,302.527466 
	C259.331024,289.611572 259.607513,277.154785 260.102753,264.706726 
	C260.167480,263.080078 261.355957,261.498169 262.023956,259.895538 
	C263.650696,260.944061 265.277466,261.992615 267.144440,263.638428 
	C267.781097,264.359985 268.177521,264.484314 268.573944,264.608643 
	C279.261017,271.873871 289.942291,279.147736 300.641846,286.394531 
	C302.141998,287.410583 303.731903,288.294128 305.637695,289.333557 
	C305.995178,289.428070 305.859497,289.753540 306.095093,290.142639 
	C306.865570,290.719757 307.400452,290.907806 307.935364,291.095825 
z"/>
<path fill="#01B8EF" opacity="1.000000" stroke="none" 
	d="
M243.989197,228.399567 
	C244.763641,227.454239 245.959518,227.061615 246.216660,226.336227 
	C248.107986,221.000748 252.070923,219.442093 257.367584,218.126999 
	C267.958923,215.497284 278.223083,211.554520 288.632782,208.186157 
	C293.753937,206.529068 298.845612,205.402359 303.643005,209.930847 
	C303.536346,214.585327 303.077942,219.175079 302.590240,223.761703 
	C302.434082,225.230698 302.200562,226.691452 301.616577,228.586609 
	C296.031036,230.977051 290.896790,233.138474 285.617432,234.853180 
	C275.786194,238.046326 265.870483,240.979401 255.989929,244.020721 
	C252.223877,241.715805 247.938934,239.927505 244.911697,236.886993 
	C243.408310,235.376999 244.214584,231.567444 243.989197,228.399567 
z"/>
<path fill="#F7FBFB" opacity="1.000000" stroke="none" 
	d="
M211.011627,292.006775 
	C211.196701,292.026611 211.381760,292.046417 212.065109,291.828827 
	C212.705460,291.015228 212.847534,290.438995 212.989594,289.862762 
	C212.989594,289.862762 213.261520,289.627228 213.772430,289.736847 
	C214.518860,289.884857 214.754364,289.923248 215.189331,290.237427 
	C216.452957,291.728271 217.849289,292.783356 218.525009,294.185669 
	C221.819366,301.022217 224.641373,308.099335 228.180954,314.800598 
	C230.934875,320.014435 231.294250,326.717407 237.047562,330.362091 
	C236.231461,331.698639 235.568710,332.749817 234.620392,333.950745 
	C233.203125,335.353119 232.071442,336.605713 230.647461,337.992035 
	C229.204361,339.373962 228.053543,340.622162 226.613342,342.024475 
	C224.571060,343.495148 222.818161,344.811646 220.888550,345.855835 
	C219.547043,344.719025 218.382263,343.854553 217.152771,342.548309 
	C216.134476,333.747589 215.180878,325.388702 214.420166,316.858643 
	C214.404694,316.130402 214.196335,315.573242 213.916779,314.602875 
	C213.253769,309.120789 212.661972,304.051971 212.305695,298.826630 
	C212.684174,298.129761 212.827133,297.589417 212.909912,296.850525 
	C212.725677,296.398987 212.544815,296.196869 212.130035,295.959686 
	C211.952942,295.873810 211.566177,295.800537 211.459717,295.431763 
	C211.239380,294.044250 211.125504,293.025513 211.011627,292.006775 
z"/>
<path fill="#C5E8F8" opacity="1.000000" stroke="none" 
	d="
M261.811707,259.587433 
	C261.355957,261.498169 260.167480,263.080078 260.102753,264.706726 
	C259.607513,277.154785 259.331024,289.611572 258.633484,302.568909 
	C256.732330,302.465790 254.405777,302.302002 253.767151,301.178650 
	C250.517899,295.463348 247.704391,289.500305 244.741013,283.622620 
	C243.340454,280.844727 241.945877,278.063782 240.227432,274.645325 
	C239.550720,274.677856 237.630539,274.770172 235.710358,274.862488 
	C242.927979,269.759003 250.097900,264.584961 257.418610,259.633850 
	C258.429688,258.950012 260.187378,259.370209 261.811707,259.587433 
z"/>
<path fill="#DFF1FB" opacity="1.000000" stroke="none" 
	d="
M221.769012,284.374329 
	C224.247452,282.542450 226.725891,280.710541 229.722992,279.104126 
	C234.960953,280.671539 234.462616,285.480377 235.852524,288.674622 
	C240.053085,298.328156 248.707870,306.250092 247.728088,318.001770 
	C247.704010,318.290710 248.415497,318.640991 248.696274,319.270294 
	C247.012665,321.041473 245.416687,322.505005 243.442963,323.983887 
	C238.480530,322.510193 241.276367,315.068054 235.448669,314.454346 
	C235.286652,314.437286 235.245193,312.639374 235.267563,311.674652 
	C235.293304,310.563599 235.927460,309.192017 235.480530,308.387115 
	C231.006424,300.329346 226.363998,292.364990 221.769012,284.374329 
z"/>
<path fill="#D2EDFA" opacity="1.000000" stroke="none" 
	d="
M248.783920,318.962646 
	C248.415497,318.640991 247.704010,318.290710 247.728088,318.001770 
	C248.707870,306.250092 240.053085,298.328156 235.852524,288.674622 
	C234.462616,285.480377 234.960953,280.671539 230.060852,279.023804 
	C231.611176,277.469910 233.342316,276.221832 235.391907,274.918121 
	C237.630539,274.770172 239.550720,274.677856 240.227432,274.645325 
	C241.945877,278.063782 243.340454,280.844727 244.741013,283.622620 
	C247.704391,289.500305 250.517899,295.463348 253.767151,301.178650 
	C254.405777,302.302002 256.732330,302.465790 258.624268,303.030701 
	C258.985779,304.722626 259.003418,306.455963 258.851746,308.906494 
	C256.409607,311.739899 254.136826,313.856140 251.673523,316.083374 
	C251.247284,316.383881 251.078796,316.621216 250.849365,317.190308 
	C250.075424,317.970428 249.429672,318.466553 248.783920,318.962646 
z"/>
<path fill="#ECF7FB" opacity="1.000000" stroke="none" 
	d="
M221.446671,284.456024 
	C226.363998,292.364990 231.006424,300.329346 235.480530,308.387115 
	C235.927460,309.192017 235.293304,310.563599 235.267563,311.674652 
	C235.245193,312.639374 235.286652,314.437286 235.448669,314.454346 
	C241.276367,315.068054 238.480530,322.510193 243.480072,324.192657 
	C243.894913,324.386078 243.875519,324.809662 243.592865,324.885315 
	C242.831055,325.286835 242.351898,325.612762 241.581528,325.955994 
	C240.862411,326.318390 240.434494,326.663513 240.001862,327.254700 
	C239.997147,327.500824 239.990341,327.993103 239.724396,328.124817 
	C238.995346,328.877136 238.532242,329.497711 237.852417,330.099243 
	C237.635666,330.080231 237.200912,330.076752 237.200912,330.076752 
	C231.294250,326.717407 230.934875,320.014435 228.180954,314.800598 
	C224.641373,308.099335 221.819366,301.022217 218.525009,294.185669 
	C217.849289,292.783356 216.452957,291.728271 215.220428,289.985596 
	C215.090469,289.122437 215.128830,288.786896 215.167206,288.451324 
	C215.455536,288.262695 215.743866,288.074066 216.648102,287.881470 
	C217.850555,287.276459 218.437119,286.675415 219.023651,286.074341 
	C219.723877,285.562134 220.424103,285.049927 221.446671,284.456024 
z"/>
<path fill="#23C0F1" opacity="1.000000" stroke="none" 
	d="
M269.827789,252.055450 
	C267.351807,250.883316 264.875854,249.711182 262.533630,248.118958 
	C265.619385,246.717972 268.570465,245.734299 271.523560,244.756714 
	C281.333435,241.509293 291.144043,238.264053 300.954407,235.018005 
	C300.407349,238.108810 299.860260,241.199600 298.784180,244.603333 
	C296.825104,244.790665 295.268860,244.234009 293.985504,244.609634 
	C285.899200,246.976334 277.873505,249.550095 269.827789,252.055450 
z"/>
<path fill="#12BEF0" opacity="1.000000" stroke="none" 
	d="
M301.014709,234.639038 
	C291.144043,238.264053 281.333435,241.509293 271.523560,244.756714 
	C268.570465,245.734299 265.619385,246.717972 262.329956,247.851776 
	C260.123047,246.851929 258.253510,245.699127 256.186951,244.283539 
	C265.870483,240.979401 275.786194,238.046326 285.617432,234.853180 
	C290.896790,233.138474 296.031036,230.977051 301.607788,229.014099 
	C301.681549,230.760681 301.378265,232.510361 301.014709,234.639038 
z"/>
<path fill="#83C3EB" opacity="1.000000" stroke="none" 
	d="
M249.000854,150.998581 
	C248.951462,151.740433 248.902069,152.482300 248.395782,153.598206 
	C244.539139,154.213425 241.139374,154.454559 237.266388,154.729263 
	C237.185623,153.922653 237.026688,152.335236 236.867737,150.747818 
	C242.644302,141.792404 248.420853,132.836990 254.197418,123.881577 
	C254.838501,124.145470 255.479584,124.409363 256.120667,124.673256 
	C254.439957,130.862701 252.759232,137.052139 250.753342,143.838226 
	C249.952393,146.622772 249.476624,148.810684 249.000854,150.998581 
z"/>
<path fill="#0CA3DD" opacity="1.000000" stroke="none" 
	d="
M237.989838,198.986725 
	C236.672165,204.474350 232.013290,204.477875 227.840210,204.954132 
	C219.686768,205.884613 211.510178,206.626541 203.331299,207.302994 
	C202.222885,207.394653 200.779037,206.939056 200.002335,206.199417 
	C199.546448,205.765274 199.883682,204.180664 200.253311,203.271790 
	C200.806839,201.910690 201.702698,200.688797 203.096313,199.248978 
	C205.797272,199.664062 207.878281,200.800079 209.908447,200.715485 
	C219.276672,200.325211 228.630707,199.595047 237.989838,198.986725 
z"/>
<path fill="#62B6E5" opacity="1.000000" stroke="none" 
	d="
M221.770325,172.930313 
	C223.570801,170.039429 225.371277,167.148544 227.808807,164.224182 
	C230.157700,164.119644 231.886368,164.176025 233.578033,163.952377 
	C237.785385,163.396118 241.975876,162.712234 246.173126,162.079590 
	C245.131119,166.129745 244.089111,170.179886 242.637650,174.542877 
	C240.273026,174.216187 238.360336,173.304062 236.354218,172.991287 
	C231.516449,172.236984 226.632828,176.427933 221.770325,172.930313 
z"/>
<path fill="#51B1E2" opacity="1.000000" stroke="none" 
	d="
M221.453217,173.001236 
	C226.632828,176.427933 231.516449,172.236984 236.354218,172.991287 
	C238.360336,173.304062 240.273026,174.216187 242.561005,174.911407 
	C242.920959,175.719940 242.948090,176.472809 242.592346,177.686539 
	C240.656769,179.102997 239.212463,180.541245 237.530029,180.919006 
	C233.347504,181.858124 229.056763,182.794327 224.808777,182.797607 
	C221.888748,182.799850 218.089798,185.091248 215.918503,180.938446 
	C215.918503,180.938446 215.931686,180.959579 216.175110,180.848358 
	C216.582565,180.447098 216.746628,180.157059 216.910675,179.867035 
	C218.319138,177.602066 219.727600,175.337112 221.453217,173.001236 
z"/>
<path fill="#3FADE0" opacity="1.000000" stroke="none" 
	d="
M215.582718,181.008041 
	C218.089798,185.091248 221.888748,182.799850 224.808777,182.797607 
	C229.056763,182.794327 233.347504,181.858124 237.530029,180.919006 
	C239.212463,180.541245 240.656769,179.102997 242.562744,178.062042 
	C242.276794,180.715530 241.637558,183.454391 240.556763,186.595764 
	C236.369095,187.335663 232.614639,187.600677 228.879272,188.031296 
	C225.315048,188.442200 221.367828,188.220078 218.322617,189.743103 
	C214.753311,191.528229 212.875504,190.704102 210.916489,187.968018 
	C212.359970,185.671219 213.803452,183.374435 215.582718,181.008041 
z"/>
<path fill="#37C4F2" opacity="1.000000" stroke="none" 
	d="
M269.914154,252.396332 
	C277.873505,249.550095 285.899200,246.976334 293.985504,244.609634 
	C295.268860,244.234009 296.825104,244.790665 298.621826,244.962646 
	C298.698059,246.760300 298.407654,248.511597 297.646576,250.636353 
	C291.101044,253.694153 285.026184,256.378540 278.951324,259.062927 
	C275.967712,256.954376 272.984131,254.845810 269.914154,252.396332 
z"/>
<path fill="#2DAADF" opacity="1.000000" stroke="none" 
	d="
M210.581451,188.041321 
	C212.875504,190.704102 214.753311,191.528229 218.322617,189.743103 
	C221.367828,188.220078 225.315048,188.442200 228.879272,188.031296 
	C232.614639,187.600677 236.369095,187.335663 240.538223,186.990784 
	C240.339157,188.752625 239.717072,190.521942 238.614685,192.645660 
	C229.290085,193.666718 220.449753,194.397949 211.597763,194.938248 
	C210.074371,195.031219 208.501434,194.312180 206.951385,193.968231 
	C208.049728,192.017029 209.148056,190.065842 210.581451,188.041321 
z"/>
<path fill="#1DA7DE" opacity="1.000000" stroke="none" 
	d="
M206.604004,194.019669 
	C208.501434,194.312180 210.074371,195.031219 211.597763,194.938248 
	C220.449753,194.397949 229.290085,193.666718 238.568390,193.000641 
	C238.672073,194.741364 238.341736,196.481522 238.000610,198.604202 
	C228.630707,199.595047 219.276672,200.325211 209.908447,200.715485 
	C207.878281,200.800079 205.797272,199.664062 203.363312,199.045212 
	C204.076828,197.357162 205.166718,195.714142 206.604004,194.019669 
z"/>
<path fill="#73BCE8" opacity="1.000000" stroke="none" 
	d="
M246.400131,161.813477 
	C241.975876,162.712234 237.785385,163.396118 233.578033,163.952377 
	C231.886368,164.176025 230.157700,164.119644 228.081879,164.038620 
	C230.554352,159.587265 233.390823,155.288025 236.547516,150.868286 
	C237.026688,152.335236 237.185623,153.922653 237.266388,154.729263 
	C241.139374,154.454559 244.539139,154.213425 248.304138,153.959122 
	C247.988617,156.479767 247.307877,159.013565 246.400131,161.813477 
z"/>
<path fill="#49C6F2" opacity="1.000000" stroke="none" 
	d="
M279.160095,259.309509 
	C285.026184,256.378540 291.101044,253.694153 297.572632,251.010773 
	C297.615295,253.086319 297.261261,255.160858 296.476288,257.636047 
	C292.100037,258.491425 288.145966,258.887451 284.219940,259.471832 
	C283.702484,259.548889 283.328186,260.587646 282.887573,261.181030 
	C281.714691,260.639404 280.541779,260.097778 279.160095,259.309509 
z"/>
<path fill="#56C9F3" opacity="1.000000" stroke="none" 
	d="
M282.985168,261.497559 
	C283.328186,260.587646 283.702484,259.548889 284.219940,259.471832 
	C288.145966,258.887451 292.100037,258.491425 296.425995,258.034485 
	C296.266602,261.536011 295.726532,265.039764 294.969055,269.954163 
	C290.401001,266.825836 286.741852,264.319977 282.985168,261.497559 
z"/>
<path fill="#73BCE8" opacity="1.000000" stroke="none" 
	d="
M249.263519,150.752594 
	C249.476624,148.810684 249.952393,146.622772 250.688843,144.222763 
	C250.475067,146.175964 250.000626,148.341278 249.263519,150.752594 
z"/>
<path fill="#DFF1FB" opacity="1.000000" stroke="none" 
	d="
M218.697052,286.084473 
	C218.437119,286.675415 217.850555,287.276459 216.907211,287.855286 
	C217.157089,287.253540 217.763748,286.674042 218.697052,286.084473 
z"/>
<path fill="#ECF7FB" opacity="1.000000" stroke="none" 
	d="
M212.769012,289.717773 
	C212.847534,290.438995 212.705460,291.015228 212.341980,291.792877 
	C212.095108,291.426453 212.069641,290.858643 212.041718,289.862000 
	C212.208984,289.479736 212.378723,289.526245 212.769012,289.717773 
z"/>
<path fill="#A7DFF7" opacity="1.000000" stroke="none" 
	d="
M214.901077,288.443054 
	C215.128830,288.786896 215.090469,289.122437 215.020996,289.709839 
	C214.754364,289.923248 214.518860,289.884857 213.950714,289.713135 
	C213.957062,289.198120 214.296005,288.816467 214.901077,288.443054 
z"/>
<path fill="#3FADE0" opacity="1.000000" stroke="none" 
	d="
M216.703918,180.002655 
	C216.746628,180.157059 216.582565,180.447098 216.186249,180.843140 
	C216.050842,180.622467 216.231918,180.352173 216.703918,180.002655 
z"/>
<path fill="#C5E8F8" opacity="1.000000" stroke="none" 
	d="
M268.417053,264.356934 
	C268.177521,264.484314 267.781097,264.359985 267.294495,263.919220 
	C267.556274,263.770264 267.908234,263.937744 268.417053,264.356934 
z"/>
<path fill="#0ABDEE" opacity="1.000000" stroke="none" 
	d="
M210.628052,292.028076 
	C211.125504,293.025513 211.239380,294.044250 211.298553,295.755646 
	C211.519272,297.293243 211.794708,298.138184 212.070160,298.983124 
	C212.661972,304.051971 213.253769,309.120789 213.836166,314.946472 
	C213.960266,316.145477 214.093765,316.587646 214.227264,317.029785 
	C215.180878,325.388702 216.134476,333.747589 217.079376,342.869781 
	C217.104202,344.070831 217.137726,344.508606 217.104721,345.393555 
	C217.007965,346.744446 216.977722,347.648163 216.608154,348.408997 
	C201.087570,336.206024 185.906342,324.145874 170.765366,311.728180 
	C170.813553,310.890869 170.821472,310.411072 170.829376,309.931305 
	C182.866592,304.283051 194.898132,298.622681 206.951157,293.008362 
	C207.975586,292.531219 209.143311,292.361786 210.628052,292.028076 
z"/>
<path fill="#CCEBFA" opacity="1.000000" stroke="none" 
	d="
M140.222824,304.368103 
	C140.037231,303.484131 139.887863,302.519165 140.261810,302.229309 
	C148.769272,295.635162 157.322052,289.099030 165.913681,282.614777 
	C166.510971,282.164001 167.476654,282.201385 168.645355,282.006775 
	C169.023911,285.027039 169.028152,288.052246 168.611298,291.535126 
	C166.436157,292.263336 164.292389,291.984924 162.998398,292.903534 
	C158.438980,296.140228 154.171143,299.787659 149.602127,303.431183 
	C149.927338,304.227173 150.471924,305.560120 151.016525,306.893097 
	C147.511963,306.129242 144.007401,305.365387 140.222824,304.368103 
z"/>
<path fill="#DFF1FB" opacity="1.000000" stroke="none" 
	d="
M151.390121,306.975098 
	C150.471924,305.560120 149.927338,304.227173 149.602127,303.431183 
	C154.171143,299.787659 158.438980,296.140228 162.998398,292.903534 
	C164.292389,291.984924 166.436157,292.263336 168.607025,291.988159 
	C169.029633,294.027893 169.035431,296.072266 168.660828,298.561584 
	C163.894684,301.215820 158.715790,302.429565 157.001724,307.992279 
	C155.255722,307.680542 153.509720,307.368805 151.390121,306.975098 
z"/>
<path fill="#ECF7FB" opacity="1.000000" stroke="none" 
	d="
M157.390869,308.030457 
	C158.715790,302.429565 163.894684,301.215820 168.652588,298.999023 
	C169.057526,302.063599 169.090286,305.135681 168.841660,308.780334 
	C167.680145,309.623260 166.800049,309.893616 165.919937,310.163971 
	C163.206635,309.465515 160.493332,308.767059 157.390869,308.030457 
z"/>
<path fill="#9CCDED" opacity="1.000000" stroke="none" 
	d="
M165.939255,310.375671 
	C166.800049,309.893616 167.680145,309.623260 168.891571,309.239868 
	C169.621124,309.333801 170.019363,309.540741 170.623505,309.839478 
	C170.821472,310.411072 170.813553,310.890869 170.438110,311.714050 
	C169.412872,312.059296 168.755157,312.061127 167.906891,311.820984 
	C167.143982,311.389496 166.571625,311.200012 165.999283,311.010529 
	C165.999283,311.010529 165.958572,310.587341 165.939255,310.375671 
z"/>
<path fill="#10BCED" opacity="1.000000" stroke="none" 
	d="
M341.269318,307.660919 
	C342.877167,308.141632 344.484985,308.622375 346.445099,309.163818 
	C347.251282,309.524902 347.705231,309.825287 348.422729,310.201111 
	C348.771790,310.948273 348.857300,311.620087 348.921875,312.633270 
	C345.565125,315.186432 342.170868,317.316040 338.911163,319.634888 
	C336.104004,321.631836 333.450226,323.844421 330.062653,325.946930 
	C329.341736,325.049683 328.945038,323.988190 329.295868,323.318115 
	C330.351776,321.301422 331.622742,319.382874 332.949158,317.525543 
	C335.249634,314.304230 337.654724,311.157654 340.336945,307.930115 
	C340.861725,307.807281 341.065521,307.734100 341.269318,307.660919 
z"/>
<path fill="#9BCBEC" opacity="1.000000" stroke="none" 
	d="
M296.211365,346.773010 
	C297.611847,347.746948 299.012299,348.720856 300.698120,349.843994 
	C301.037292,350.165039 301.091125,350.336914 301.201416,350.773438 
	C298.038757,353.579315 294.819611,356.120514 291.289764,358.370117 
	C289.878906,357.054169 288.849487,355.254211 287.665802,355.146332 
	C283.613556,354.776978 279.506897,355.030701 275.421448,354.994354 
	C262.024261,354.875275 248.627319,354.661316 235.230286,354.661530 
	C232.609024,354.661591 230.000931,355.472992 229.658661,358.959839 
	C226.812836,356.743835 224.305069,354.576477 221.903351,352.011780 
	C222.756546,351.072083 223.491333,350.080963 224.252869,350.059967 
	C229.254700,349.922089 234.262268,349.997437 239.267975,349.995941 
	C257.376709,349.990540 275.485809,350.019836 293.593018,349.850250 
	C294.391937,349.842804 295.173737,348.009460 296.026337,346.964050 
	C296.089142,346.901459 296.211365,346.773010 296.211365,346.773010 
z"/>
<path fill="#2AC0F0" opacity="1.000000" stroke="none" 
	d="
M340.015991,307.979736 
	C337.654724,311.157654 335.249634,314.304230 332.949158,317.525543 
	C331.622742,319.382874 330.351776,321.301422 329.295868,323.318115 
	C328.945038,323.988190 329.341736,325.049683 329.716278,325.998047 
	C325.682983,330.044250 321.340851,334.036652 316.966431,337.993225 
	C316.247253,338.643707 315.386047,339.137146 314.298279,339.476746 
	C315.344788,336.659698 316.414124,333.880249 318.073456,331.514557 
	C322.773651,324.813324 328.000732,318.464600 332.413055,311.587372 
	C334.042999,309.046844 335.189789,306.843567 338.431854,306.691467 
	C338.795288,306.714996 339.158691,306.738525 339.772095,307.099884 
	C340.020050,307.618408 340.018036,307.799072 340.015991,307.979736 
z"/>
<path fill="#56C9F3" opacity="1.000000" stroke="none" 
	d="
M302.087585,342.988525 
	C302.114136,342.269989 302.140717,341.551453 302.424500,340.497345 
	C302.681732,340.161774 303.016785,340.162872 303.251953,340.383667 
	C304.217346,340.464966 305.309265,340.585999 305.624939,340.147797 
	C313.401184,329.353638 321.139282,318.530945 328.742279,307.614502 
	C329.599396,306.383881 329.610748,304.564209 330.014282,302.970886 
	C330.014221,302.924072 330.013733,302.830505 330.013733,302.830505 
	C330.566956,303.007629 331.120178,303.184723 331.846191,303.994049 
	C331.797028,305.740692 331.899445,307.081879 331.303314,307.934845 
	C324.642151,317.466553 317.816925,326.883759 311.173401,336.427521 
	C309.533020,338.783966 308.388794,341.485809 307.016479,344.028839 
	C305.403442,345.370056 303.790375,346.711304 301.850708,348.077454 
	C301.513519,346.915436 301.502960,345.728455 301.891113,344.195679 
	C302.369385,343.751373 302.536743,343.604248 302.513702,343.562653 
	C302.399231,343.356018 302.234558,343.177155 302.087585,342.988525 
z"/>
<path fill="#43C6F2" opacity="1.000000" stroke="none" 
	d="
M307.376221,344.017548 
	C308.388794,341.485809 309.533020,338.783966 311.173401,336.427521 
	C317.816925,326.883759 324.642151,317.466553 331.303314,307.934845 
	C331.899445,307.081879 331.797028,305.740692 332.031921,304.221619 
	C334.055634,304.569763 336.066437,305.322571 338.254578,306.383423 
	C335.189789,306.843567 334.042999,309.046844 332.413055,311.587372 
	C328.000732,318.464600 322.773651,324.813324 318.073456,331.514557 
	C316.414124,333.880249 315.344788,336.659698 313.996246,339.625366 
	C311.902924,341.335724 309.819427,342.670990 307.376221,344.017548 
z"/>
<path fill="#AED4EF" opacity="1.000000" stroke="none" 
	d="
M229.996719,359.008484 
	C230.000931,355.472992 232.609024,354.661591 235.230286,354.661530 
	C248.627319,354.661316 262.024261,354.875275 275.421448,354.994354 
	C279.506897,355.030701 283.613556,354.776978 287.665802,355.146332 
	C288.849487,355.254211 289.878906,357.054169 290.975830,358.477692 
	C289.212341,360.222687 287.452087,361.568481 285.320068,362.657654 
	C283.748169,358.520630 280.612305,358.877472 277.591431,359.087952 
	C273.804565,359.351776 270.026184,359.901245 266.238617,359.958008 
	C257.427399,360.090027 248.611099,359.905212 239.800858,360.066925 
	C237.554642,360.108154 235.323364,360.963867 233.062531,361.406982 
	C233.039825,361.368622 233.011246,361.282379 232.880676,360.990021 
	C232.382019,360.508087 232.013916,360.318481 231.385132,360.088074 
	C230.748550,359.700989 230.372635,359.354736 229.996719,359.008484 
z"/>
<path fill="#BEDCF3" opacity="1.000000" stroke="none" 
	d="
M233.085220,361.445374 
	C235.323364,360.963867 237.554642,360.108154 239.800858,360.066925 
	C248.611099,359.905212 257.427399,360.090027 266.238617,359.958008 
	C270.026184,359.901245 273.804565,359.351776 277.591431,359.087952 
	C280.612305,358.877472 283.748169,358.520630 285.013062,362.787445 
	C283.613983,364.436615 282.150146,365.699371 280.180664,366.672974 
	C277.974487,365.589905 276.286224,364.140778 274.571289,364.108459 
	C263.548950,363.900909 252.520462,363.966858 241.494919,364.057556 
	C240.298904,364.067383 239.108917,364.810120 237.611664,365.106110 
	C236.547165,364.279266 235.787140,363.559204 234.893494,362.636322 
	C234.525558,362.189819 234.241470,362.041046 233.667160,361.904663 
	C233.312836,361.696564 233.199020,361.570953 233.085220,361.445374 
z"/>
<path fill="#CBE3F4" opacity="1.000000" stroke="none" 
	d="
M237.916138,365.212891 
	C239.108917,364.810120 240.298904,364.067383 241.494919,364.057556 
	C252.520462,363.966858 263.548950,363.900909 274.571289,364.108459 
	C276.286224,364.140778 277.974487,365.589905 279.853516,366.721375 
	C279.662842,367.396606 279.293732,367.734344 278.257507,368.036316 
	C276.155884,367.917297 274.716980,367.717560 273.287506,367.770569 
	C266.207855,368.032990 259.131073,368.372833 252.051682,368.642426 
	C251.608322,368.659302 251.095108,368.390198 250.709091,368.119263 
	C247.752243,366.043396 245.824265,367.720978 243.697662,369.830811 
	C241.555054,368.241821 239.735596,366.727386 237.916138,365.212891 
z"/>
<path fill="#D8EBF8" opacity="1.000000" stroke="none" 
	d="
M244.020813,369.905334 
	C245.824265,367.720978 247.752243,366.043396 250.709091,368.119263 
	C251.095108,368.390198 251.608322,368.659302 252.051682,368.642426 
	C259.131073,368.372833 266.207855,368.032990 273.287506,367.770569 
	C274.716980,367.717560 276.155884,367.917297 277.999695,368.055481 
	C276.067688,369.631165 273.726410,371.151917 270.556488,372.382996 
	C264.203156,372.063416 258.672516,371.892487 253.158890,372.125092 
	C252.082184,372.170563 251.071579,373.782410 249.716782,374.620605 
	C247.608994,373.014709 245.814896,371.460022 244.020813,369.905334 
z"/>
<path fill="#E9F3F8" opacity="1.000000" stroke="none" 
	d="
M250.030487,374.671783 
	C251.071579,373.782410 252.082184,372.170563 253.158890,372.125092 
	C258.672516,371.892487 264.203156,372.063416 270.246490,372.170227 
	C268.569794,374.849548 266.374451,377.451996 263.971741,380.302216 
	C261.803864,380.681976 259.843384,380.813965 257.285156,380.648071 
	C254.468414,378.457397 252.249451,376.564606 250.030487,374.671783 
z"/>
<path fill="#81C0E8" opacity="1.000000" stroke="none" 
	d="
M193.220184,374.255402 
	C192.826981,368.410797 188.728638,365.450195 185.175293,362.040680 
	C182.383286,359.361664 180.047440,356.199127 177.199890,353.588470 
	C174.587982,351.193817 171.562607,349.250122 168.383392,347.035583 
	C168.037613,346.525299 168.027847,346.087189 168.015549,344.989258 
	C168.011810,343.888062 168.010605,343.446747 168.009399,343.005402 
	C168.009415,343.005402 168.021103,342.516388 168.273682,342.262573 
	C168.693192,342.004913 168.860092,342.001129 169.382385,342.045105 
	C171.041687,343.215790 172.345627,344.338715 173.805862,345.596252 
	C174.606796,345.235229 175.859634,344.670502 176.507645,344.378418 
	C178.615952,347.094940 180.241806,349.507874 182.189560,351.624634 
	C185.082184,354.768280 187.996231,357.953400 191.283646,360.655548 
	C194.639954,363.414337 198.458130,365.611267 201.995667,368.320679 
	C201.400818,369.100739 200.884384,369.614380 200.061584,370.206787 
	C199.539932,370.631653 199.324646,370.977753 199.050781,371.628357 
	C198.018539,372.965881 197.044846,373.998901 196.071136,375.031921 
	C195.193604,374.859436 194.316071,374.686951 193.220184,374.255402 
z"/>
<path fill="#73BCE6" opacity="1.000000" stroke="none" 
	d="
M169.027008,341.997345 
	C168.860092,342.001129 168.693192,342.004913 168.276321,342.018005 
	C167.684250,335.349609 167.356949,328.671204 166.993866,321.994690 
	C166.808472,318.585541 166.558945,315.179871 166.168854,311.391602 
	C166.571625,311.200012 167.143982,311.389496 167.897339,312.211670 
	C168.134476,313.888550 168.190582,314.932709 168.181686,316.372864 
	C168.157883,317.830902 168.199066,318.892914 168.184998,320.369507 
	C168.139786,322.176758 168.149857,323.569458 168.136902,325.258911 
	C168.406189,326.038483 168.698502,326.521301 168.989197,327.335999 
	C168.996475,328.110229 169.005341,328.552643 169.002136,329.423645 
	C168.999130,331.566223 169.008209,333.280212 169.009613,335.431946 
	C169.010300,337.912231 169.018646,339.954773 169.027008,341.997345 
z"/>
<path fill="#73BCE6" opacity="1.000000" stroke="none" 
	d="
M167.789185,343.152405 
	C168.010605,343.446747 168.011810,343.888062 168.010529,344.660278 
	C167.861694,344.427246 167.715332,343.863342 167.789185,343.152405 
z"/>
<path fill="#067AC1" opacity="1.000000" stroke="none" 
	d="
M200.367935,370.127991 
	C200.884384,369.614380 201.400818,369.100739 201.984924,368.296906 
	C202.052612,368.006683 202.004990,367.988159 202.274048,367.880615 
	C203.037277,367.197449 203.531433,366.621826 204.313934,365.917908 
	C205.144943,364.937622 205.687622,364.085632 206.171677,363.183411 
	C206.113068,363.133179 206.258774,363.184296 206.487488,363.094788 
	C206.985565,362.801758 207.184341,362.543762 207.552444,362.002563 
	C208.961609,360.294098 210.130875,358.814453 211.294189,357.285767 
	C211.288239,357.236725 211.216797,357.304962 211.497955,357.262787 
	C212.105774,356.789764 212.432434,356.358948 213.046844,355.776825 
	C214.590469,354.135925 215.846359,352.646301 217.456406,351.113770 
	C219.139496,351.516907 220.468399,351.962982 221.797302,352.409058 
	C224.305069,354.576477 226.812836,356.743835 229.658661,358.959839 
	C230.372635,359.354736 230.748550,359.700989 231.545624,360.351807 
	C232.314957,360.865021 232.663101,361.073700 233.011246,361.282379 
	C233.011246,361.282379 233.039825,361.368622 233.062531,361.406982 
	C233.199020,361.570953 233.312836,361.696564 233.790298,362.121399 
	C234.384567,362.686310 234.675644,362.825806 235.027130,362.839142 
	C235.787140,363.559204 236.547165,364.279266 237.611664,365.106140 
	C239.735596,366.727386 241.555054,368.241821 243.697662,369.830811 
	C245.814896,371.460022 247.608994,373.014709 249.716797,374.620605 
	C252.249451,376.564606 254.468414,378.457397 256.925659,380.582336 
	C255.891678,381.534912 254.622742,382.876312 253.346649,382.883118 
	C232.899017,382.992615 212.450470,382.931885 191.541321,382.867279 
	C192.699402,380.449799 194.318283,378.074951 196.004150,375.366028 
	C197.044846,373.998901 198.018539,372.965881 199.302124,371.475647 
	C199.863998,370.721619 200.115967,370.424805 200.367935,370.127991 
z"/>
<path fill="#80D2F4" opacity="1.000000" stroke="none" 
	d="
M303.116699,332.954834 
	C303.164459,331.610107 303.212219,330.265411 303.600708,328.425171 
	C304.302704,327.287231 304.663940,326.644836 305.390900,325.994080 
	C308.298553,322.731903 310.844391,319.481079 313.381592,316.223541 
	C317.590637,310.819397 321.794128,305.410919 326.000000,300.004272 
	C327.300873,300.735413 328.601715,301.466522 329.958160,302.514099 
	C330.013733,302.830505 330.014221,302.924072 329.677063,303.014618 
	C323.059662,311.402863 316.885284,319.784454 310.425293,327.939789 
	C308.794800,329.998169 306.251587,331.333588 303.875244,332.985260 
	C303.454010,332.964478 303.285370,332.959656 303.116699,332.954834 
z"/>
<path fill="#97D8F6" opacity="1.000000" stroke="none" 
	d="
M325.754333,299.735779 
	C321.794128,305.410919 317.590637,310.819397 313.381592,316.223541 
	C310.844391,319.481079 308.298553,322.731903 305.119446,325.991455 
	C304.301483,325.996246 304.120697,325.995361 303.939911,325.994507 
	C304.097931,324.178223 304.255951,322.361908 304.659607,320.254517 
	C308.955353,314.743713 313.104248,309.596588 317.016846,304.275757 
	C319.190826,301.319397 320.838654,297.842438 325.754333,299.735779 
z"/>
<path fill="#C5E8F8" opacity="1.000000" stroke="none" 
	d="
M306.427368,308.023834 
	C306.711517,302.967621 307.357788,297.897614 308.024109,292.401642 
	C317.135956,294.675537 317.329773,294.899658 312.378082,302.984406 
	C311.123810,305.032379 308.684357,306.354431 306.427368,308.023834 
z"/>
<path fill="#C5E8F8" opacity="1.000000" stroke="none" 
	d="
M305.458496,312.995178 
	C305.268738,312.190247 305.382263,311.312286 305.754944,310.217773 
	C305.929962,310.974823 305.845856,311.948517 305.458496,312.995178 
z"/>
<path fill="#C5E8F8" opacity="1.000000" stroke="none" 
	d="
M307.792114,290.829620 
	C307.400452,290.907806 306.865570,290.719757 306.147278,290.311035 
	C306.525513,290.248016 307.087189,290.405731 307.792114,290.829620 
z"/>
<path fill="#43C6F2" opacity="1.000000" stroke="none" 
	d="
M340.336975,307.930115 
	C340.018036,307.799072 340.020050,307.618408 340.037689,307.166199 
	C340.388153,306.942963 340.683807,307.077423 341.104797,307.479492 
	C341.065521,307.734100 340.861725,307.807281 340.336975,307.930115 
z"/>
<path fill="#0DA2DA" opacity="1.000000" stroke="none" 
	d="
M243.875519,324.809662 
	C243.875519,324.809662 243.894913,324.386078 243.857819,324.177307 
	C245.416687,322.505005 247.012665,321.041473 248.696274,319.270294 
	C249.429672,318.466553 250.075424,317.970428 251.079620,317.125519 
	C251.752228,316.599792 251.894226,316.331665 251.864014,315.972382 
	C254.136826,313.856140 256.409607,311.739899 258.844971,309.339539 
	C263.252686,313.177856 267.497864,317.300262 271.891052,322.048950 
	C272.498596,322.999786 272.958099,323.324341 273.417633,323.648895 
	C273.417633,323.648895 273.443542,323.631195 273.273224,323.991943 
	C272.348297,324.877686 271.615051,325.823059 270.835785,325.862701 
	C262.885529,326.266815 254.928955,326.599731 246.970551,326.727539 
	C245.949402,326.743927 244.907700,325.480316 243.875519,324.809662 
z"/>
<path fill="#78BDE7" opacity="1.000000" stroke="none" 
	d="
M226.902710,341.870361 
	C228.053543,340.622162 229.204361,339.373962 230.671249,338.393036 
	C231.877304,339.530090 232.667343,340.969757 233.678757,341.147095 
	C235.587646,341.481812 237.623840,341.015289 239.607300,341.012329 
	C254.215240,340.990509 268.823273,341.017609 283.431152,340.981964 
	C285.442200,340.977051 288.094910,341.741150 287.969025,338.170837 
	C288.651917,338.800476 289.334839,339.430145 290.154205,340.653503 
	C290.638092,341.455505 290.985535,341.663849 291.332947,341.872162 
	C291.605988,341.938660 291.818512,342.090149 292.118591,342.805115 
	C292.593414,343.491486 292.920105,343.699341 293.246796,343.907166 
	C293.846954,344.401306 294.447144,344.895447 295.057861,345.671448 
	C295.068390,345.953278 294.890564,345.991119 294.465973,345.989471 
	C291.922638,345.762970 289.802277,345.552551 287.685547,345.310120 
	C284.118164,344.901489 280.559296,344.187164 276.985809,344.109497 
	C268.613525,343.927490 260.234436,344.003326 251.858627,344.058777 
	C246.404022,344.094879 240.543701,343.077087 235.614792,344.745789 
	C231.010117,346.304718 228.898621,345.667908 226.902710,341.870361 
z"/>
<path fill="#67B7E4" opacity="1.000000" stroke="none" 
	d="
M287.780396,337.917908 
	C288.094910,341.741150 285.442200,340.977051 283.431152,340.981964 
	C268.823273,341.017609 254.215240,340.990509 239.607300,341.012329 
	C237.623840,341.015289 235.587646,341.481812 233.678757,341.147095 
	C232.667343,340.969757 231.877304,339.530090 230.963531,338.259308 
	C232.071442,336.605713 233.203125,335.353119 234.652924,334.345001 
	C235.670120,335.539215 236.263733,337.197876 237.085907,337.320160 
	C241.460251,337.970917 245.892044,338.571472 250.303589,338.568939 
	C260.814514,338.562927 271.328033,338.283020 281.831512,337.880005 
	C282.867950,337.840210 283.842438,336.185822 284.883972,335.235260 
	C284.922241,335.189697 284.966278,335.079102 284.966278,335.079102 
	C285.841431,335.941071 286.716614,336.803040 287.780396,337.917908 
z"/>
<path fill="#44ADDF" opacity="1.000000" stroke="none" 
	d="
M238.069153,330.118286 
	C238.532242,329.497711 238.995346,328.877136 239.978821,328.130920 
	C240.668671,328.009552 240.838165,328.013885 241.090424,328.380157 
	C242.316437,329.129150 243.453873,329.831940 244.603775,329.852936 
	C253.310165,330.011963 262.051880,329.615997 270.712402,330.292084 
	C274.704926,330.603729 275.832794,329.437897 275.995605,326.020935 
	C278.342499,328.354004 280.689392,330.687103 283.064514,333.659485 
	C283.058777,334.532410 283.024841,334.765991 282.604492,334.991028 
	C278.907654,334.512482 275.602112,333.687225 272.285797,333.641357 
	C263.518982,333.519928 254.746765,333.832397 245.978271,333.765625 
	C242.927414,333.742371 239.533463,333.856689 238.069153,330.118286 
z"/>
<path fill="#2BA9DD" opacity="1.000000" stroke="none" 
	d="
M275.997131,326.008881 
	C275.832794,329.437897 274.704926,330.603729 270.712402,330.292084 
	C262.051880,329.615997 253.310165,330.011963 244.603775,329.852936 
	C243.453873,329.831940 242.316437,329.129150 241.095612,328.133972 
	C241.017990,327.525818 241.016739,327.034698 241.234802,326.916504 
	C241.748825,326.587952 241.888779,326.301422 241.872726,325.938660 
	C242.351898,325.612762 242.831055,325.286835 243.592865,324.885315 
	C244.907700,325.480316 245.949402,326.743927 246.970551,326.727539 
	C254.928955,326.599731 262.885529,326.266815 270.835785,325.862701 
	C271.615051,325.823059 272.348297,324.877686 273.286133,323.983032 
	C273.915924,323.899506 274.362488,324.185577 275.000916,324.960175 
	C275.380890,325.736603 275.642242,325.920441 275.976807,326.000153 
	C275.976807,326.000153 275.998688,325.996826 275.997131,326.008881 
z"/>
<path fill="#80D2F4" opacity="1.000000" stroke="none" 
	d="
M303.016785,340.162872 
	C303.016785,340.162872 302.681732,340.161774 302.516541,340.148407 
	C302.307678,339.069305 302.264008,338.003571 302.566833,336.506897 
	C303.274170,336.048889 303.635040,336.021820 304.220459,336.188019 
	C303.968933,337.641846 303.492859,338.902344 303.016785,340.162872 
z"/>
<path fill="#A8DFF7" opacity="1.000000" stroke="none" 
	d="
M303.995880,335.994720 
	C303.635040,336.021820 303.274170,336.048889 302.649353,336.113068 
	C302.512909,335.281860 302.640411,334.413574 302.942322,333.250061 
	C303.285370,332.959656 303.454010,332.964478 303.839294,333.358582 
	C304.035889,334.496826 304.015869,335.245789 303.995880,335.994720 
z"/>
<path fill="#A8DFF7" opacity="1.000000" stroke="none" 
	d="
M303.712128,326.193390 
	C304.120697,325.995361 304.301483,325.996246 304.753723,325.999817 
	C304.663940,326.644836 304.302704,327.287231 303.676910,328.029114 
	C303.436371,327.549805 303.460358,326.971039 303.712128,326.193390 
z"/>
<path fill="#2BA9DD" opacity="1.000000" stroke="none" 
	d="
M273.373474,323.361877 
	C272.958099,323.324341 272.498596,322.999786 272.016937,322.360413 
	C272.439636,322.388702 272.884491,322.731812 273.373474,323.361877 
z"/>
<path fill="#78BDE7" opacity="1.000000" stroke="none" 
	d="
M282.990906,334.999573 
	C283.024841,334.765991 283.058777,334.532410 283.200623,333.959778 
	C283.786011,333.928131 284.263428,334.235565 284.853577,334.811035 
	C284.966278,335.079102 284.922241,335.189697 284.582703,335.149048 
	C283.825775,335.072113 283.408325,335.035858 282.990906,334.999573 
z"/>
<path fill="#44ADDF" opacity="1.000000" stroke="none" 
	d="
M275.907562,325.760925 
	C275.642242,325.920441 275.380890,325.736603 275.103485,325.221313 
	C275.355927,325.065155 275.630646,325.241058 275.907562,325.760925 
z"/>
<path fill="#9BCBEC" opacity="1.000000" stroke="none" 
	d="
M295.159119,345.959167 
	C295.546722,346.023010 295.786072,346.172882 296.089600,346.593872 
	C296.211365,346.773010 296.089142,346.901459 295.809723,346.835083 
	C295.317047,346.509491 295.103790,346.250305 294.890564,345.991119 
	C294.890564,345.991119 295.068390,345.953278 295.159119,345.959167 
z"/>
<path fill="#89C3E9" opacity="1.000000" stroke="none" 
	d="
M291.183167,341.622192 
	C290.985535,341.663849 290.638092,341.455505 290.215515,340.938690 
	C290.437988,340.877533 290.735687,341.124878 291.183167,341.622192 
z"/>
<path fill="#89C3E9" opacity="1.000000" stroke="none" 
	d="
M293.111389,343.660034 
	C292.920105,343.699341 292.593414,343.491486 292.190430,342.991272 
	C292.401428,342.936890 292.688721,343.174866 293.111389,343.660034 
z"/>
<path fill="#80D2F4" opacity="1.000000" stroke="none" 
	d="
M302.003296,343.225342 
	C302.234558,343.177155 302.399231,343.356018 302.513702,343.562653 
	C302.536743,343.604248 302.369385,343.751373 302.105591,343.907349 
	C301.920593,343.797333 301.919800,343.629730 302.003296,343.225342 
z"/>
<path fill="#89C3E9" opacity="1.000000" stroke="none" 
	d="
M294.465973,345.989471 
	C295.103790,346.250305 295.317047,346.509491 295.746918,346.897644 
	C295.173737,348.009460 294.391937,349.842804 293.593018,349.850250 
	C275.485809,350.019836 257.376709,349.990540 239.267975,349.995941 
	C234.262268,349.997437 229.254700,349.922089 224.252869,350.059967 
	C223.491333,350.080963 222.756546,351.072083 221.903351,352.011780 
	C220.468399,351.962982 219.139496,351.516907 217.417755,350.783936 
	C216.999130,349.848633 216.973297,349.200256 216.947479,348.551849 
	C216.977722,347.648163 217.007965,346.744446 217.344208,345.628754 
	C218.219208,346.229614 218.788208,347.042480 219.357208,347.855377 
	C219.926559,347.279633 220.495911,346.703918 221.065262,346.128174 
	C222.818161,344.811646 224.571060,343.495148 226.613342,342.024475 
	C228.898621,345.667908 231.010117,346.304718 235.614792,344.745789 
	C240.543701,343.077087 246.404022,344.094879 251.858627,344.058777 
	C260.234436,344.003326 268.613525,343.927490 276.985809,344.109497 
	C280.559296,344.187164 284.118164,344.901489 287.685547,345.310120 
	C289.802277,345.552551 291.922638,345.762970 294.465973,345.989471 
z"/>
<path fill="#59B3E3" opacity="1.000000" stroke="none" 
	d="
M282.604492,334.991028 
	C283.408325,335.035858 283.825775,335.072113 284.544434,335.194580 
	C283.842438,336.185822 282.867950,337.840210 281.831512,337.880005 
	C271.328033,338.283020 260.814514,338.562927 250.303589,338.568939 
	C245.892044,338.571472 241.460251,337.970917 237.085907,337.320160 
	C236.263733,337.197876 235.670120,335.539215 234.938507,334.195251 
	C235.568710,332.749817 236.231461,331.698639 237.047562,330.362091 
	C237.200912,330.076752 237.635666,330.080231 237.852417,330.099243 
	C239.533463,333.856689 242.927414,333.742371 245.978271,333.765625 
	C254.746765,333.832397 263.518982,333.519928 272.285797,333.641357 
	C275.602112,333.687225 278.907654,334.512482 282.604492,334.991028 
z"/>
<path fill="#ECF7FB" opacity="1.000000" stroke="none" 
	d="
M220.888550,345.855835 
	C220.495911,346.703918 219.926559,347.279633 219.357208,347.855377 
	C218.788208,347.042480 218.219208,346.229614 217.410721,345.181580 
	C217.137726,344.508606 217.104202,344.070831 217.144073,343.311584 
	C218.382263,343.854553 219.547043,344.719025 220.888550,345.855835 
z"/>
<path fill="#A7DFF7" opacity="1.000000" stroke="none" 
	d="
M212.305695,298.826630 
	C211.794708,298.138184 211.519272,297.293243 211.404999,296.124420 
	C211.566177,295.800537 211.952942,295.873810 212.156265,296.171021 
	C212.483505,296.745422 212.686996,296.938995 212.970093,297.049042 
	C212.827133,297.589417 212.684174,298.129761 212.305695,298.826630 
z"/>
<path fill="#A7DFF7" opacity="1.000000" stroke="none" 
	d="
M214.420166,316.858643 
	C214.093765,316.587646 213.960266,316.145477 213.907379,315.359741 
	C214.196335,315.573242 214.404694,316.130402 214.420166,316.858643 
z"/>
<path fill="#ECF7FB" opacity="1.000000" stroke="none" 
	d="
M212.909912,296.850525 
	C212.686996,296.938995 212.483505,296.745422 212.333374,296.256897 
	C212.544815,296.196869 212.725677,296.398987 212.909912,296.850525 
z"/>
<path fill="#C5E8F8" opacity="1.000000" stroke="none" 
	d="
M251.673538,316.083374 
	C251.894226,316.331665 251.752228,316.599792 251.207825,316.841492 
	C251.078796,316.621216 251.247284,316.383881 251.673538,316.083374 
z"/>
<path fill="#C5E8F8" opacity="1.000000" stroke="none" 
	d="
M241.581528,325.955994 
	C241.888779,326.301422 241.748825,326.587952 240.982697,326.879578 
	C240.343857,326.976776 240.175217,326.992706 240.006577,327.008606 
	C240.434494,326.663513 240.862411,326.318390 241.581528,325.955994 
z"/>
<path fill="#59B3E3" opacity="1.000000" stroke="none" 
	d="
M240.001862,327.254700 
	C240.175217,326.992706 240.343857,326.976776 240.764618,326.997803 
	C241.016739,327.034698 241.017990,327.525818 241.012817,327.772003 
	C240.838165,328.013885 240.668671,328.009552 240.244766,327.999176 
	C239.990341,327.993103 239.997147,327.500824 240.001862,327.254700 
z"/>
<path fill="#BADBF2" opacity="1.000000" stroke="none" 
	d="
M216.608154,348.408997 
	C216.973297,349.200256 216.999130,349.848633 217.063599,350.826843 
	C215.846359,352.646301 214.590469,354.135925 212.764008,355.830841 
	C211.867889,356.459076 211.542343,356.882019 211.216797,357.304962 
	C211.216797,357.304962 211.288239,357.236725 210.943665,357.145203 
	C209.066666,355.367889 207.534241,353.682098 205.960342,351.651245 
	C202.280365,348.204071 198.641861,345.102051 194.858185,341.713440 
	C193.808990,340.948456 192.904984,340.470062 191.962738,339.640289 
	C187.182739,329.019043 176.607956,324.330475 169.702469,316.125763 
	C169.476807,315.857635 168.743423,316.016846 168.246704,315.976868 
	C168.190582,314.932709 168.134476,313.888550 168.087921,312.453674 
	C168.755157,312.061127 169.412872,312.059296 170.397827,312.071594 
	C185.906342,324.145874 201.087570,336.206024 216.608154,348.408997 
z"/>
<path fill="#6ACDF4" opacity="1.000000" stroke="none" 
	d="
M304.220459,336.188019 
	C304.015869,335.245789 304.035889,334.496826 304.091858,333.374573 
	C306.251587,331.333588 308.794800,329.998169 310.425293,327.939789 
	C316.885284,319.784454 323.059662,311.402863 329.677124,303.061401 
	C329.610748,304.564209 329.599396,306.383881 328.742279,307.614502 
	C321.139282,318.530945 313.401184,329.353638 305.624939,340.147797 
	C305.309265,340.585999 304.217346,340.464966 303.251953,340.383667 
	C303.492859,338.902344 303.968933,337.641846 304.220459,336.188019 
z"/>
<path fill="#9BCBEC" opacity="1.000000" stroke="none" 
	d="
M232.880676,360.990021 
	C232.663101,361.073700 232.314957,360.865021 231.806305,360.392639 
	C232.013916,360.318481 232.382019,360.508087 232.880676,360.990021 
z"/>
<path fill="#AED4EF" opacity="1.000000" stroke="none" 
	d="
M234.893509,362.636322 
	C234.675644,362.825806 234.384567,362.686310 234.030792,362.203918 
	C234.241470,362.041046 234.525558,362.189819 234.893509,362.636322 
z"/>
<path fill="#91C6EB" opacity="1.000000" stroke="none" 
	d="
M169.382385,342.045105 
	C169.018646,339.954773 169.010300,337.912231 169.376129,335.439270 
	C171.704727,336.133179 173.948166,336.944244 175.564163,338.435333 
	C183.064682,345.355896 190.563232,352.297760 197.673920,359.609833 
	C199.771439,361.766785 200.596695,365.160980 202.004990,367.988159 
	C202.004990,367.988159 202.052612,368.006683 202.063354,368.030457 
	C198.458130,365.611267 194.639954,363.414337 191.283646,360.655548 
	C187.996231,357.953400 185.082184,354.768280 182.189560,351.624634 
	C180.241806,349.507874 178.615952,347.094940 176.507645,344.378418 
	C175.859634,344.670502 174.606796,345.235229 173.805862,345.596252 
	C172.345627,344.338715 171.041687,343.215790 169.382385,342.045105 
z"/>
<path fill="#73BCE6" opacity="1.000000" stroke="none" 
	d="
M200.061584,370.206787 
	C200.115967,370.424805 199.863998,370.721619 199.360687,371.171143 
	C199.324646,370.977753 199.539932,370.631653 200.061584,370.206787 
z"/>
<path fill="#A9D2EF" opacity="1.000000" stroke="none" 
	d="
M192.000977,339.991638 
	C192.904984,340.470062 193.808990,340.948456 194.620026,341.908997 
	C196.375458,347.462646 201.655884,351.882721 206.001831,351.996338 
	C207.534241,353.682098 209.066666,355.367889 210.949615,357.194214 
	C210.130875,358.814453 208.961609,360.294098 207.228256,361.927887 
	C206.444305,362.059692 206.224457,362.037354 205.962891,361.667114 
	C196.549789,352.512909 187.258896,343.618195 177.753983,334.958374 
	C175.172485,332.606445 171.945129,330.963440 169.014206,328.995026 
	C169.005341,328.552643 168.996475,328.110229 169.208130,327.168884 
	C169.005768,326.100708 168.582855,325.531433 168.159943,324.962189 
	C168.149857,323.569458 168.139786,322.176758 168.526978,320.390137 
	C169.814240,320.378845 170.943527,320.533936 171.557175,321.179321 
	C177.579346,327.512726 183.490952,333.951416 189.540207,340.258331 
	C189.888855,340.621796 191.159454,340.100952 192.000977,339.991638 
z"/>
<path fill="#9CCDED" opacity="1.000000" stroke="none" 
	d="
M169.002136,329.423645 
	C171.945129,330.963440 175.172485,332.606445 177.753983,334.958374 
	C187.258896,343.618195 196.549789,352.512909 206.003143,361.964417 
	C206.142990,362.801147 206.200882,362.992737 206.258774,363.184296 
	C206.258774,363.184296 206.113068,363.133179 205.804062,363.154907 
	C205.005234,364.133148 204.515396,365.089661 204.025574,366.046204 
	C203.531433,366.621826 203.037277,367.197449 202.274048,367.880615 
	C200.596695,365.160980 199.771439,361.766785 197.673920,359.609833 
	C190.563232,352.297760 183.064682,345.355896 175.564163,338.435333 
	C173.948166,336.944244 171.704727,336.133179 169.383804,335.001526 
	C169.008209,333.280212 168.999130,331.566223 169.002136,329.423645 
z"/>
<path fill="#B4D8F2" opacity="1.000000" stroke="none" 
	d="
M191.962738,339.640259 
	C191.159454,340.100952 189.888855,340.621796 189.540207,340.258331 
	C183.490952,333.951416 177.579346,327.512726 171.557175,321.179321 
	C170.943527,320.533936 169.814240,320.378845 168.582245,319.975586 
	C168.199066,318.892914 168.157883,317.830902 168.181702,316.372864 
	C168.743423,316.016846 169.476807,315.857635 169.702469,316.125763 
	C176.607956,324.330475 187.182739,329.019043 191.962738,339.640259 
z"/>
<path fill="#9CCDED" opacity="1.000000" stroke="none" 
	d="
M168.136902,325.258911 
	C168.582855,325.531433 169.005768,326.100708 169.209747,326.837036 
	C168.698502,326.521301 168.406189,326.038483 168.136902,325.258911 
z"/>
<path fill="#81C0E8" opacity="1.000000" stroke="none" 
	d="
M204.313919,365.917908 
	C204.515396,365.089661 205.005234,364.133148 205.862671,363.205139 
	C205.687622,364.085632 205.144943,364.937622 204.313919,365.917908 
z"/>
<path fill="#A9D2EF" opacity="1.000000" stroke="none" 
	d="
M211.497955,357.262787 
	C211.542343,356.882019 211.867889,356.459076 212.476257,355.982117 
	C212.432434,356.358948 212.105774,356.789764 211.497955,357.262787 
z"/>
<path fill="#81C0E8" opacity="1.000000" stroke="none" 
	d="
M206.487488,363.094788 
	C206.200882,362.992737 206.142990,362.801147 206.044846,362.312317 
	C206.224457,362.037354 206.444305,362.059692 206.988342,362.156677 
	C207.184341,362.543762 206.985565,362.801758 206.487488,363.094788 
z"/>
<path fill="#B4D8F2" opacity="1.000000" stroke="none" 
	d="
M205.960342,351.651245 
	C201.655884,351.882721 196.375458,347.462646 194.765213,342.195557 
	C198.641861,345.102051 202.280365,348.204071 205.960342,351.651245 
z"/>
</svg>