<?xml version="1.0" standalone="no"?>
<!DOCTYPE svg PUBLIC "-//W3C//DTD SVG 20010904//EN"
 "http://www.w3.org/TR/2001/REC-SVG-20010904/DTD/svg10.dtd">
<svg version="1.0" xmlns="http://www.w3.org/2000/svg"
 width="705.000000pt" height="549.000000pt" viewBox="0 0 705.000000 549.000000"
 preserveAspectRatio="xMidYMid meet">

<g transform="translate(0.000000,549.000000) scale(0.100000,-0.100000)"
fill="#000000" stroke="none">
<path d="M3057 3153 c-75 -86 -115 -139 -109 -145 6 -6 119 -7 300 -3 l290 8
-176 138 c-97 77 -179 139 -182 139 -3 -1 -58 -62 -123 -137z"/>
<path d="M3185 2931 c-39 -6 -36 -8 128 -74 223 -90 223 -90 467 8 l185 74
-370 -1 c-203 0 -388 -4 -410 -7z"/>
<path d="M3665 2410 c-22 -12 -51 -27 -65 -35 -14 -8 -50 -15 -82 -15 -255 -1
-789 -98 -927 -170 -42 -21 -101 -77 -101 -95 0 -34 56 -48 140 -34 54 9 77
20 135 64 98 73 122 84 238 106 167 32 547 78 547 66 0 -24 -68 -173 -98 -214
-132 -186 -223 -313 -357 -498 -84 -115 -187 -260 -229 -321 l-77 -112 -90
-42 c-112 -51 -159 -69 -226 -81 -65 -12 -129 2 -138 32 -8 24 37 124 88 196
43 58 46 91 14 121 -40 38 -92 30 -157 -24 -82 -67 -302 -202 -412 -251 -105
-47 -152 -59 -192 -49 -54 13 -23 110 60 187 25 24 61 58 80 76 37 34 42 54
18 77 -51 51 -214 -45 -214 -125 0 -19 -16 -53 -41 -90 -49 -73 -69 -118 -69
-159 0 -68 45 -97 134 -86 71 9 291 118 456 225 117 77 164 100 176 88 3 -2
-4 -38 -16 -78 -24 -88 -25 -140 -4 -184 22 -48 58 -68 118 -67 42 1 78 14
204 76 83 42 152 73 152 71 0 -8 -81 -138 -115 -185 -18 -25 -36 -56 -40 -70
-4 -14 -26 -56 -48 -95 -58 -98 -88 -175 -82 -206 9 -39 47 -71 81 -67 34 4
88 78 104 143 42 166 123 348 251 563 178 297 326 494 658 875 66 75 141 171
167 212 l47 75 77 0 c119 0 286 -20 390 -46 278 -70 408 -228 302 -367 -73
-98 -306 -223 -712 -385 -220 -87 -367 -155 -423 -194 -39 -28 -59 -71 -47
-102 13 -35 53 -53 203 -93 144 -37 219 -65 479 -176 264 -113 458 -241 528
-350 22 -33 40 -67 40 -74 0 -7 9 -22 20 -33 25 -25 98 -28 106 -5 5 13 10 12
33 -4 130 -91 351 -114 598 -60 212 46 603 196 768 294 109 66 224 152 365
276 53 46 132 114 175 150 140 116 241 265 323 477 58 147 67 197 52 305 -13
105 -52 176 -144 265 -92 89 -151 119 -290 144 -153 28 -486 31 -631 5 -348
-61 -590 -132 -805 -238 -190 -92 -262 -136 -402 -241 -248 -188 -401 -407
-344 -493 38 -58 96 -8 96 83 0 86 28 131 170 272 153 153 234 208 424 289
177 75 267 107 493 171 207 59 288 75 485 95 137 15 163 15 292 0 192 -21 242
-32 308 -67 155 -82 234 -249 208 -440 -43 -310 -288 -641 -673 -911 -196
-138 -349 -204 -717 -312 -143 -42 -276 -53 -440 -37 -245 23 -358 165 -317
397 24 134 54 219 106 297 27 40 66 100 87 133 47 72 166 199 249 264 33 27
105 74 160 106 55 31 112 66 126 76 47 33 72 38 114 23 51 -17 69 -17 104 0
57 30 60 97 6 132 -60 39 -237 -33 -426 -176 -215 -161 -442 -436 -567 -686
-46 -92 -84 -256 -80 -347 l3 -75 -60 44 c-181 132 -390 248 -755 418 -234
110 -252 119 -264 138 -25 40 61 91 439 258 329 145 509 249 631 362 119 111
128 193 34 286 -122 121 -325 181 -687 204 -156 10 -183 15 -183 28 0 43 -51
51 -115 20z"/>
<path d="M1180 1425 c-117 -26 -243 -65 -321 -99 l-76 -32 13 25 c17 32 18 83
2 99 -26 26 -64 13 -112 -38 -45 -48 -46 -51 -44 -107 1 -48 -5 -71 -33 -130
-24 -51 -39 -73 -52 -73 -31 0 -54 -18 -66 -50 -11 -34 -7 -56 15 -64 18 -7
-25 -82 -156 -271 -96 -138 -139 -209 -249 -413 -31 -57 -64 -118 -73 -135
-19 -34 -23 -74 -10 -94 6 -9 15 -9 42 0 19 7 41 16 48 20 28 18 61 87 76 160
28 139 70 210 366 620 l63 88 46 -6 c59 -8 260 19 377 50 106 28 265 96 346
147 71 46 128 126 128 180 0 103 -158 162 -330 123z m175 -55 c57 -22 35 -66
-74 -149 -111 -84 -217 -139 -363 -186 -123 -41 -265 -71 -277 -60 -9 10 18
53 68 107 106 116 235 192 446 264 103 35 155 41 200 24z"/>
<path d="M967 292 c-10 -10 -17 -26 -17 -35 0 -9 -7 -17 -15 -17 -16 0 -21
-26 -6 -32 18 -6 -16 -132 -38 -147 -26 -17 -27 -31 -2 -31 37 0 59 32 73 105
13 66 15 70 42 73 28 4 28 3 22 -35 -4 -21 -10 -48 -13 -60 -4 -18 -1 -23 15
-23 15 0 21 11 31 57 18 91 17 93 -33 93 -39 0 -44 2 -39 20 3 11 14 20 24 20
11 0 19 7 19 15 0 21 -43 19 -63 -3z"/>
<path d="M2637 303 c-3 -5 -8 -22 -12 -40 -6 -29 -9 -32 -33 -27 -52 11 -105
-59 -87 -115 8 -26 35 -34 69 -22 17 7 26 7 26 1 0 -6 6 -10 14 -10 9 0 19 29
30 88 10 48 20 97 23 110 4 15 1 22 -10 22 -9 0 -18 -3 -20 -7z m-31 -107 c9
-23 -19 -71 -41 -71 -24 0 -30 22 -16 58 11 29 48 37 57 13z"/>
<path d="M400 296 c0 -2 -9 -48 -20 -101 -11 -53 -20 -99 -20 -101 0 -2 9 -4
20 -4 14 0 21 9 25 34 6 30 11 34 45 40 68 11 105 87 58 120 -19 14 -108 23
-108 12z m86 -41 c9 -22 -23 -65 -47 -65 -17 0 -20 4 -15 23 3 12 6 30 6 40 0
22 48 24 56 2z"/>
<path d="M867 294 c-16 -16 -6 -35 16 -32 12 2 22 10 22 18 0 16 -26 25 -38
14z"/>
<path d="M1046 285 c-6 -17 17 -31 34 -20 5 3 10 13 10 21 0 19 -36 18 -44 -1z"/>
<path d="M1556 285 c-6 -17 17 -31 34 -20 5 3 10 13 10 21 0 19 -36 18 -44 -1z"/>
<path d="M2070 297 c0 -3 -9 -49 -20 -102 -11 -53 -20 -99 -20 -101 0 -2 8 -4
19 -4 15 0 21 12 31 68 7 37 16 76 21 87 7 18 8 18 8 -4 1 -13 6 -53 12 -88
15 -87 33 -84 88 17 25 44 46 78 49 76 3 -4 -13 -98 -24 -138 -4 -13 0 -18 15
-18 12 0 21 2 21 4 0 2 9 48 20 101 11 53 20 99 20 102 0 2 -15 3 -32 1 -28
-3 -38 -12 -69 -66 -20 -35 -41 -63 -45 -63 -5 0 -13 28 -19 63 -10 61 -11 63
-42 66 -18 2 -33 1 -33 -1z"/>
<path d="M2956 279 c-36 -29 -33 -58 11 -95 33 -27 36 -34 24 -48 -15 -18 -52
-21 -68 -5 -8 8 -13 7 -18 -2 -5 -7 0 -18 11 -26 41 -31 124 8 124 57 0 10
-16 31 -36 47 -26 21 -33 33 -28 47 5 14 15 17 40 14 35 -4 48 14 18 26 -28
11 -51 6 -78 -15z"/>
<path d="M1450 265 c0 -9 -7 -18 -15 -21 -16 -7 -21 -34 -6 -34 5 0 4 -20 -1
-45 -11 -52 2 -78 35 -73 25 4 35 28 12 28 -14 0 -16 6 -11 31 3 17 6 38 6 45
0 9 12 14 36 14 l36 0 -7 -37 c-3 -21 -9 -48 -12 -60 -4 -18 -1 -23 15 -23 16
0 22 11 31 61 7 34 15 67 18 75 4 11 -7 14 -52 14 -52 0 -56 2 -50 20 5 16 2
20 -14 20 -12 0 -21 -7 -21 -15z"/>
<path d="M3670 260 c0 -11 -7 -20 -15 -20 -8 0 -15 -7 -15 -15 0 -8 4 -15 9
-15 5 0 4 -20 -1 -45 -11 -52 2 -78 35 -73 25 4 35 28 12 28 -14 0 -16 6 -11
31 3 17 6 37 6 45 0 7 10 14 22 16 29 4 36 28 8 28 -17 0 -20 4 -15 20 5 16 2
20 -14 20 -14 0 -21 -6 -21 -20z"/>
<path d="M566 231 c-4 -5 -9 -36 -12 -69 -6 -54 -5 -60 13 -66 11 -4 32 -2 47
3 17 7 26 7 26 1 0 -6 6 -10 14 -10 9 0 18 26 28 75 14 71 14 75 -2 75 -13 0
-21 -13 -30 -50 -6 -27 -18 -54 -26 -61 -19 -16 -47 -3 -40 18 3 10 8 35 12
56 5 30 3 37 -9 37 -9 0 -18 -4 -21 -9z"/>
<path d="M735 228 c-5 -18 -25 -117 -25 -128 0 -6 8 -10 19 -10 14 0 20 10 25
42 8 49 21 68 47 68 12 0 19 7 19 20 0 22 -20 26 -38 8 -9 -9 -12 -9 -12 0 0
16 -30 15 -35 0z"/>
<path d="M855 228 c-5 -18 -25 -117 -25 -128 0 -6 8 -10 18 -10 15 0 21 13 30
64 7 35 12 68 12 75 0 15 -30 14 -35 -1z"/>
<path d="M1135 218 c-69 -61 -22 -159 56 -118 29 16 23 30 -11 24 -23 -5 -31
-2 -37 11 -10 29 19 70 50 70 33 1 46 13 27 25 -25 16 -58 11 -85 -12z"/>
<path d="M1267 220 c-43 -34 -48 -112 -8 -125 10 -3 30 -1 45 4 17 7 26 7 26
1 0 -6 6 -10 14 -10 10 0 18 20 26 58 6 31 14 65 16 75 6 19 -16 23 -33 6 -8
-8 -13 -8 -17 0 -11 17 -41 13 -69 -9z m71 -36 c4 -28 -30 -69 -51 -61 -19 7
-21 25 -7 62 12 33 53 32 58 -1z"/>
<path d="M1634 217 c-38 -33 -40 -95 -3 -115 30 -18 71 -10 99 18 27 27 28 95
1 110 -32 16 -68 12 -97 -13z m76 -41 c0 -37 -19 -60 -47 -54 -39 7 -15 88 27
88 16 0 20 -7 20 -34z"/>
<path d="M1801 203 c-5 -21 -13 -55 -17 -76 -6 -34 -4 -39 12 -35 12 2 22 17
29 44 11 47 31 74 52 74 12 0 14 -9 8 -46 -3 -26 -9 -53 -12 -60 -3 -9 2 -14
15 -14 16 0 22 10 31 50 14 67 14 75 -5 91 -12 10 -22 10 -45 2 -16 -6 -29 -7
-29 -2 0 5 -7 9 -15 9 -8 0 -18 -16 -24 -37z"/>
<path d="M2357 220 c-43 -34 -48 -112 -8 -125 10 -3 30 -1 45 4 17 7 26 7 26
1 0 -6 6 -10 14 -10 10 0 18 20 26 58 6 31 14 65 16 75 6 19 -16 23 -33 6 -8
-8 -13 -8 -17 0 -11 17 -41 13 -69 -9z m71 -36 c4 -28 -30 -69 -51 -61 -19 7
-21 25 -7 62 12 33 53 32 58 -1z"/>
<path d="M2722 230 c-29 -12 -57 -70 -48 -103 7 -30 35 -41 82 -32 46 8 44 30
-3 30 -20 0 -38 6 -40 13 -3 7 4 12 15 12 10 0 33 5 51 11 23 8 31 17 31 35 0
37 -40 53 -88 34z m51 -35 c-3 -13 -53 -20 -53 -7 0 15 13 23 35 20 11 -2 19
-7 18 -13z"/>
<path d="M3091 203 c-5 -21 -13 -55 -17 -76 -6 -34 -4 -39 12 -35 12 2 22 17
29 44 11 47 31 74 52 74 15 0 14 -23 -4 -97 -4 -18 -1 -23 15 -23 15 0 21 9
27 38 8 45 30 82 50 82 17 0 19 -27 6 -82 -8 -33 -7 -38 9 -38 20 0 26 12 35
81 9 58 -10 79 -57 61 -22 -8 -35 -8 -48 0 -14 9 -25 9 -44 0 -16 -7 -26 -8
-26 -2 0 6 -7 10 -15 10 -8 0 -18 -16 -24 -37z"/>
<path d="M3367 220 c-43 -34 -48 -112 -8 -125 10 -3 30 -1 45 4 17 7 26 7 26
1 0 -6 6 -10 14 -10 10 0 18 20 26 58 6 31 14 65 16 75 6 19 -16 23 -33 6 -8
-8 -13 -8 -17 0 -11 17 -41 13 -69 -9z m71 -36 c4 -28 -30 -69 -51 -61 -19 7
-21 25 -7 62 12 33 53 32 58 -1z"/>
<path d="M3535 228 c-5 -18 -25 -117 -25 -128 0 -6 8 -10 19 -10 14 0 20 10
25 42 8 49 21 68 47 68 12 0 19 7 19 20 0 22 -20 26 -38 8 -9 -9 -12 -9 -12 0
0 16 -30 15 -35 0z"/>
</g>
</svg>
