<?xml version="1.0" standalone="no"?>
<!DOCTYPE svg PUBLIC "-//W3C//DTD SVG 20010904//EN"
 "http://www.w3.org/TR/2001/REC-SVG-20010904/DTD/svg10.dtd">
<svg version="1.0" xmlns="http://www.w3.org/2000/svg"
 width="512.000000pt" height="504.000000pt" viewBox="0 0 512.000000 504.000000"
 preserveAspectRatio="xMidYMid meet">

<g transform="translate(0.000000,504.000000) scale(0.100000,-0.100000)"
fill="#000000" stroke="none">
<path d="M1647 3992 c-16 -17 -17 -68 -17 -623 0 -332 4 -609 8 -614 11 -17
55 -32 82 -30 14 1 30 0 35 -4 6 -3 15 -6 20 -6 43 -3 216 -49 248 -66 10 -5
22 -7 27 -4 6 4 10 2 10 -3 0 -6 12 -13 28 -17 44 -11 142 -57 142 -67 0 -5 5
-6 10 -3 6 3 10 2 10 -4 0 -6 11 -13 25 -17 14 -3 25 -11 25 -17 0 -6 3 -8 6
-4 3 3 33 -14 66 -39 67 -49 74 -51 106 -26 l22 17 0 608 c1 334 -2 612 -6
618 -22 36 -300 193 -369 209 -5 1 -27 11 -47 21 -21 11 -38 17 -38 13 0 -4
-6 -1 -13 5 -8 6 -24 13 -38 15 -13 3 -24 5 -24 6 0 1 -11 4 -25 5 -14 2 -45
9 -70 15 -63 16 -87 20 -150 26 -46 4 -59 2 -73 -14z"/>
<path d="M3351 3998 c-13 -4 -26 -6 -31 -3 -4 3 -24 -2 -43 -10 -19 -8 -37
-12 -39 -10 -3 3 -30 -4 -61 -14 -32 -11 -57 -18 -57 -16 0 4 -22 -3 -95 -31
-11 -4 -22 -8 -25 -9 -3 -1 -27 -11 -53 -23 -27 -12 -53 -22 -58 -22 -5 0 -9
-4 -9 -8 0 -6 -52 -31 -70 -33 -3 0 -14 -8 -25 -17 -11 -10 -36 -26 -55 -36
-19 -11 -39 -25 -43 -33 -4 -7 -13 -13 -20 -13 -6 0 -22 -12 -34 -27 l-23 -26
0 -594 c0 -445 3 -593 12 -593 6 0 8 -3 5 -6 -3 -4 5 -15 18 -26 22 -17 29
-18 59 -7 37 13 38 20 14 80 -22 57 -11 110 34 160 25 28 64 42 120 42 37 -1
103 -25 110 -42 2 -4 12 -11 24 -15 20 -6 21 -3 22 111 1 65 4 168 7 228 13
302 13 302 60 349 101 101 272 15 259 -130 -2 -20 0 -42 3 -47 7 -12 15 -93
21 -213 3 -47 23 -66 76 -71 l46 -5 -2 551 c-3 477 -5 553 -18 561 -17 12 -97
10 -129 -2z"/>
<path d="M3159 3325 c-42 -23 -48 -47 -56 -205 -13 -274 -16 -373 -17 -477 -1
-116 -10 -138 -38 -93 -7 11 -18 20 -25 20 -7 0 -17 8 -22 18 -6 9 -11 14 -11
10 0 -5 -21 8 -46 27 -25 19 -51 35 -57 36 -80 8 -136 -57 -103 -119 7 -15 22
-43 33 -63 10 -19 29 -49 41 -66 12 -17 22 -34 22 -37 0 -4 9 -17 21 -29 11
-12 28 -38 37 -57 9 -19 24 -44 34 -54 10 -11 27 -38 38 -60 11 -23 20 -36 21
-31 0 6 6 -1 12 -15 21 -45 81 -129 88 -124 4 2 10 0 14 -6 9 -14 595 -14 595
1 0 5 4 8 8 5 4 -3 16 12 26 32 10 20 22 45 27 54 9 19 36 131 44 186 11 70
14 296 6 306 -5 6 -10 14 -11 18 -5 29 -33 76 -55 93 -43 32 -136 79 -185 94
-25 7 -52 16 -60 19 -30 10 -45 14 -72 15 -16 1 -28 5 -28 8 0 3 -23 9 -52 12
-28 4 -55 10 -59 14 -7 8 -18 119 -24 238 -2 33 -4 60 -5 60 -1 0 -4 22 -7 48
-7 73 -27 113 -64 126 -39 13 -38 14 -70 -4z"/>
<path d="M1696 2621 c-4 -6 -16 -11 -26 -11 -36 0 -53 -75 -31 -133 9 -23 62
-51 87 -46 5 1 11 0 14 -1 12 -4 47 -11 70 -13 14 -1 31 -6 38 -10 6 -5 12 -6
12 -2 0 3 16 -1 35 -9 20 -9 38 -15 40 -16 3 0 6 0 8 -1 1 0 10 -2 19 -4 35
-6 247 -116 275 -142 7 -6 22 -15 33 -18 11 -3 20 -11 20 -16 0 -5 6 -9 14 -9
8 0 16 -3 18 -7 2 -5 22 -21 44 -36 41 -28 43 -28 201 -28 l160 -1 45 34 c24
18 60 44 81 58 38 26 42 51 12 75 -7 5 -20 26 -29 45 -29 64 -47 66 -122 15
l-65 -45 -94 0 c-52 0 -96 4 -99 9 -4 5 -39 31 -79 57 -39 26 -74 50 -77 54
-8 11 -230 115 -285 134 -27 10 -59 22 -70 27 -19 8 -76 21 -102 22 -7 0 -13
3 -13 7 0 4 -19 7 -42 8 -24 0 -53 3 -64 7 -13 4 -25 2 -28 -4z"/>
<path d="M4455 1708 c-6 -20 -75 -372 -75 -385 0 -8 14 -13 39 -13 l38 0 37
188 c20 103 39 195 42 205 5 14 -1 17 -36 17 -24 0 -42 -5 -45 -12z"/>
<path d="M735 1683 c-48 -25 -82 -62 -103 -112 -42 -99 -37 -194 13 -241 21
-20 39 -25 94 -28 81 -5 132 16 179 74 57 69 78 213 40 274 -30 48 -159 67
-223 33z m130 -68 c28 -27 30 -50 14 -125 -20 -93 -98 -152 -153 -116 -31 20
-39 57 -26 122 25 118 107 178 165 119z"/>
<path d="M1588 1584 c-16 -8 -28 -10 -28 -4 0 5 -16 10 -35 10 -19 0 -35 -2
-35 -4 0 -2 -11 -58 -25 -126 -14 -68 -25 -129 -25 -136 0 -10 13 -14 39 -14
l40 0 11 58 c18 89 29 118 57 146 51 51 62 24 40 -94 -22 -114 -23 -110 22
-110 39 0 39 1 49 48 36 168 36 209 -2 234 -18 13 -79 8 -108 -8z"/>
<path d="M1854 1581 c-43 -26 -71 -69 -84 -126 -23 -104 13 -155 111 -155 77
0 105 12 112 47 3 15 4 30 2 31 -2 2 -29 -2 -61 -9 -55 -12 -57 -12 -76 11
-10 12 -17 28 -15 34 2 6 31 14 65 17 67 6 107 27 124 65 15 33 0 75 -32 91
-37 19 -110 16 -146 -6z m95 -55 c15 -18 -6 -35 -53 -43 -43 -7 -47 7 -10 36
31 24 47 26 63 7z"/>
<path d="M2192 1584 c-12 -8 -22 -10 -22 -5 0 6 -16 11 -35 11 -19 0 -35 -2
-35 -4 0 -2 -11 -58 -25 -126 -14 -68 -25 -129 -25 -136 0 -10 13 -14 39 -14
43 0 41 -4 57 95 12 72 54 130 87 119 23 -7 37 10 37 49 0 23 -4 27 -28 27
-15 0 -38 -7 -50 -16z"/>
<path d="M2331 1586 c-55 -30 -67 -102 -23 -136 85 -65 79 -58 57 -75 -11 -9
-29 -13 -40 -10 -73 20 -75 20 -75 -18 0 -41 11 -47 81 -47 82 0 128 37 129
101 0 35 -32 79 -57 79 -5 0 -17 8 -27 19 -15 17 -15 19 -1 31 13 11 23 11 51
1 18 -7 38 -9 44 -6 16 10 12 62 -6 69 -27 11 -108 6 -133 -8z"/>
<path d="M2778 1584 c-16 -8 -28 -10 -28 -4 0 5 -16 10 -35 10 -19 0 -35 -2
-35 -4 0 -2 -11 -58 -25 -126 -14 -68 -25 -129 -25 -136 0 -10 13 -14 39 -14
l40 0 11 58 c18 89 29 118 57 146 50 51 62 26 39 -87 -23 -117 -23 -117 23
-117 l39 0 12 68 c7 37 19 82 28 100 13 30 46 62 64 62 21 0 16 -64 -17 -208
-5 -22 -3 -23 37 -20 l43 3 17 75 c23 105 23 173 0 193 -25 23 -80 21 -121 -4
l-33 -20 -15 20 c-17 25 -74 28 -115 5z"/>
<path d="M3208 1585 c-80 -44 -115 -239 -48 -275 29 -15 83 -12 110 7 17 12
25 13 28 5 2 -7 18 -12 36 -12 l33 0 27 133 c14 72 26 135 26 140 0 4 -16 7
-35 7 -19 0 -35 -5 -35 -11 0 -5 -10 -3 -22 5 -28 20 -84 20 -120 1z m97 -65
c26 -28 12 -85 -31 -128 -28 -28 -37 -32 -49 -22 -31 25 -9 135 32 159 25 14
27 14 48 -9z"/>
<path d="M3578 1584 c-16 -8 -28 -10 -28 -4 0 5 -16 10 -35 10 -19 0 -35 -2
-35 -4 0 -2 -11 -58 -25 -126 -14 -68 -25 -129 -25 -136 0 -10 13 -14 39 -14
l40 0 11 58 c18 89 29 118 57 146 51 51 62 24 40 -94 -22 -114 -23 -110 22
-110 39 0 39 1 49 48 36 168 36 209 -2 234 -18 13 -79 8 -108 -8z"/>
<path d="M4158 1585 c-80 -44 -115 -239 -48 -275 29 -15 83 -12 110 7 17 12
25 13 28 5 2 -7 18 -12 36 -12 l33 0 27 133 c14 72 26 135 26 140 0 4 -16 7
-35 7 -19 0 -35 -5 -35 -11 0 -5 -10 -3 -22 5 -28 20 -84 20 -120 1z m97 -65
c26 -28 12 -85 -31 -128 -28 -28 -37 -32 -49 -22 -31 25 -9 135 32 159 25 14
27 14 48 -9z"/>
<path d="M1015 1523 c4 -38 10 -99 13 -138 l7 -70 50 -3 50 -3 37 78 36 78 1
-46 c1 -26 4 -61 7 -78 6 -29 9 -31 50 -31 52 0 64 14 130 153 55 118 56 127
6 127 l-38 0 -33 -82 c-19 -46 -37 -87 -41 -91 -4 -5 -11 32 -15 82 l-7 91
-38 0 c-37 0 -37 0 -76 -85 -22 -47 -42 -85 -46 -85 -5 0 -8 31 -8 69 0 93 -4
101 -52 101 l-39 0 6 -67z"/>
<path d="M3795 1568 c-40 -172 -43 -220 -15 -248 25 -25 86 -27 120 -3 17 12
25 13 28 5 2 -7 18 -12 36 -12 l33 0 27 133 c14 72 26 135 26 140 0 4 -18 7
-39 7 l-40 0 -11 -57 c-6 -32 -16 -72 -21 -90 -11 -35 -65 -87 -80 -77 -13 8
-11 58 6 134 20 91 20 90 -25 90 -33 0 -41 -4 -45 -22z"/>
</g>
</svg>
