<?xml version="1.0" standalone="no"?>
<!DOCTYPE svg PUBLIC "-//W3C//DTD SVG 20010904//EN"
 "http://www.w3.org/TR/2001/REC-SVG-20010904/DTD/svg10.dtd">
<svg version="1.0" xmlns="http://www.w3.org/2000/svg"
 width="512.000000pt" height="504.000000pt" viewBox="0 0 512.000000 504.000000"
 preserveAspectRatio="xMidYMid meet">

<g transform="translate(0.000000,504.000000) scale(0.100000,-0.100000)"
fill="#000000" stroke="none">
<path d="M1092 4335 l-32 -27 0 -865 0 -866 25 -22 c25 -24 46 -30 125 -40 53
-6 69 -9 93 -20 10 -4 20 -5 23 -2 4 3 17 2 31 -4 13 -5 39 -11 57 -13 59 -7
189 -49 323 -103 34 -14 64 -24 66 -22 2 2 10 -1 18 -7 8 -6 55 -33 104 -59
85 -46 164 -95 264 -164 24 -17 50 -31 57 -31 7 0 29 15 48 34 l36 33 0 857
c0 769 -2 859 -16 881 -15 23 -106 95 -121 95 -3 0 -20 10 -37 23 -63 47 -248
146 -273 147 -7 0 -13 5 -13 11 0 5 -4 7 -10 4 -5 -3 -10 -1 -10 4 0 6 -3 10
-7 9 -5 -2 -33 7 -63 19 -53 20 -77 29 -92 32 -4 1 -27 10 -51 20 -39 17 -118
35 -132 31 -4 -1 -17 6 -31 15 -13 9 -28 13 -33 11 -5 -3 -31 1 -59 9 -28 9
-54 15 -59 14 -4 -1 -10 0 -13 1 -10 4 -57 10 -121 16 -61 5 -68 4 -97 -21z"/>
<path d="M3576 4353 c-2 -2 -23 -6 -47 -9 -24 -3 -55 -9 -69 -14 -14 -5 -41
-12 -60 -14 -19 -3 -60 -12 -90 -21 -30 -9 -66 -18 -79 -21 -14 -3 -29 -8 -35
-12 -6 -3 -15 -7 -21 -8 -5 -1 -29 -9 -52 -18 -24 -8 -43 -12 -43 -9 0 3 -8
-1 -17 -10 -10 -8 -22 -17 -28 -18 -35 -8 -53 -15 -94 -35 -25 -13 -52 -24
-58 -24 -7 0 -13 -4 -13 -10 0 -5 -7 -10 -15 -10 -8 0 -38 -15 -67 -33 -29
-19 -77 -46 -105 -62 -29 -15 -53 -32 -53 -37 0 -4 -5 -8 -11 -8 -10 0 -36
-19 -99 -72 l-25 -21 -3 -864 -2 -865 37 -34 c20 -19 43 -34 50 -34 19 0 83
43 83 56 0 5 -10 30 -21 55 -27 54 -29 100 -9 161 20 61 63 114 112 138 47 23
183 24 197 1 5 -7 10 -12 12 -11 8 4 59 -24 59 -31 0 -8 59 -43 61 -37 1 2 3
75 5 163 3 88 6 196 8 240 2 44 7 165 11 268 4 126 11 200 21 223 8 19 14 36
14 39 0 3 0 9 0 14 0 10 87 101 98 102 4 0 16 3 27 6 29 8 125 8 160 0 41 -10
112 -89 126 -140 16 -62 19 -76 25 -142 2 -33 7 -76 9 -95 2 -19 7 -82 11
-140 3 -58 7 -116 9 -130 1 -14 3 -30 4 -37 1 -12 26 -23 64 -28 12 -1 39 -6
60 -10 l37 -7 0 781 0 782 -27 25 c-24 22 -35 25 -91 22 -35 -1 -65 -4 -66 -5z"/>
<path d="M3280 3377 c-48 -17 -70 -65 -76 -169 -3 -46 -7 -110 -10 -143 -4
-61 -8 -188 -20 -612 -8 -268 2 -256 -124 -150 -8 6 -50 36 -94 65 -88 58
-121 64 -173 32 -75 -45 -84 -107 -29 -193 20 -31 36 -61 36 -67 0 -5 5 -10
10 -10 6 0 10 -7 10 -15 0 -8 3 -15 8 -15 4 0 12 -10 18 -23 34 -67 46 -87 55
-87 5 0 9 -7 9 -15 0 -8 5 -15 10 -15 6 0 10 -7 10 -15 0 -8 4 -15 8 -15 5 0
17 -18 27 -40 10 -22 22 -40 27 -40 4 0 7 -4 5 -8 -2 -8 94 -155 106 -160 4
-2 7 -8 7 -13 0 -10 81 -138 107 -168 9 -12 22 -21 28 -21 6 0 16 -5 21 -10 7
-7 156 -10 427 -10 471 0 438 -6 483 83 13 26 22 47 19 47 -3 0 0 10 6 23 7
12 21 56 31 97 10 41 21 84 23 95 3 11 7 45 10 75 3 30 7 66 10 80 8 38 7 302
-1 346 -9 51 -39 101 -89 149 -46 44 -64 56 -145 96 -55 27 -197 78 -235 85
-11 2 -38 8 -60 13 -58 14 -94 21 -149 26 -74 8 -86 18 -87 73 -2 66 -6 119
-13 172 -3 25 -8 79 -11 120 -2 41 -7 100 -11 130 -3 30 -7 71 -8 90 -2 39
-29 91 -56 108 -29 18 -83 22 -120 9z"/>
<path d="M1131 2347 c-90 -48 -96 -167 -11 -227 16 -12 30 -18 30 -14 0 3 7 1
15 -6 8 -7 24 -10 35 -7 12 3 35 1 53 -4 18 -5 52 -12 76 -14 25 -3 47 -8 50
-13 4 -4 19 -8 36 -10 16 -2 35 -8 42 -14 7 -6 13 -8 13 -4 0 5 55 -13 105
-35 11 -4 27 -10 35 -11 8 -2 18 -7 21 -11 3 -5 12 -9 20 -11 14 -2 45 -17
164 -81 78 -41 109 -59 115 -65 3 -3 25 -18 50 -32 39 -23 178 -122 204 -145
12 -11 445 -6 460 5 6 5 43 31 81 58 39 26 72 51 73 56 2 4 7 6 11 4 3 -2 22
8 40 23 l34 28 -21 29 c-11 16 -41 61 -66 101 -25 39 -51 75 -57 78 -6 4 -20
-1 -32 -12 -12 -10 -49 -37 -82 -58 -33 -22 -61 -43 -63 -47 -2 -5 -68 -8
-146 -8 -138 0 -144 1 -172 25 -16 14 -32 25 -35 25 -3 0 -19 11 -35 25 -16
14 -33 25 -38 25 -5 0 -31 16 -57 35 -27 19 -53 35 -58 35 -5 0 -16 6 -23 13
-7 6 -38 25 -68 41 -30 16 -62 33 -70 38 -22 12 -154 71 -165 74 -43 12 -145
49 -167 60 -15 8 -30 14 -35 13 -4 -1 -10 0 -13 1 -8 3 -44 10 -72 14 -15 3
-33 8 -39 12 -7 4 -28 9 -48 10 -40 5 -72 9 -116 18 -21 4 -43 -1 -74 -17z"/>
<path d="M4465 1441 c-9 -16 -82 -390 -77 -396 3 -3 18 -5 33 -5 21 0 30 6 34
23 10 42 75 370 75 379 0 11 -57 10 -65 -1z"/>
<path d="M755 1415 c-109 -38 -180 -214 -130 -320 21 -44 56 -60 129 -60 127
0 206 87 213 235 4 62 1 80 -16 107 -32 50 -115 66 -196 38z m113 -61 c18 -12
22 -25 22 -67 0 -75 -17 -126 -55 -164 -40 -40 -93 -45 -126 -12 -19 19 -21
30 -17 83 3 34 13 77 23 96 35 72 102 100 153 64z"/>
<path d="M1586 1305 c-35 -24 -36 -24 -36 -4 0 16 -5 20 -27 17 -27 -3 -28 -6
-54 -136 -28 -142 -27 -147 22 -140 19 2 25 12 32 48 22 116 56 180 97 180 29
0 32 -29 11 -129 -20 -99 -18 -106 30 -99 20 3 25 13 41 88 9 47 17 102 18
123 0 73 -64 99 -134 52z"/>
<path d="M1864 1310 c-52 -26 -84 -83 -91 -159 -5 -50 -2 -61 18 -85 44 -51
182 -44 195 10 8 32 3 37 -30 24 -37 -14 -89 -13 -104 2 -7 7 -12 22 -12 34 0
19 7 22 60 27 98 11 130 34 130 96 0 61 -92 89 -166 51z m94 -62 c4 -23 -31
-40 -76 -36 l-37 3 28 28 c31 32 79 35 85 5z"/>
<path d="M2191 1304 c-30 -25 -31 -25 -31 -4 0 17 -5 21 -27 18 -27 -3 -28 -6
-54 -136 -28 -142 -27 -147 23 -140 20 3 24 12 35 70 18 102 47 148 93 148 22
0 29 6 33 27 3 16 3 31 0 35 -9 16 -42 7 -72 -18z"/>
<path d="M2343 1316 c-35 -16 -53 -43 -53 -80 0 -40 10 -56 52 -77 30 -15 39
-25 36 -42 -3 -19 -9 -22 -43 -21 -22 0 -48 4 -57 8 -13 6 -19 2 -24 -19 -8
-34 2 -43 57 -51 64 -9 115 15 135 62 20 48 6 82 -44 109 -50 27 -52 60 -2 59
19 0 42 -4 51 -8 13 -5 18 0 22 21 3 15 2 31 -2 35 -15 16 -96 18 -128 4z"/>
<path d="M2776 1305 c-35 -24 -36 -24 -36 -4 0 16 -5 20 -27 17 -27 -3 -28 -6
-54 -136 -28 -142 -27 -147 22 -140 19 2 25 12 32 48 22 117 56 180 98 180 16
0 19 -7 19 -42 -1 -24 -7 -72 -15 -108 -8 -36 -14 -68 -15 -72 0 -5 15 -8 34
-8 38 0 38 -1 56 95 14 68 42 121 70 130 43 14 50 -22 25 -135 -20 -89 -19
-90 15 -90 37 0 43 11 65 128 20 104 14 134 -29 153 -32 15 -67 6 -105 -27
-23 -19 -31 -22 -31 -10 0 19 -38 46 -66 46 -12 0 -38 -11 -58 -25z"/>
<path d="M3210 1308 c-51 -35 -75 -90 -75 -171 0 -61 3 -71 25 -89 29 -24 80
-19 121 11 27 20 27 20 22 1 -4 -17 0 -20 26 -20 34 0 30 -10 61 144 26 129
26 136 -5 136 -14 0 -28 -7 -31 -15 -5 -13 -10 -12 -31 5 -34 26 -72 25 -113
-2z m104 -57 c15 -16 16 -25 6 -60 -13 -48 -55 -101 -81 -101 -40 0 -47 74
-13 142 21 41 60 50 88 19z"/>
<path d="M3576 1305 c-35 -24 -36 -24 -36 -4 0 16 -5 20 -27 17 -27 -3 -28 -6
-54 -136 -28 -142 -27 -147 22 -140 19 2 25 12 32 48 22 116 56 180 97 180 29
0 32 -29 11 -129 -20 -99 -18 -106 30 -99 20 3 25 13 41 88 9 47 17 102 18
123 0 73 -64 99 -134 52z"/>
<path d="M4160 1308 c-51 -35 -75 -90 -75 -171 0 -61 3 -71 25 -89 29 -24 80
-19 121 11 27 20 27 20 22 1 -4 -17 0 -20 26 -20 34 0 30 -10 61 144 26 129
26 136 -5 136 -14 0 -28 -7 -31 -15 -5 -13 -10 -12 -31 5 -34 26 -72 25 -113
-2z m104 -57 c15 -16 16 -25 6 -60 -13 -48 -55 -101 -81 -101 -40 0 -47 74
-13 142 21 41 60 50 88 19z"/>
<path d="M1025 1223 c11 -155 16 -177 44 -181 51 -8 65 5 101 88 19 44 36 77
37 73 2 -5 6 -42 11 -83 l7 -75 33 -3 c47 -5 63 13 122 132 60 120 63 146 20
146 -24 0 -33 -6 -40 -26 -6 -15 -25 -61 -42 -103 -28 -67 -33 -73 -39 -51 -4
14 -8 50 -8 80 -2 84 -8 100 -43 100 -27 0 -32 -7 -77 -102 l-48 -103 -8 103
-7 102 -35 0 -36 0 8 -97z"/>
<path d="M3805 1308 c-13 -35 -35 -165 -35 -203 0 -36 5 -48 25 -61 31 -20 81
-13 120 18 25 19 26 19 23 2 -2 -14 4 -20 24 -22 31 -4 27 -13 58 142 27 135
27 138 -12 134 -30 -3 -33 -7 -41 -48 -22 -117 -56 -180 -98 -180 -30 0 -33
24 -15 113 22 113 22 117 -14 117 -17 0 -33 -6 -35 -12z"/>
</g>
</svg>
