<svg version="1.1" id="Layer_1" xmlns="http://www.w3.org/2000/svg" xmlns:xlink="http://www.w3.org/1999/xlink" x="0px" y="0px"
	 width="100%" viewBox="0 0 512 512" enable-background="new 0 0 512 512" xml:space="preserve">
<path fill="#000000" opacity="1.000000" stroke="none" 
	d="
M283.000000,513.000000 
	C188.689560,513.000000 94.879120,513.000000 1.034338,513.000000 
	C1.034338,342.397858 1.034338,171.795731 1.034338,1.096792 
	C171.560455,1.096792 342.121002,1.096792 512.840759,1.096792 
	C512.840759,171.666550 512.840759,342.333252 512.840759,513.000000 
	C436.462372,513.000000 359.981171,513.000000 283.000000,513.000000 
M459.774536,292.500122 
	C459.774536,253.004120 459.771027,213.508133 459.775665,174.012131 
	C459.779205,144.015228 459.690216,114.017776 459.846924,84.021637 
	C459.922119,69.627159 445.718597,53.816811 429.644562,53.853569 
	C314.990112,54.115746 200.333847,54.220982 85.680740,53.749966 
	C68.336777,53.678715 53.766762,70.547668 53.810562,85.483490 
	C54.144833,199.470947 54.119434,313.460144 53.846256,427.447906 
	C53.809074,442.963135 66.508850,459.678589 86.110016,459.674133 
	C199.598495,459.648315 313.087219,459.527893 426.575195,459.760162 
	C445.681152,459.799286 460.119476,444.360199 459.927307,426.485016 
	C459.450806,382.161316 459.773132,337.829010 459.774536,292.500122 
z"/>
<path fill="#F4F4F4" opacity="1.000000" stroke="none" 
	d="
M459.774536,293.000153 
	C459.773132,337.829010 459.450806,382.161316 459.927307,426.485016 
	C460.119476,444.360199 445.681152,459.799286 426.575195,459.760162 
	C313.087219,459.527893 199.598495,459.648315 86.110016,459.674133 
	C66.508850,459.678589 53.809074,442.963135 53.846256,427.447906 
	C54.119434,313.460144 54.144833,199.470947 53.810562,85.483490 
	C53.766762,70.547668 68.336777,53.678715 85.680740,53.749966 
	C200.333847,54.220982 314.990112,54.115746 429.644562,53.853569 
	C445.718597,53.816811 459.922119,69.627159 459.846924,84.021637 
	C459.690216,114.017776 459.779205,144.015228 459.775665,174.012131 
	C459.771027,213.508133 459.774536,253.004120 459.774536,293.000153 
M290.757446,340.519958 
	C290.814545,339.863770 290.871643,339.207550 290.283569,337.902130 
	C289.435455,337.846283 288.587372,337.790466 287.739258,337.734619 
	C287.984314,338.235138 288.229370,338.735657 288.837311,339.734772 
	C289.217377,339.874146 289.597412,340.013519 290.757446,340.519958 
M379.368103,337.138062 
	C379.368103,337.138062 379.436676,337.129608 380.136505,337.007233 
	C381.635132,335.660522 383.133789,334.313782 385.255341,332.667023 
	C395.816010,325.059021 403.598083,315.425201 407.653320,302.864166 
	C411.515625,290.900635 404.348083,278.050995 391.955444,275.828400 
	C366.421875,271.249023 342.749176,276.917755 319.893005,289.523773 
	C319.607697,289.728333 319.322357,289.932861 318.364014,290.247437 
	C315.807373,292.139282 313.250732,294.031128 310.591614,296.001160 
	C310.591614,296.001160 310.498413,296.090179 309.831604,296.328644 
	C303.709351,300.944244 297.973663,305.936890 295.624695,313.577240 
	C295.258514,314.768372 296.362610,316.411530 296.786804,317.845612 
	C297.873505,316.901123 299.863525,315.994324 299.904755,315.006256 
	C300.250275,306.727631 306.183075,302.354736 311.885681,297.416046 
	C311.885681,297.416046 312.023834,297.094269 312.672913,296.856476 
	C315.341339,295.007629 318.009766,293.158752 320.995789,291.290894 
	C321.208191,291.219910 321.366791,291.085449 322.238739,290.804321 
	C325.467682,289.475281 328.648926,288.012604 331.933533,286.839417 
	C349.912262,280.417847 368.048218,275.197540 387.512604,278.909851 
	C396.436340,280.611816 402.509094,287.185364 402.306976,296.179077 
	C402.226410,299.764404 401.911743,303.814667 400.209015,306.801147 
	C395.889893,314.376556 390.725494,321.470062 385.363434,328.968384 
	C385.152557,329.277985 384.941711,329.587616 384.232910,330.093536 
	C383.895111,330.502045 383.557281,330.910553 382.650787,331.601685 
	C381.196014,332.882843 379.741272,334.164001 377.821167,335.696136 
	C377.593781,335.953613 377.366394,336.211121 376.306854,336.784363 
	C376.124695,337.656586 375.942535,338.528839 375.760345,339.401031 
	C376.984863,338.662628 378.209381,337.924225 379.368103,337.138062 
M289.948853,371.045105 
	C288.333710,371.023834 286.718536,371.002563 284.403900,370.750763 
	C284.567505,369.809174 284.458038,368.269653 284.949219,368.045349 
	C286.122345,367.509552 287.578613,367.593811 288.920563,367.427704 
	C288.937408,367.071686 288.954224,366.715668 288.971039,366.359619 
	C287.040131,365.797485 285.109222,365.235352 283.178314,364.673218 
	C283.209412,364.295135 283.240479,363.917053 283.271576,363.538971 
	C286.530487,363.195740 289.789398,362.852509 293.048309,362.509247 
	C292.998260,362.076111 292.948212,361.642944 292.898132,361.209778 
	C288.756836,361.209778 284.615540,361.209778 280.005920,361.209778 
	C280.005920,364.272705 280.151093,367.077911 279.968018,369.861481 
	C279.754211,373.113251 281.449158,373.491211 284.868073,373.131256 
	C287.603058,372.757568 290.338043,372.383850 292.920013,371.220215 
	C292.064331,371.388916 291.208679,371.557617 289.948853,371.045105 
M247.295807,252.482391 
	C254.295822,256.395294 261.279724,257.506989 268.964233,252.350800 
	C270.974182,251.556076 272.984161,250.761353 275.727936,249.944321 
	C278.623352,248.738602 281.518768,247.532883 285.080811,246.205414 
	C288.419037,241.478088 291.757233,236.750763 295.700348,231.740692 
	C298.824707,226.832535 301.949036,221.924377 305.645294,216.409225 
	C305.191040,210.946289 304.736786,205.483368 304.013550,199.461655 
	C303.671844,199.286362 303.330139,199.111069 303.015045,199.000885 
	C303.015045,199.000885 303.079681,198.973114 303.143311,198.264328 
	C288.329102,178.873764 273.514893,159.483200 258.274689,139.535049 
	C251.692001,148.092987 245.532700,156.091721 239.382874,164.097763 
	C230.487930,175.677521 221.599884,187.262573 211.932114,199.011520 
	C211.626831,201.670929 211.321533,204.330353 210.944473,207.871368 
	C211.173050,210.921295 211.401627,213.971237 211.871811,217.708374 
	C215.456116,222.862274 219.040405,228.016159 222.875046,233.831024 
	C226.257507,238.200897 229.639969,242.570770 233.683441,247.211716 
	C236.605240,248.193008 239.527054,249.174301 242.948242,250.689056 
	C244.279892,251.155930 245.611542,251.622818 247.295807,252.482391 
M318.086548,314.091827 
	C310.107056,323.285065 304.838593,333.696045 304.171082,346.304291 
	C301.135376,344.689301 298.551636,343.314728 295.967926,341.940186 
	C295.692200,342.352203 295.416473,342.764221 295.140778,343.176239 
	C296.630341,344.545532 298.283813,345.776703 299.577209,347.311371 
	C302.791412,351.125153 304.502594,355.287445 311.201202,356.338928 
	C317.845001,357.381775 324.363800,359.622955 331.150024,358.546051 
	C345.198151,356.316833 358.233521,351.085754 370.563354,344.078186 
	C371.615479,343.480194 372.365662,342.350922 373.256104,341.468475 
	C372.936310,341.028503 372.616486,340.588562 372.296661,340.148590 
	C370.822632,340.895294 369.355469,341.655975 367.873444,342.386536 
	C353.903351,349.272614 339.705322,355.236420 323.577057,353.779053 
	C313.233795,352.844452 308.434875,346.725739 310.157379,336.471588 
	C311.498688,328.486542 314.889008,321.458771 320.529480,314.759125 
	C326.958893,309.923706 333.244843,304.875671 339.904663,300.381714 
	C341.916107,299.024445 344.993195,299.312378 347.527405,298.640228 
	C349.160858,298.206970 350.866089,297.627716 352.187531,296.642303 
	C352.707062,296.254883 352.699677,293.997101 352.179047,293.613617 
	C350.983795,292.733215 349.355530,292.242676 347.845612,292.054688 
	C346.774628,291.921295 345.548157,292.396515 344.496582,292.846649 
	C333.898743,297.383240 325.539124,304.686493 318.086548,314.091827 
M221.117767,332.082642 
	C221.290817,332.226257 221.463882,332.369873 221.422852,333.174408 
	C218.217514,338.975403 214.770401,344.663910 211.981873,350.658813 
	C211.309967,352.103302 212.819733,354.562592 213.326202,356.555206 
	C214.924774,355.521881 217.209854,354.848175 217.978882,353.380249 
	C219.574646,350.334290 220.217468,346.807190 221.512985,343.582703 
	C227.465775,328.766479 236.199112,315.624756 246.148926,303.247498 
	C252.919250,294.825409 259.767670,286.465485 266.663605,278.146088 
	C267.308594,277.367950 268.637817,276.516907 269.496002,276.654694 
	C277.968262,278.015045 286.795868,278.499146 294.756470,281.362244 
	C304.166534,284.746643 304.598297,292.814758 295.927948,297.998749 
	C288.119446,302.667419 279.570892,306.115112 271.283264,309.960205 
	C265.402008,312.688782 259.321838,315.002136 253.525650,317.892273 
	C251.808121,318.748688 250.753372,320.934296 249.394943,322.510864 
	C251.130814,323.854340 252.674393,325.691589 254.635956,326.455536 
	C262.983276,329.706238 271.452698,332.643738 279.881226,335.685394 
	C282.411255,336.598419 284.953186,337.478424 287.489655,338.373566 
	C287.750519,337.799316 288.011383,337.225067 288.272247,336.650848 
	C278.323029,331.768860 268.373810,326.886871 258.424622,322.004883 
	C258.378296,321.487579 258.332001,320.970245 258.285675,320.452942 
	C262.000305,318.462585 265.686676,316.417328 269.434875,314.492371 
	C279.925446,309.104767 290.572754,304.003601 300.881317,298.289886 
	C304.859741,296.084717 309.374756,292.876984 308.771332,287.616699 
	C308.131317,282.037384 303.071472,279.253632 298.270355,278.092255 
	C290.083771,276.111969 281.635620,275.218689 273.305420,273.820892 
	C271.770477,273.563324 270.287384,273.005402 268.755463,272.719269 
	C267.014252,272.393982 265.191650,271.831757 263.500305,272.065704 
	C260.790833,272.440521 258.193665,273.570892 255.490692,274.058350 
	C243.887863,276.150909 232.219894,277.912811 220.678421,280.293365 
	C217.821899,280.882599 215.350632,283.339569 211.645233,285.575928 
	C217.316986,288.420502 221.033157,287.612305 224.329468,285.030396 
	C234.379181,277.158691 246.466568,279.027771 258.107208,277.448029 
	C256.931061,281.119019 255.635117,284.369354 253.678894,287.156189 
	C246.027115,298.056946 237.843887,308.598450 230.519730,319.709534 
	C226.853989,325.270691 222.182358,328.719208 216.069717,330.241730 
	C213.232544,330.948395 210.075043,330.369110 207.062759,330.372772 
	C207.968552,327.803467 208.725739,325.168365 209.825394,322.684906 
	C210.767853,320.556488 213.664429,318.672913 210.759262,316.227936 
	C208.060776,313.956879 205.995239,316.139587 203.690079,317.569641 
	C197.206161,321.592224 190.638916,325.498047 183.933533,329.134583 
	C182.112823,330.122040 179.686096,329.992035 177.537506,330.374939 
	C177.153809,329.830261 176.770111,329.285614 176.386414,328.740936 
	C178.399979,326.111359 180.520416,323.554749 182.385773,320.823914 
	C183.451126,319.264252 184.100906,317.420746 184.937790,315.705048 
	C182.862015,316.071228 179.985428,315.716583 178.874252,316.951019 
	C176.430069,319.666321 174.544266,323.039734 173.075409,326.424377 
	C172.047256,328.793579 172.086029,331.625763 171.648300,334.251160 
	C174.463104,334.436920 177.695923,335.603424 180.011002,334.616730 
	C185.944519,332.087860 191.481552,328.622589 197.152802,325.487762 
	C199.211502,324.349792 201.201187,323.086945 204.160889,321.321136 
	C203.484253,324.063995 202.740875,325.514832 202.869308,326.883850 
	C203.132401,329.688385 203.001724,333.334534 204.667084,334.954895 
	C206.065720,336.315735 209.896622,335.789032 212.441055,335.197021 
	C215.292343,334.533569 217.907837,332.856750 221.117767,332.082642 
M128.413391,330.172882 
	C128.088348,337.039734 123.749481,341.961060 120.302078,347.389526 
	C115.767624,354.529694 111.573463,361.890869 107.411446,369.257843 
	C106.707893,370.503174 106.903160,372.256317 106.631035,374.134674 
	C111.752861,373.841187 112.805832,370.614532 114.041527,367.240540 
	C115.678474,362.770966 117.279030,358.185486 119.701225,354.131378 
	C122.930397,348.726593 126.779221,343.661346 130.705475,338.723450 
	C131.805695,337.339783 134.085144,336.240448 135.872757,336.164398 
	C146.214233,335.724213 155.934479,333.243958 164.844009,327.971008 
	C168.326172,325.910126 172.005127,323.171844 170.853012,318.611694 
	C169.642487,313.820312 165.011292,313.858063 160.961319,313.885284 
	C159.318604,313.896301 157.635254,314.149384 156.045456,314.573669 
	C151.120972,315.887909 146.232544,317.337280 141.800125,318.600281 
	C140.929520,317.070892 140.118256,315.645721 139.306992,314.220581 
	C137.706894,315.249359 135.865067,316.050110 134.598022,317.393097 
	C133.846741,318.189423 134.240219,319.953979 133.703690,321.086426 
	C132.298309,324.052643 130.664963,326.910858 128.413391,330.172882 
M266.661743,360.739136 
	C263.748962,360.739136 260.836151,360.739136 257.631378,360.739136 
	C257.631378,364.567413 257.541992,367.701477 257.695496,370.823639 
	C257.732910,371.584686 258.567871,372.306488 259.036133,373.046356 
	C259.660645,372.453247 260.441162,371.953278 260.866547,371.241211 
	C261.305481,370.506470 261.398987,369.565308 261.750916,368.341309 
	C265.097290,370.242828 268.013031,371.899689 270.928772,373.556519 
	C271.286438,373.004456 271.644104,372.452393 272.001740,371.900330 
	C270.844879,371.238464 269.687988,370.576599 269.808105,370.645325 
	C270.640076,367.444611 271.680939,365.261963 271.530609,363.164673 
	C271.466156,362.265167 268.925323,361.543152 266.661743,360.739136 
M219.029922,368.388458 
	C219.694199,368.391022 220.358475,368.392059 221.022736,368.396454 
	C223.619537,368.413635 226.104202,368.483704 226.103378,364.698914 
	C226.102600,361.087738 223.720444,360.847931 221.142975,360.787781 
	C218.204468,360.719177 215.263123,360.771912 212.411865,360.771912 
	C212.411865,364.920258 212.411865,368.492432 212.411865,371.601410 
	C214.541824,370.422424 216.391266,369.398712 219.029922,368.388458 
M234.127106,364.078369 
	C234.132385,373.270569 234.132401,373.271790 243.310226,373.165863 
	C244.305817,373.154358 245.460495,373.427277 246.256744,373.016510 
	C247.284134,372.486572 248.679916,371.464539 248.769897,370.542511 
	C249.079330,367.371368 248.888809,364.151428 248.888809,360.950104 
	C248.140732,360.853027 247.392670,360.755951 246.644592,360.658875 
	C246.101791,363.897339 245.559006,367.135834 245.000809,370.466248 
	C242.550522,370.466248 240.292221,370.466248 237.439758,370.466248 
	C237.439758,367.927948 237.586121,365.633240 237.367371,363.373901 
	C237.280472,362.476288 236.384354,361.657043 235.856659,360.802124 
	C235.281372,361.623169 234.706085,362.444183 234.127106,364.078369 
M159.995789,361.176514 
	C161.920517,364.783142 163.732788,368.459991 165.892746,371.919800 
	C166.212112,372.431366 168.873672,372.382721 169.262421,371.799988 
	C171.488205,368.463440 173.354630,364.887115 175.343033,361.392212 
	C174.782181,361.009155 174.221329,360.626129 173.660477,360.243103 
	C171.630997,363.034058 169.601532,365.825043 167.955963,368.088043 
	C165.475311,365.639435 163.023026,363.218811 159.995789,361.176514 
M193.147537,373.131927 
	C194.074646,372.823730 195.001755,372.515564 195.928848,372.207367 
	C195.887589,371.898468 195.846313,371.589539 195.805054,371.280609 
	C192.464310,370.870819 189.123581,370.461060 185.782852,370.051270 
	C185.833206,369.548798 185.883560,369.046295 185.933914,368.543823 
	C187.795227,368.104736 189.656525,367.665649 191.517822,367.226562 
	C191.508011,366.841614 191.498199,366.456665 191.488373,366.071716 
	C189.828903,365.773987 188.169434,365.476257 187.043701,365.274292 
	C185.916290,363.892883 185.052017,362.833923 184.187775,361.774933 
	C183.637299,363.085052 182.758789,364.358887 182.608932,365.713287 
	C182.347961,368.071960 182.536316,370.480347 182.536316,373.136658 
	C186.305222,373.136658 189.265106,373.136658 193.147537,373.131927 
M129.180313,363.311310 
	C129.180313,366.402863 129.180313,369.494385 129.180313,372.305115 
	C133.789322,372.305115 137.831894,372.305115 141.874451,372.305115 
	C141.851593,371.878357 141.828735,371.451630 141.805878,371.024872 
	C138.799759,370.846191 135.793640,370.667511 132.397278,370.465607 
	C132.397278,367.549561 132.758118,365.031189 132.305252,362.668823 
	C131.748474,359.764313 130.379425,359.986145 129.180313,363.311310 
M151.950119,368.377197 
	C151.207809,365.909668 153.585464,362.374481 149.211395,360.301361 
	C149.211395,365.025330 149.211395,368.975189 149.211395,372.925049 
	C149.714142,373.060181 150.216873,373.195343 150.719620,373.330505 
	C151.129730,371.988342 151.539856,370.646149 151.950119,368.377197 
M372.650726,339.552643 
	C372.935364,340.250153 373.220001,340.947632 373.504608,341.645142 
	C374.268097,340.929993 375.031555,340.214844 375.795044,339.499695 
	C375.090973,339.255463 374.386902,339.011230 372.650726,339.552643 
z"/>
<path fill="#1A506B" opacity="1.000000" stroke="none" 
	d="
M220.625931,331.620850 
	C217.907837,332.856750 215.292343,334.533569 212.441055,335.197021 
	C209.896622,335.789032 206.065720,336.315735 204.667084,334.954895 
	C203.001724,333.334534 203.132401,329.688385 202.869308,326.883850 
	C202.740875,325.514832 203.484253,324.063995 204.160889,321.321136 
	C201.201187,323.086945 199.211502,324.349792 197.152802,325.487762 
	C191.481552,328.622589 185.944519,332.087860 180.011002,334.616730 
	C177.695923,335.603424 174.463104,334.436920 171.648300,334.251160 
	C172.086029,331.625763 172.047256,328.793579 173.075409,326.424377 
	C174.544266,323.039734 176.430069,319.666321 178.874252,316.951019 
	C179.985428,315.716583 182.862015,316.071228 184.937805,315.705048 
	C184.100906,317.420746 183.451126,319.264252 182.385773,320.823914 
	C180.520416,323.554749 178.399979,326.111359 176.386414,328.740936 
	C176.770111,329.285614 177.153809,329.830261 177.537506,330.374939 
	C179.686096,329.992035 182.112823,330.122040 183.933533,329.134583 
	C190.638916,325.498047 197.206161,321.592224 203.690079,317.569641 
	C205.995239,316.139587 208.060776,313.956879 210.759262,316.227936 
	C213.664429,318.672913 210.767853,320.556488 209.825394,322.684906 
	C208.725739,325.168365 207.968552,327.803467 207.062759,330.372772 
	C210.075043,330.369110 213.232544,330.948395 216.069717,330.241730 
	C222.182358,328.719208 226.853989,325.270691 230.519730,319.709534 
	C237.843887,308.598450 246.027115,298.056946 253.678894,287.156189 
	C255.635117,284.369354 256.931061,281.119019 258.107208,277.448029 
	C246.466568,279.027771 234.379181,277.158691 224.329468,285.030396 
	C221.033157,287.612305 217.316986,288.420502 211.645233,285.575928 
	C215.350632,283.339569 217.821899,280.882599 220.678421,280.293365 
	C232.219894,277.912811 243.887863,276.150909 255.490692,274.058350 
	C258.193665,273.570892 260.790833,272.440521 263.500305,272.065704 
	C265.191650,271.831757 267.014252,272.393982 268.755463,272.719269 
	C270.287384,273.005402 271.770477,273.563324 273.305420,273.820892 
	C281.635620,275.218689 290.083771,276.111969 298.270355,278.092255 
	C303.071472,279.253632 308.131317,282.037384 308.771332,287.616699 
	C309.374756,292.876984 304.859741,296.084717 300.881317,298.289886 
	C290.572754,304.003601 279.925446,309.104767 269.434875,314.492371 
	C265.686676,316.417328 262.000305,318.462585 258.285675,320.452942 
	C258.332001,320.970245 258.378296,321.487579 258.424622,322.004883 
	C268.373810,326.886871 278.323029,331.768860 288.272247,336.650848 
	C288.011383,337.225067 287.750519,337.799316 287.489655,338.373566 
	C284.953186,337.478424 282.411255,336.598419 279.881226,335.685394 
	C271.452698,332.643738 262.983276,329.706238 254.635956,326.455536 
	C252.674393,325.691589 251.130814,323.854340 249.394928,322.510864 
	C250.753372,320.934296 251.808121,318.748688 253.525650,317.892273 
	C259.321838,315.002136 265.402008,312.688782 271.283264,309.960205 
	C279.570892,306.115112 288.119446,302.667419 295.927948,297.998749 
	C304.598297,292.814758 304.166534,284.746643 294.756470,281.362244 
	C286.795868,278.499146 277.968262,278.015045 269.496002,276.654694 
	C268.637817,276.516907 267.308594,277.367950 266.663605,278.146088 
	C259.767670,286.465485 252.919250,294.825409 246.148926,303.247498 
	C236.199112,315.624756 227.465775,328.766479 221.512985,343.582703 
	C220.217468,346.807190 219.574646,350.334290 217.978882,353.380249 
	C217.209854,354.848175 214.924774,355.521881 213.326202,356.555206 
	C212.819733,354.562592 211.309967,352.103302 211.981873,350.658813 
	C214.770401,344.663910 218.217514,338.975403 221.707092,332.599304 
	C221.941406,331.754456 221.891464,331.484772 221.841522,331.215057 
	C221.436325,331.350311 221.031128,331.485596 220.625931,331.620850 
z"/>
<path fill="#0A9FDB" opacity="1.000000" stroke="none" 
	d="
M212.708893,198.845367 
	C221.599884,187.262573 230.487930,175.677521 239.382874,164.097763 
	C245.532700,156.091721 251.692001,148.092987 258.274689,139.535049 
	C273.514893,159.483200 288.329102,178.873764 302.732849,198.655579 
	C298.858215,197.452820 295.394043,195.858841 291.651550,194.046814 
	C286.884216,191.243088 282.395264,188.657379 276.834167,185.454132 
	C276.834167,190.467133 277.080109,194.238800 276.768646,197.963867 
	C276.420441,202.128677 275.566772,206.251236 274.641907,210.190338 
	C269.223511,206.630203 264.096222,203.271942 258.613770,199.843079 
	C255.466873,201.653305 252.675156,203.534103 249.555908,205.527649 
	C247.798721,206.673004 246.369049,207.705612 244.618500,208.830902 
	C243.547333,209.406937 242.797058,209.890259 241.683304,210.169693 
	C240.612610,202.327179 239.905396,194.688553 239.088531,185.865524 
	C233.846375,189.003082 229.236969,191.761917 224.286240,194.617706 
	C220.199585,196.091553 216.454239,197.468460 212.708893,198.845367 
M252.275497,167.357346 
	C252.500320,166.235321 252.725159,165.113312 253.089905,163.239716 
	C254.110870,158.872101 255.131836,154.504486 256.450348,149.963791 
	C256.473846,149.834106 256.497375,149.704407 256.520905,149.574738 
	C256.319977,149.685165 256.119080,149.795593 255.322159,150.229538 
	C252.535950,154.482086 249.749756,158.734634 246.383286,163.310455 
	C245.517365,164.865036 244.651443,166.419601 243.293625,168.235947 
	C242.829285,168.808456 242.364944,169.380951 241.325027,170.309998 
	C239.854782,172.539398 238.384552,174.768799 236.159683,178.142471 
	C240.556931,177.643097 243.421310,177.006180 246.269623,177.071381 
	C250.024475,177.157318 251.364075,175.511917 251.066605,171.315231 
	C251.373184,170.207428 251.679779,169.099625 252.275497,167.357346 
M261.082336,195.684128 
	C264.378601,198.210861 267.674866,200.737610 271.815735,203.911774 
	C272.674500,199.110001 273.301514,195.604019 273.994415,191.263611 
	C274.337524,188.178940 274.680634,185.094269 275.497406,181.580704 
	C274.610260,179.348129 273.840393,177.060089 272.815521,174.892624 
	C268.531494,165.832306 264.170929,156.808167 259.169098,146.374680 
	C256.952789,160.967026 254.975342,173.986603 252.721405,187.640259 
	C252.436951,191.451996 255.146469,193.898422 261.082336,195.684128 
z"/>
<path fill="#184F6A" opacity="1.000000" stroke="none" 
	d="
M128.767944,329.992493 
	C130.664963,326.910858 132.298309,324.052643 133.703690,321.086426 
	C134.240219,319.953979 133.846741,318.189423 134.598022,317.393097 
	C135.865067,316.050110 137.706894,315.249359 139.306976,314.220581 
	C140.118256,315.645721 140.929520,317.070892 141.800125,318.600281 
	C146.232544,317.337280 151.120972,315.887909 156.045456,314.573669 
	C157.635254,314.149384 159.318604,313.896301 160.961319,313.885284 
	C165.011292,313.858063 169.642487,313.820312 170.853012,318.611694 
	C172.005127,323.171844 168.326172,325.910126 164.844009,327.971008 
	C155.934479,333.243958 146.214233,335.724213 135.872757,336.164398 
	C134.085144,336.240448 131.805695,337.339783 130.705475,338.723450 
	C126.779221,343.661346 122.930397,348.726593 119.701225,354.131378 
	C117.279030,358.185486 115.678474,362.770966 114.041527,367.240540 
	C112.805832,370.614532 111.752861,373.841187 106.631035,374.134674 
	C106.903160,372.256317 106.707893,370.503174 107.411446,369.257843 
	C111.573463,361.890869 115.767624,354.529694 120.302078,347.389526 
	C123.749481,341.961060 128.088348,337.039734 128.767944,329.992493 
M134.395630,333.360382 
	C146.821274,332.395996 157.374924,327.708740 166.259384,318.248444 
	C157.698456,314.338715 140.805191,322.408356 134.395630,333.360382 
z"/>
<path fill="#184F6A" opacity="1.000000" stroke="none" 
	d="
M385.899597,328.756531 
	C390.725494,321.470062 395.889893,314.376556 400.209015,306.801147 
	C401.911743,303.814667 402.226410,299.764404 402.306976,296.179077 
	C402.509094,287.185364 396.436340,280.611816 387.512604,278.909851 
	C368.048218,275.197540 349.912262,280.417847 331.933533,286.839417 
	C328.648926,288.012604 325.467682,289.475281 321.608704,290.451874 
	C320.785919,289.857971 320.593140,289.616516 320.400330,289.375061 
	C342.749176,276.917755 366.421875,271.249023 391.955444,275.828400 
	C404.348083,278.050995 411.515625,290.900635 407.653320,302.864166 
	C403.598083,315.425201 395.816010,325.059021 384.611816,332.386536 
	C383.718689,331.843689 383.469055,331.581360 383.219482,331.319031 
	C383.557281,330.910553 383.895111,330.502045 384.758270,329.902466 
	C385.488953,329.393097 385.694275,329.074829 385.899597,328.756531 
z"/>
<path fill="#164D69" opacity="1.000000" stroke="none" 
	d="
M320.145905,315.317444 
	C314.889008,321.458771 311.498688,328.486542 310.157379,336.471588 
	C308.434875,346.725739 313.233795,352.844452 323.577057,353.779053 
	C339.705322,355.236420 353.903351,349.272614 367.873444,342.386536 
	C369.355469,341.655975 370.822632,340.895294 372.296661,340.148590 
	C372.616486,340.588562 372.936310,341.028503 373.256104,341.468475 
	C372.365662,342.350922 371.615479,343.480194 370.563354,344.078186 
	C358.233521,351.085754 345.198151,356.316833 331.150024,358.546051 
	C324.363800,359.622955 317.845001,357.381775 311.201202,356.338928 
	C304.502594,355.287445 302.791412,351.125153 299.577209,347.311371 
	C298.283813,345.776703 296.630341,344.545532 295.140778,343.176239 
	C295.416473,342.764221 295.692200,342.352203 295.967926,341.940186 
	C298.551636,343.314728 301.135376,344.689301 304.171082,346.304291 
	C304.838593,333.696045 310.107056,323.285065 318.698792,314.154114 
	C319.589325,314.583405 319.867615,314.950409 320.145905,315.317444 
z"/>
<path fill="#A6DEF6" opacity="1.000000" stroke="none" 
	d="
M224.627563,194.520752 
	C229.236969,191.761917 233.846375,189.003082 239.088531,185.865524 
	C239.905396,194.688553 240.612610,202.327179 241.554031,210.404602 
	C241.190765,211.229492 240.593277,211.615601 239.638168,212.052414 
	C234.516815,214.061584 229.753098,216.020050 224.977936,217.556671 
	C224.521332,213.918869 224.076202,210.702881 223.631073,207.486893 
	C223.130219,207.205719 222.629349,206.924561 222.128494,206.643387 
	C219.445587,210.057816 216.762680,213.472244 213.674469,216.928558 
	C212.722839,216.987381 212.176529,217.004272 211.630203,217.021164 
	C211.401627,213.971237 211.173050,210.921295 211.346405,207.429779 
	C215.764145,204.211197 219.885803,201.568512 223.713196,198.552414 
	C224.554535,197.889404 224.350311,195.899582 224.627563,194.520752 
z"/>
<path fill="#43B2E3" opacity="1.000000" stroke="none" 
	d="
M295.095459,232.023438 
	C291.757233,236.750763 288.419037,241.478088 284.630066,246.172531 
	C284.179352,246.139648 283.960052,245.939987 283.939148,245.598328 
	C280.590851,241.807861 277.263458,238.359055 273.982849,234.630051 
	C274.075195,233.975189 274.120758,233.600525 274.240723,232.955963 
	C274.349335,232.502563 274.383545,232.319092 274.541321,231.988922 
	C274.519989,231.530106 274.375092,231.217957 274.286865,230.615143 
	C274.627258,229.601974 274.910980,228.879471 275.528015,228.082153 
	C277.839020,225.493362 279.638367,222.805389 281.859253,220.528625 
	C283.259674,219.092987 285.290619,218.272400 286.994171,217.510147 
	C285.198364,220.516220 283.447144,223.188065 281.695892,225.859909 
	C282.127441,226.217926 282.558990,226.575928 282.990540,226.933945 
	C286.005920,224.614731 289.021271,222.295517 292.315613,220.274078 
	C292.735107,222.367081 292.673462,224.208252 293.068542,225.945602 
	C293.539764,228.018021 294.402374,230.001465 295.095459,232.023438 
z"/>
<path fill="#7DD0F4" opacity="1.000000" stroke="none" 
	d="
M291.929871,194.264847 
	C295.394043,195.858841 298.858215,197.452820 302.701050,199.009964 
	C303.079681,198.973114 303.015045,199.000885 303.149841,199.216309 
	C303.617249,199.627960 303.949890,199.824188 304.282532,200.020416 
	C304.736786,205.483368 305.191040,210.946289 304.923920,216.707550 
	C300.468781,217.338623 296.734985,217.671371 292.994568,217.535156 
	C292.635223,209.465759 292.282562,201.865295 291.929871,194.264847 
z"/>
<path fill="#1A506B" opacity="1.000000" stroke="none" 
	d="
M320.337708,315.038269 
	C319.867615,314.950409 319.589325,314.583405 319.011475,314.038452 
	C325.539124,304.686493 333.898743,297.383240 344.496582,292.846649 
	C345.548157,292.396515 346.774628,291.921295 347.845612,292.054688 
	C349.355530,292.242676 350.983795,292.733215 352.179047,293.613617 
	C352.699677,293.997101 352.707062,296.254883 352.187531,296.642303 
	C350.866089,297.627716 349.160858,298.206970 347.527405,298.640228 
	C344.993195,299.312378 341.916107,299.024445 339.904663,300.381714 
	C333.244843,304.875671 326.958893,309.923706 320.337708,315.038269 
z"/>
<path fill="#2A5B74" opacity="1.000000" stroke="none" 
	d="
M267.085693,360.739807 
	C268.925323,361.543152 271.466156,362.265167 271.530609,363.164673 
	C271.680939,365.261963 270.640076,367.444611 269.808105,370.645325 
	C269.687988,370.576599 270.844879,371.238464 272.001740,371.900330 
	C271.644104,372.452393 271.286438,373.004456 270.928772,373.556519 
	C268.013031,371.899689 265.097290,370.242828 261.750916,368.341309 
	C261.398987,369.565308 261.305481,370.506470 260.866547,371.241211 
	C260.441162,371.953278 259.660645,372.453247 259.036133,373.046356 
	C258.567871,372.306488 257.732910,371.584686 257.695496,370.823639 
	C257.541992,367.701477 257.631378,364.567413 257.631378,360.739136 
	C260.836151,360.739136 263.748962,360.739136 267.085693,360.739807 
z"/>
<path fill="#5492C3" opacity="1.000000" stroke="none" 
	d="
M242.448853,250.155609 
	C239.527054,249.174301 236.605240,248.193008 233.341614,246.839905 
	C232.999786,246.468079 233.011414,245.994812 233.478622,246.015198 
	C241.819138,245.978714 249.692459,245.921844 257.866516,245.876373 
	C259.111816,245.590912 260.056335,245.294022 261.299927,245.288483 
	C269.052643,245.699890 276.506348,245.819946 283.960052,245.940002 
	C283.960052,245.939987 284.179352,246.139648 284.296783,246.233398 
	C281.518768,247.532883 278.623352,248.738602 275.276672,249.589661 
	C274.002869,248.862564 273.168732,248.145859 272.359619,248.173126 
	C266.780762,248.361221 261.203247,248.645950 255.633102,249.016739 
	C251.232574,249.309677 246.843185,249.769745 242.448853,250.155609 
z"/>
<path fill="#1E536D" opacity="1.000000" stroke="none" 
	d="
M218.635315,368.381714 
	C216.391266,369.398712 214.541824,370.422424 212.411865,371.601410 
	C212.411865,368.492432 212.411865,364.920258 212.411865,360.771912 
	C215.263123,360.771912 218.204468,360.719177 221.142975,360.787781 
	C223.720444,360.847931 226.102600,361.087738 226.103378,364.698914 
	C226.104202,368.483704 223.619537,368.413635 221.022736,368.396454 
	C220.358475,368.392059 219.694199,368.391022 218.635315,368.381714 
z"/>
<path fill="#2A5B74" opacity="1.000000" stroke="none" 
	d="
M234.128937,363.671814 
	C234.706085,362.444183 235.281372,361.623169 235.856659,360.802124 
	C236.384354,361.657043 237.280472,362.476288 237.367371,363.373901 
	C237.586121,365.633240 237.439758,367.927948 237.439758,370.466248 
	C240.292221,370.466248 242.550522,370.466248 245.000809,370.466248 
	C245.559006,367.135834 246.101791,363.897339 246.644592,360.658875 
	C247.392670,360.755951 248.140732,360.853027 248.888809,360.950104 
	C248.888809,364.151428 249.079330,367.371368 248.769897,370.542511 
	C248.679916,371.464539 247.284134,372.486572 246.256744,373.016510 
	C245.460495,373.427277 244.305817,373.154358 243.310226,373.165863 
	C234.132401,373.271790 234.132385,373.270569 234.128937,363.671814 
z"/>
<path fill="#6BC3EC" opacity="1.000000" stroke="none" 
	d="
M293.001221,218.004120 
	C296.734985,217.671371 300.468781,217.338623 304.637970,217.011047 
	C301.949036,221.924377 298.824707,226.832535 295.397888,231.882080 
	C294.402374,230.001465 293.539764,228.018021 293.068542,225.945602 
	C292.673462,224.208252 292.735107,222.367081 292.281860,220.015869 
	C291.867462,219.130524 291.765686,218.801178 291.993927,218.342529 
	C292.549683,218.143524 292.775452,218.073822 293.001221,218.004120 
z"/>
<path fill="#6BC3EC" opacity="1.000000" stroke="none" 
	d="
M211.751007,217.364777 
	C212.176529,217.004272 212.722839,216.987381 214.057037,216.978546 
	C217.919540,217.655060 220.994171,218.323502 224.039825,219.000107 
	C224.010849,219.008270 224.035156,218.953186 224.011078,219.390778 
	C224.036087,221.868668 224.085144,223.908981 224.094101,226.284958 
	C224.051636,227.069489 224.049271,227.518341 224.032440,228.385986 
	C224.021744,230.200851 224.025497,231.596954 223.676849,233.027298 
	C223.091217,233.097717 222.857971,233.133881 222.624710,233.170059 
	C219.040405,228.016159 215.456116,222.862274 211.751007,217.364777 
z"/>
<path fill="#2A5B74" opacity="1.000000" stroke="none" 
	d="
M160.283264,360.987366 
	C163.023026,363.218811 165.475311,365.639435 167.955963,368.088043 
	C169.601532,365.825043 171.630997,363.034058 173.660477,360.243103 
	C174.221329,360.626129 174.782181,361.009155 175.343033,361.392212 
	C173.354630,364.887115 171.488205,368.463440 169.262421,371.799988 
	C168.873672,372.382721 166.212112,372.431366 165.892746,371.919800 
	C163.732788,368.459991 161.920517,364.783142 160.283264,360.987366 
z"/>
<path fill="#1E536D" opacity="1.000000" stroke="none" 
	d="
M192.686264,373.134277 
	C189.265106,373.136658 186.305222,373.136658 182.536316,373.136658 
	C182.536316,370.480347 182.347961,368.071960 182.608932,365.713287 
	C182.758789,364.358887 183.637299,363.085052 184.187759,361.774933 
	C185.052017,362.833923 185.916290,363.892883 187.043701,365.274292 
	C188.169434,365.476257 189.828903,365.773987 191.488373,366.071716 
	C191.498199,366.456665 191.508011,366.841614 191.517822,367.226562 
	C189.656525,367.665649 187.795227,368.104736 185.933914,368.543823 
	C185.883560,369.046295 185.833206,369.548798 185.782852,370.051270 
	C189.123581,370.461060 192.464310,370.870819 195.805054,371.280609 
	C195.846313,371.589539 195.887589,371.898468 195.928848,372.207367 
	C195.001755,372.515564 194.074646,372.823730 192.686264,373.134277 
z"/>
<path fill="#1E536D" opacity="1.000000" stroke="none" 
	d="
M311.562500,297.550262 
	C306.183075,302.354736 300.250275,306.727631 299.904755,315.006256 
	C299.863525,315.994324 297.873505,316.901123 296.786804,317.845642 
	C296.362610,316.411530 295.258514,314.768372 295.624695,313.577240 
	C297.973663,305.936890 303.709351,300.944244 310.407166,296.592987 
	C311.175934,297.088318 311.369202,297.319275 311.562500,297.550262 
z"/>
<path fill="#7DD0F4" opacity="1.000000" stroke="none" 
	d="
M224.286255,194.617706 
	C224.350311,195.899582 224.554535,197.889404 223.713196,198.552414 
	C219.885803,201.568512 215.764145,204.211197 211.382278,206.988968 
	C211.321533,204.330353 211.626831,201.670929 212.320496,198.928436 
	C216.454239,197.468460 220.199585,196.091553 224.286255,194.617706 
z"/>
<path fill="#297FB5" opacity="1.000000" stroke="none" 
	d="
M268.227692,252.362122 
	C261.279724,257.506989 254.295822,256.395294 247.414993,251.982025 
	C251.953751,251.320084 256.377350,250.973282 260.791321,251.069199 
	C263.278290,251.123230 265.749420,251.907059 268.227692,252.362122 
z"/>
<path fill="#184F6A" opacity="1.000000" stroke="none" 
	d="
M283.995544,372.931732 
	C281.449158,373.491211 279.754211,373.113251 279.968018,369.861481 
	C280.151093,367.077911 280.005920,364.272705 280.005920,361.209778 
	C284.615540,361.209778 288.756836,361.209778 292.898132,361.209778 
	C292.948212,361.642944 292.998260,362.076111 293.048309,362.509247 
	C289.789398,362.852509 286.530487,363.195740 283.271576,363.538971 
	C283.240479,363.917053 283.209412,364.295135 283.178314,364.673218 
	C285.109222,365.235352 287.040131,365.797485 288.971039,366.359619 
	C288.954224,366.715668 288.937408,367.071686 288.920563,367.427704 
	C287.578613,367.593811 286.122345,367.509552 284.949219,368.045349 
	C284.458038,368.269653 284.567505,369.809174 284.426880,371.327026 
	C284.298431,372.246094 284.147003,372.588928 283.995544,372.931732 
z"/>
<path fill="#4587BB" opacity="1.000000" stroke="none" 
	d="
M268.595947,252.356461 
	C265.749420,251.907059 263.278290,251.123230 260.791321,251.069199 
	C256.377350,250.973282 251.953751,251.320084 247.238678,251.785675 
	C245.611542,251.622818 244.279892,251.155930 242.698547,250.422333 
	C246.843185,249.769745 251.232574,249.309677 255.633102,249.016739 
	C261.203247,248.645950 266.780762,248.361221 272.359619,248.173126 
	C273.168732,248.145859 274.002869,248.862564 274.909790,249.600800 
	C272.984161,250.761353 270.974182,251.556076 268.595947,252.356461 
z"/>
<path fill="#76BCE5" opacity="1.000000" stroke="none" 
	d="
M222.749878,233.500549 
	C222.857971,233.133881 223.091217,233.097717 224.019852,233.068497 
	C228.559982,235.756378 232.404709,238.437317 236.146683,241.432419 
	C235.033081,243.162659 234.022247,244.578735 233.011414,245.994812 
	C233.011414,245.994812 232.999786,246.468079 233.011108,246.704361 
	C229.639969,242.570770 226.257507,238.200897 222.749878,233.500549 
z"/>
<path fill="#1E536D" opacity="1.000000" stroke="none" 
	d="
M129.189667,362.910126 
	C130.379425,359.986145 131.748474,359.764313 132.305252,362.668823 
	C132.758118,365.031189 132.397278,367.549561 132.397278,370.465607 
	C135.793640,370.667511 138.799759,370.846191 141.805878,371.024872 
	C141.828735,371.451630 141.851593,371.878357 141.874451,372.305115 
	C137.831894,372.305115 133.789322,372.305115 129.180313,372.305115 
	C129.180313,369.494385 129.180313,366.402863 129.189667,362.910126 
z"/>
<path fill="#1E536D" opacity="1.000000" stroke="none" 
	d="
M151.950043,368.840576 
	C151.539856,370.646149 151.129730,371.988342 150.719620,373.330505 
	C150.216873,373.195343 149.714142,373.060181 149.211395,372.925049 
	C149.211395,368.975189 149.211395,365.025330 149.211395,360.301361 
	C153.585464,362.374481 151.207809,365.909668 151.950043,368.840576 
z"/>
<path fill="#2A5B74" opacity="1.000000" stroke="none" 
	d="
M310.694092,295.923004 
	C313.250732,294.031128 315.807373,292.139282 318.919495,290.455017 
	C319.876038,290.878357 320.277130,291.094147 320.678192,291.309906 
	C318.009766,293.158752 315.341339,295.007629 312.192749,296.713867 
	C311.373077,296.355164 311.033600,296.139069 310.694092,295.923004 
z"/>
<path fill="#184F6A" opacity="1.000000" stroke="none" 
	d="
M378.286499,335.445190 
	C379.741272,334.164001 381.196014,332.882843 382.935120,331.460358 
	C383.469055,331.581360 383.718689,331.843689 384.300354,332.536560 
	C383.133789,334.313782 381.635132,335.660522 379.542358,336.615112 
	C378.727661,335.963745 378.507080,335.704468 378.286499,335.445190 
z"/>
<path fill="#2A5B74" opacity="1.000000" stroke="none" 
	d="
M284.431824,373.031494 
	C284.147003,372.588928 284.298431,372.246094 284.776611,371.442261 
	C286.718536,371.002563 288.333710,371.023834 290.600220,371.482025 
	C291.858765,371.949341 292.465881,371.979736 293.073029,372.010162 
	C290.338043,372.383850 287.603058,372.757568 284.431824,373.031494 
z"/>
<path fill="#164D69" opacity="1.000000" stroke="none" 
	d="
M379.433899,337.185822 
	C378.209381,337.924225 376.984863,338.662628 375.760345,339.401062 
	C375.942535,338.528839 376.124695,337.656586 377.293640,336.824219 
	C378.664917,336.971313 379.049408,337.078583 379.433899,337.185822 
z"/>
<path fill="#164D69" opacity="1.000000" stroke="none" 
	d="
M373.166779,339.159851 
	C374.386902,339.011230 375.090973,339.255463 375.795044,339.499695 
	C375.031555,340.214844 374.268097,340.929993 373.504608,341.645142 
	C373.220001,340.947632 372.935364,340.250153 373.166779,339.159851 
z"/>
<path fill="#1A506B" opacity="1.000000" stroke="none" 
	d="
M288.474396,339.236176 
	C288.229370,338.735657 287.984314,338.235138 287.739258,337.734619 
	C288.587372,337.790466 289.435455,337.846283 290.359070,338.315735 
	C290.286530,338.822937 290.138550,338.916504 289.609283,339.051422 
	C288.976807,339.140564 288.725616,339.188354 288.474396,339.236176 
z"/>
<path fill="#184F6A" opacity="1.000000" stroke="none" 
	d="
M320.836975,291.300415 
	C320.277130,291.094147 319.876038,290.878357 319.256012,290.399994 
	C319.322357,289.932861 319.607697,289.728333 320.146667,289.449402 
	C320.593140,289.616516 320.785919,289.857971 321.225128,290.493469 
	C321.366791,291.085449 321.208191,291.219910 320.836975,291.300415 
z"/>
<path fill="#184F6A" opacity="1.000000" stroke="none" 
	d="
M292.996521,371.615173 
	C292.465881,371.979736 291.858765,371.949341 290.802307,371.822632 
	C291.208679,371.557617 292.064331,371.388916 292.996521,371.615173 
z"/>
<path fill="#1A506B" opacity="1.000000" stroke="none" 
	d="
M290.681641,338.640350 
	C290.871643,339.207550 290.814545,339.863770 290.371887,340.050659 
	C289.987793,339.390900 289.989197,339.200470 289.990601,339.010071 
	C290.138550,338.916504 290.286530,338.822937 290.681641,338.640350 
z"/>
<path fill="#2A5B74" opacity="1.000000" stroke="none" 
	d="
M289.609283,339.051422 
	C289.989197,339.200470 289.987793,339.390900 289.981934,339.867126 
	C289.597412,340.013519 289.217377,339.874146 288.655853,339.485474 
	C288.725616,339.188354 288.976807,339.140564 289.609283,339.051422 
z"/>
<path fill="#1E536D" opacity="1.000000" stroke="none" 
	d="
M310.642853,295.962097 
	C311.033600,296.139069 311.373077,296.355164 311.868225,296.832764 
	C312.023834,297.094269 311.885681,297.416046 311.724091,297.483154 
	C311.369202,297.319275 311.175934,297.088318 310.740540,296.473755 
	C310.498413,296.090179 310.591614,296.001160 310.642853,295.962097 
z"/>
<path fill="#184F6A" opacity="1.000000" stroke="none" 
	d="
M379.401001,337.161926 
	C379.049408,337.078583 378.664917,336.971313 377.709717,336.666321 
	C377.366394,336.211121 377.593781,335.953613 378.053833,335.570679 
	C378.507080,335.704468 378.727661,335.963745 379.192444,336.676331 
	C379.436676,337.129608 379.368103,337.138062 379.401001,337.161926 
z"/>
<path fill="#0A9FDB" opacity="1.000000" stroke="none" 
	d="
M304.148041,199.741028 
	C303.949890,199.824188 303.617249,199.627960 303.136536,199.183746 
	C303.330139,199.111069 303.671844,199.286362 304.148041,199.741028 
z"/>
<path fill="#2A5B74" opacity="1.000000" stroke="none" 
	d="
M385.631531,328.862488 
	C385.694275,329.074829 385.488953,329.393097 385.007233,329.804321 
	C384.941711,329.587616 385.152557,329.277985 385.631531,328.862488 
z"/>
<path fill="#F4F4F4" opacity="1.000000" stroke="none" 
	d="
M220.871857,331.851746 
	C221.031128,331.485596 221.436325,331.350311 221.841522,331.215057 
	C221.891464,331.484772 221.941406,331.754456 221.814148,332.268829 
	C221.463882,332.369873 221.290817,332.226257 220.871857,331.851746 
z"/>
<path fill="#A3DDF6" opacity="1.000000" stroke="none" 
	d="
M292.994568,217.535156 
	C292.775452,218.073822 292.549683,218.143524 291.675720,218.210968 
	C289.697906,217.864441 288.368317,217.520172 287.038727,217.175903 
	C285.290619,218.272400 283.259674,219.092987 281.859253,220.528625 
	C279.638367,222.805389 277.839020,225.493362 275.441650,227.648987 
	C275.577820,223.718536 276.440369,220.157593 276.570404,216.570099 
	C276.644257,214.533249 275.518585,212.452927 274.933075,210.392181 
	C275.566772,206.251236 276.420441,202.128677 276.768646,197.963867 
	C277.080109,194.238800 276.834167,190.467133 276.834167,185.454132 
	C282.395264,188.657379 286.884216,191.243088 291.651550,194.046814 
	C292.282562,201.865295 292.635223,209.465759 292.994568,217.535156 
z"/>
<path fill="#00AEED" opacity="1.000000" stroke="none" 
	d="
M252.997894,187.006195 
	C254.975342,173.986603 256.952789,160.967026 259.169098,146.374680 
	C264.170929,156.808167 268.531494,165.832306 272.815521,174.892624 
	C273.840393,177.060089 274.610260,179.348129 274.840820,181.791901 
	C272.239075,182.348984 270.268127,182.590073 268.353760,183.061050 
	C263.222198,184.323502 258.114838,185.684402 252.997894,187.006195 
z"/>
<path fill="#F8FBFB" opacity="1.000000" stroke="none" 
	d="
M274.641907,210.190338 
	C275.518585,212.452927 276.644257,214.533249 276.570404,216.570099 
	C276.440369,220.157593 275.577820,223.718536 275.108337,227.723770 
	C274.910980,228.879471 274.627258,229.601974 274.269989,230.932251 
	C274.270233,231.738556 274.344025,231.937088 274.417786,232.135605 
	C274.383545,232.319092 274.349335,232.502563 273.913177,232.884995 
	C273.078308,232.983521 272.645386,232.883118 272.044556,232.517044 
	C270.901398,231.206772 269.926147,230.162155 268.804626,228.873245 
	C268.194153,228.317062 267.729919,228.005188 267.165771,227.442047 
	C266.539429,226.749588 266.012970,226.308380 265.306671,225.566727 
	C263.102844,223.098083 261.078857,220.929901 258.877563,218.418060 
	C258.789825,212.020828 258.879395,205.967255 258.968964,199.913681 
	C264.096222,203.271942 269.223511,206.630203 274.641907,210.190338 
z"/>
<path fill="#07BAEF" opacity="1.000000" stroke="none" 
	d="
M252.859650,187.323227 
	C258.114838,185.684402 263.222198,184.323502 268.353760,183.061050 
	C270.268127,182.590073 272.239075,182.348984 274.604004,182.006348 
	C274.680634,185.094269 274.337524,188.178940 273.573547,191.661652 
	C269.068695,193.048233 264.984650,194.036789 260.900635,195.025330 
	C255.146469,193.898422 252.436951,191.451996 252.859650,187.323227 
z"/>
<path fill="#F0F8FB" opacity="1.000000" stroke="none" 
	d="
M239.995789,212.001709 
	C240.593277,211.615601 241.190765,211.229492 241.917511,210.608490 
	C242.797058,209.890259 243.547333,209.406937 244.662476,209.211182 
	C247.355911,214.342438 249.684494,219.186157 251.985245,224.250610 
	C251.957413,224.471344 251.938110,224.915909 251.624908,225.010681 
	C250.597992,226.084656 249.884308,227.063843 248.916534,228.116043 
	C248.439224,228.455048 248.215973,228.721054 247.711761,229.126434 
	C245.816727,230.129028 244.202652,230.992264 242.504593,231.420227 
	C241.612350,224.657211 240.804077,218.329468 239.995789,212.001709 
z"/>
<path fill="#C9E8F8" opacity="1.000000" stroke="none" 
	d="
M258.613770,199.843079 
	C258.879395,205.967255 258.789825,212.020828 258.543579,218.480774 
	C257.283875,219.651978 256.180908,220.416809 255.055817,220.754974 
	C254.368729,217.896408 253.830704,215.420334 253.004547,213.044449 
	C252.103378,210.452850 250.935211,207.954132 249.883438,205.414917 
	C252.675156,203.534103 255.466873,201.653305 258.613770,199.843079 
z"/>
<path fill="#DBF0FA" opacity="1.000000" stroke="none" 
	d="
M249.555908,205.527664 
	C250.935211,207.954132 252.103378,210.452850 253.004547,213.044449 
	C253.830704,215.420334 254.368729,217.896408 254.919708,221.025940 
	C253.874817,222.492325 252.943939,223.261093 252.013062,224.029846 
	C249.684494,219.186157 247.355911,214.342438 244.983368,209.118469 
	C246.369049,207.705612 247.798721,206.673004 249.555908,205.527664 
z"/>
<path fill="#3CC4F1" opacity="1.000000" stroke="none" 
	d="
M260.991486,195.354736 
	C264.984650,194.036789 269.068695,193.048233 273.540619,192.078857 
	C273.301514,195.604019 272.674500,199.110001 271.815735,203.911774 
	C267.674866,200.737610 264.378601,198.210861 260.991486,195.354736 
z"/>
<path fill="#1FA8DD" opacity="1.000000" stroke="none" 
	d="
M251.005646,172.011063 
	C251.364075,175.511917 250.024475,177.157318 246.269623,177.071381 
	C243.421310,177.006180 240.556931,177.643097 236.159683,178.142471 
	C238.384552,174.768799 239.854782,172.539398 241.725403,170.522186 
	C245.085739,171.159943 248.045685,171.585510 251.005646,172.011063 
z"/>
<path fill="#76BCE5" opacity="1.000000" stroke="none" 
	d="
M256.152802,150.136871 
	C255.131836,154.504486 254.110870,158.872101 252.632645,163.615967 
	C250.438110,163.657196 248.700836,163.322189 246.963562,162.987183 
	C249.749756,158.734634 252.535950,154.482086 255.677216,150.127121 
	C256.032257,150.024704 256.152802,150.136871 256.152802,150.136871 
z"/>
<path fill="#43B2E3" opacity="1.000000" stroke="none" 
	d="
M251.036133,171.663147 
	C248.045685,171.585510 245.085739,171.159943 242.013184,170.343933 
	C242.364944,169.380951 242.829285,168.808456 244.006866,168.111755 
	C247.142181,167.988983 249.564270,167.990402 251.986359,167.991821 
	C251.679779,169.099625 251.373184,170.207428 251.036133,171.663147 
z"/>
<path fill="#69B8E5" opacity="1.000000" stroke="none" 
	d="
M252.130920,167.674591 
	C249.564270,167.990402 247.142181,167.988983 244.252808,167.980865 
	C244.651443,166.419601 245.517365,164.865036 246.673431,163.148819 
	C248.700836,163.322189 250.438110,163.657196 252.562683,163.991760 
	C252.725159,165.113312 252.500320,166.235321 252.130920,167.674591 
z"/>
<path fill="#76BCE5" opacity="1.000000" stroke="none" 
	d="
M255.975204,149.965363 
	C256.119080,149.795593 256.319977,149.685165 256.520905,149.574738 
	C256.497375,149.704407 256.473846,149.834106 256.301575,150.050323 
	C256.152802,150.136871 256.032257,150.024704 255.975204,149.965363 
z"/>
<path fill="#E6EAEC" opacity="1.000000" stroke="none" 
	d="
M134.307709,333.013550 
	C140.805191,322.408356 157.698456,314.338715 166.259384,318.248444 
	C157.374924,327.708740 146.821274,332.395996 134.307709,333.013550 
z"/>
<path fill="#0DBEEF" opacity="1.000000" stroke="none" 
	d="
M239.638153,212.052414 
	C240.804077,218.329468 241.612350,224.657211 242.308640,231.668304 
	C242.131409,232.551620 242.066162,232.751602 241.694031,232.821991 
	C235.603149,228.112671 229.819153,223.532928 224.035156,218.953186 
	C224.035156,218.953186 224.010849,219.008270 224.149628,218.794418 
	C224.467651,218.316528 224.701309,218.115845 224.989380,217.978516 
	C229.753098,216.020050 234.516815,214.061584 239.638153,212.052414 
z"/>
<path fill="#DBF0FA" opacity="1.000000" stroke="none" 
	d="
M224.977936,217.556686 
	C224.701309,218.115845 224.467651,218.316528 224.178604,218.786255 
	C220.994171,218.323502 217.919540,217.655060 214.462341,216.936646 
	C216.762680,213.472244 219.445587,210.057816 222.128494,206.643387 
	C222.629349,206.924561 223.130219,207.205719 223.631073,207.486893 
	C224.076202,210.702881 224.521332,213.918869 224.977936,217.556686 
z"/>
<path fill="#3D93CE" opacity="1.000000" stroke="none" 
	d="
M283.939148,245.598328 
	C276.506348,245.819946 269.052643,245.699890 261.482300,245.020630 
	C262.643066,243.327042 263.920441,242.192673 265.504974,241.010620 
	C266.897217,240.003830 267.982300,239.044708 269.364746,237.957214 
	C271.086731,236.855972 272.511383,235.883118 273.936035,234.910248 
	C277.263458,238.359055 280.590851,241.807861 283.939148,245.598328 
z"/>
<path fill="#9DCCEC" opacity="1.000000" stroke="none" 
	d="
M273.982849,234.630051 
	C272.511383,235.883118 271.086731,236.855972 269.067352,237.652496 
	C263.401581,237.097580 258.332306,236.534027 253.258072,236.484695 
	C252.142395,236.473862 251.008957,238.289673 249.572144,239.158234 
	C247.785995,237.771667 246.311386,236.491196 245.135590,234.889374 
	C252.504227,234.378128 259.577271,234.260788 266.641754,233.949585 
	C268.512177,233.867188 270.356293,233.187912 272.212494,232.782715 
	C272.645386,232.883118 273.078308,232.983521 273.838745,233.154907 
	C274.120758,233.600525 274.075195,233.975189 273.982849,234.630051 
z"/>
<path fill="#0DBEEF" opacity="1.000000" stroke="none" 
	d="
M286.994171,217.510132 
	C288.368317,217.520172 289.697906,217.864441 291.345703,218.340256 
	C291.765686,218.801178 291.867462,219.130524 292.002930,219.718094 
	C289.021271,222.295517 286.005920,224.614731 282.990540,226.933945 
	C282.558990,226.575928 282.127441,226.217926 281.695892,225.859909 
	C283.447144,223.188065 285.198364,220.516220 286.994171,217.510132 
z"/>
<path fill="#9DCCEC" opacity="1.000000" stroke="none" 
	d="
M274.541321,231.988922 
	C274.344025,231.937088 274.270233,231.738556 274.213348,231.222916 
	C274.375092,231.217957 274.519989,231.530106 274.541321,231.988922 
z"/>
<path fill="#077AC1" opacity="1.000000" stroke="none" 
	d="
M244.836777,235.210739 
	C246.311386,236.491196 247.785995,237.771667 249.752045,239.413956 
	C251.436432,240.610870 252.629379,241.445984 254.015717,242.538025 
	C255.327988,243.818298 256.446869,244.841644 257.565765,245.864990 
	C249.692459,245.921844 241.819138,245.978714 233.478622,246.015198 
	C234.022247,244.578735 235.033081,243.162659 236.387329,241.284119 
	C237.192795,240.231186 237.654861,239.640686 238.366608,238.913773 
	C239.059158,238.177216 239.502045,237.577103 240.203278,236.839478 
	C240.962860,236.110931 241.464081,235.519882 242.328918,234.903595 
	C243.407272,234.989151 244.122025,235.099945 244.836777,235.210739 
z"/>
<path fill="#DBF0FA" opacity="1.000000" stroke="none" 
	d="
M257.866516,245.876389 
	C256.446869,244.841644 255.327988,243.818298 254.126740,242.130890 
	C257.762177,241.330643 261.479980,241.194458 265.197815,241.058289 
	C263.920441,242.192673 262.643066,243.327042 261.183289,244.729279 
	C260.056335,245.294022 259.111816,245.590912 257.866516,245.876389 
z"/>
<path fill="#ADD6F1" opacity="1.000000" stroke="none" 
	d="
M241.965302,234.928833 
	C241.464081,235.519882 240.962860,236.110931 239.842728,236.837524 
	C236.097321,234.431442 233.035522,231.803879 229.818604,229.382385 
	C228.059250,228.058075 226.037582,227.082260 224.134201,225.949295 
	C224.085144,223.908981 224.036087,221.868668 224.011078,219.390778 
	C229.819153,223.532928 235.603149,228.112671 241.684479,233.151794 
	C241.976303,234.050385 241.970795,234.489609 241.965302,234.928833 
z"/>
<path fill="#87C4E9" opacity="1.000000" stroke="none" 
	d="
M238.116913,239.050201 
	C237.654861,239.640686 237.192795,240.231186 236.490082,240.969971 
	C232.404709,238.437317 228.559982,235.756378 224.372253,233.034241 
	C224.025497,231.596954 224.021744,230.200851 224.369568,228.438385 
	C226.335449,229.406601 227.944397,230.747742 229.565231,232.074356 
	C232.411957,234.404343 235.265961,236.725403 238.116913,239.050201 
z"/>
<path fill="#9DCCEC" opacity="1.000000" stroke="none" 
	d="
M238.366608,238.913773 
	C235.265961,236.725403 232.411957,234.404343 229.565231,232.074356 
	C227.944397,230.747742 226.335449,229.406601 224.384033,228.019608 
	C224.049271,227.518341 224.051636,227.069489 224.094101,226.284958 
	C226.037582,227.082260 228.059250,228.058075 229.818604,229.382385 
	C233.035522,231.803879 236.097321,234.431442 239.584381,236.975006 
	C239.502045,237.577103 239.059158,238.177216 238.366608,238.913773 
z"/>
<path fill="#87C4E9" opacity="1.000000" stroke="none" 
	d="
M242.328903,234.903595 
	C241.970795,234.489609 241.976303,234.050385 241.991364,233.281372 
	C242.066162,232.751602 242.131409,232.551620 242.392609,232.103577 
	C244.202652,230.992264 245.816727,230.129028 247.810089,229.521332 
	C254.916672,230.005676 261.643738,230.245224 268.372650,230.406143 
	C268.555023,230.410507 268.757690,229.566116 268.950897,229.117538 
	C269.926147,230.162155 270.901398,231.206772 272.044556,232.517044 
	C270.356293,233.187912 268.512177,233.867188 266.641754,233.949585 
	C259.577271,234.260788 252.504227,234.378128 245.135590,234.889374 
	C244.122025,235.099945 243.407272,234.989151 242.328903,234.903595 
z"/>
<path fill="#1FA8DD" opacity="1.000000" stroke="none" 
	d="
M251.985229,224.250595 
	C252.943939,223.261093 253.874817,222.492325 254.941818,221.452606 
	C256.180908,220.416809 257.283875,219.651978 258.720825,218.824432 
	C261.078857,220.929901 263.102844,223.098083 264.806030,225.602142 
	C260.302826,225.597305 256.120483,225.256607 251.938110,224.915909 
	C251.938110,224.915909 251.957413,224.471344 251.985229,224.250595 
z"/>
<path fill="#43B2E3" opacity="1.000000" stroke="none" 
	d="
M251.624908,225.010681 
	C256.120483,225.256607 260.302826,225.597305 264.985840,225.902588 
	C266.012970,226.308380 266.539429,226.749588 266.859467,227.770020 
	C260.825562,228.247177 254.998093,228.145111 249.170609,228.043045 
	C249.884308,227.063843 250.597992,226.084656 251.624908,225.010681 
z"/>
<path fill="#69B8E5" opacity="1.000000" stroke="none" 
	d="
M248.916534,228.116043 
	C254.998093,228.145111 260.825562,228.247177 266.959351,228.021271 
	C267.729919,228.005188 268.194153,228.317062 268.804626,228.873245 
	C268.757690,229.566116 268.555023,230.410507 268.372650,230.406143 
	C261.643738,230.245224 254.916672,230.005676 248.091034,229.381958 
	C248.215973,228.721054 248.439224,228.455048 248.916534,228.116043 
z"/>
<path fill="#ADD6F1" opacity="1.000000" stroke="none" 
	d="
M265.504974,241.010620 
	C261.479980,241.194458 257.762177,241.330643 253.933350,241.873962 
	C252.629379,241.445984 251.436432,240.610870 250.063583,239.520050 
	C251.008957,238.289673 252.142395,236.473862 253.258072,236.484695 
	C258.332306,236.534027 263.401581,237.097580 268.770020,237.780869 
	C267.982300,239.044708 266.897217,240.003830 265.504974,241.010620 
z"/>
</svg>