<?xml version="1.0" standalone="no"?>
<!DOCTYPE svg PUBLIC "-//W3C//DTD SVG 20010904//EN"
 "http://www.w3.org/TR/2001/REC-SVG-20010904/DTD/svg10.dtd">
<svg version="1.0" xmlns="http://www.w3.org/2000/svg"
 width="512.000000pt" height="512.000000pt" viewBox="0 0 512.000000 512.000000"
 preserveAspectRatio="xMidYMid meet">

<g transform="translate(0.000000,512.000000) scale(0.100000,-0.100000)"
fill="#000000" stroke="none">
<path d="M1287 4959 c-10 -6 -32 -40 -48 -76 -16 -36 -76 -151 -133 -256 -172
-316 -221 -465 -198 -604 40 -240 267 -399 501 -349 222 47 368 257 332 477
-21 129 -69 244 -206 495 -53 95 -108 202 -124 238 -37 81 -75 104 -124 75z
m142 -428 c64 -117 111 -214 111 -227 0 -2 -9 -4 -20 -4 -76 0 -123 -87 -86
-159 24 -45 99 -66 147 -41 17 10 19 7 19 -23 0 -102 -90 -221 -190 -251 -67
-20 -103 -20 -166 -1 -58 18 -107 53 -85 62 34 14 61 56 61 95 0 75 -84 123
-152 87 -21 -11 -21 -10 -15 51 4 36 24 104 46 159 l38 96 49 -3 c38 -3 55 1
76 17 54 43 56 114 6 168 l-20 22 38 70 38 70 16 -27 c9 -15 49 -87 89 -161z"/>
<path d="M1208 4235 c-17 -38 3 -75 42 -75 21 0 34 8 46 25 15 23 15 27 0 50
-12 17 -25 25 -46 25 -23 0 -33 -6 -42 -25z"/>
<path d="M1362 4034 c-12 -8 -22 -25 -22 -38 0 -26 28 -56 53 -56 21 0 57 35
57 55 0 18 -35 55 -53 55 -7 0 -23 -7 -35 -16z"/>
<path d="M3757 4959 c-10 -6 -33 -43 -51 -82 -18 -40 -76 -151 -128 -247 -136
-249 -178 -351 -199 -479 -36 -220 110 -430 332 -477 234 -50 461 109 501 349
23 140 -29 297 -206 621 -57 105 -115 216 -129 248 -32 73 -72 95 -120 67z
m151 -444 c44 -82 84 -162 87 -177 7 -26 5 -28 -25 -28 -22 0 -41 -9 -61 -29
-50 -51 -36 -137 28 -170 30 -15 76 -14 99 4 29 22 34 18 34 -28 0 -73 -28
-137 -85 -194 -111 -111 -269 -111 -380 1 -133 132 -114 266 93 648 l96 177
16 -27 c9 -15 53 -94 98 -177z"/>
<path d="M3702 4288 c-7 -7 -12 -24 -12 -38 0 -14 5 -31 12 -38 7 -7 24 -12
38 -12 14 0 31 5 38 12 7 7 12 24 12 38 0 14 -5 31 -12 38 -7 7 -24 12 -38 12
-14 0 -31 -5 -38 -12z"/>
<path d="M3676 4054 c-24 -24 -20 -61 9 -80 23 -15 27 -15 50 0 46 30 26 96
-29 96 -8 0 -22 -7 -30 -16z"/>
<path d="M3887 4009 c-31 -18 -40 -48 -22 -75 28 -43 95 -20 95 33 0 33 -44
58 -73 42z"/>
<path d="M2518 4578 c-8 -7 -53 -85 -98 -173 -271 -523 -275 -533 -275 -700 0
-106 2 -114 34 -180 157 -318 605 -318 762 0 32 66 34 74 34 180 0 167 -4 177
-275 700 -45 88 -90 166 -98 173 -9 6 -28 12 -42 12 -14 0 -33 -6 -42 -12z
m66 -281 c44 -77 158 -298 155 -300 -2 -2 -21 -10 -42 -20 -68 -31 -83 -118
-30 -172 33 -32 83 -41 122 -22 29 14 31 14 37 -6 24 -76 -11 -200 -75 -264
-65 -65 -177 -94 -264 -70 l-28 8 30 35 c81 92 -13 221 -122 169 -20 -9 -38
-23 -41 -31 -9 -24 -24 -15 -32 19 -11 50 -7 109 11 174 l17 60 44 0 c100 0
145 112 74 188 -18 20 -17 22 48 142 37 68 69 123 72 123 3 0 13 -15 24 -33z"/>
<path d="M2482 3834 c-24 -17 -30 -62 -10 -82 7 -7 24 -12 38 -12 33 0 50 17
50 51 0 24 -30 59 -50 59 -3 0 -16 -7 -28 -16z"/>
<path d="M2662 3663 c-7 -3 -18 -16 -23 -30 -20 -53 45 -97 85 -57 43 42 -6
110 -62 87z"/>
<path d="M700 3029 c-300 -247 -551 -457 -557 -466 -9 -12 -13 -64 -13 -175 0
-155 1 -159 25 -183 l24 -25 2381 0 2381 0 24 25 c24 24 25 27 25 185 l0 162
-27 27 c-16 14 -267 223 -560 464 l-532 437 -404 0 c-379 0 -405 -1 -420 -18
-10 -10 -17 -35 -17 -55 0 -67 -2 -67 413 -67 l368 0 446 -367 447 -368 -1072
-3 c-590 -1 -1554 -1 -2144 0 l-1071 3 446 368 446 367 364 0 c340 0 366 1
388 18 28 23 30 73 4 102 -18 19 -30 20 -419 19 l-401 0 -545 -450z m4140
-644 l0 -65 -2280 0 -2280 0 0 65 0 65 2280 0 2280 0 0 -65z"/>
<path d="M1142 1235 c0 -16 2 -22 5 -12 2 9 2 23 0 30 -3 6 -5 -1 -5 -18z"/>
</g>
</svg>
